%TF.GenerationSoftware,KiCad,Pcbnew,8.0.4*%
%TF.CreationDate,2024-09-01T23:06:17-05:00*%
%TF.ProjectId,Quick Hack,51756963-6b20-4486-9163-6b2e6b696361,rev?*%
%TF.SameCoordinates,Original*%
%TF.FileFunction,Paste,Top*%
%TF.FilePolarity,Positive*%
%FSLAX46Y46*%
G04 Gerber Fmt 4.6, Leading zero omitted, Abs format (unit mm)*
G04 Created by KiCad (PCBNEW 8.0.4) date 2024-09-01 23:06:17*
%MOMM*%
%LPD*%
G01*
G04 APERTURE LIST*
G04 Aperture macros list*
%AMRoundRect*
0 Rectangle with rounded corners*
0 $1 Rounding radius*
0 $2 $3 $4 $5 $6 $7 $8 $9 X,Y pos of 4 corners*
0 Add a 4 corners polygon primitive as box body*
4,1,4,$2,$3,$4,$5,$6,$7,$8,$9,$2,$3,0*
0 Add four circle primitives for the rounded corners*
1,1,$1+$1,$2,$3*
1,1,$1+$1,$4,$5*
1,1,$1+$1,$6,$7*
1,1,$1+$1,$8,$9*
0 Add four rect primitives between the rounded corners*
20,1,$1+$1,$2,$3,$4,$5,0*
20,1,$1+$1,$4,$5,$6,$7,0*
20,1,$1+$1,$6,$7,$8,$9,0*
20,1,$1+$1,$8,$9,$2,$3,0*%
G04 Aperture macros list end*
%ADD10R,0.700000X0.700000*%
%ADD11R,1.000000X1.250000*%
%ADD12RoundRect,0.325000X-0.325000X-6.025000X0.325000X-6.025000X0.325000X6.025000X-0.325000X6.025000X0*%
%ADD13RoundRect,0.325000X-0.325000X-5.725000X0.325000X-5.725000X0.325000X5.725000X-0.325000X5.725000X0*%
%ADD14RoundRect,0.250000X-0.262500X-0.450000X0.262500X-0.450000X0.262500X0.450000X-0.262500X0.450000X0*%
%ADD15R,1.500000X0.900000*%
%ADD16RoundRect,0.243750X0.243750X0.456250X-0.243750X0.456250X-0.243750X-0.456250X0.243750X-0.456250X0*%
%ADD17RoundRect,0.250000X0.250000X0.475000X-0.250000X0.475000X-0.250000X-0.475000X0.250000X-0.475000X0*%
G04 APERTURE END LIST*
D10*
%TO.C,D1*%
X127915000Y-81550000D03*
X127915000Y-80450000D03*
X126085000Y-80450000D03*
X126085000Y-81550000D03*
%TD*%
D11*
%TO.C,SW1*%
X129300000Y-69825000D03*
X129300000Y-77575000D03*
%TD*%
%TO.C,SW2*%
X134300000Y-69825000D03*
X134300000Y-77575000D03*
%TD*%
D12*
%TO.C,J1*%
X135040000Y-95500000D03*
D13*
X132880000Y-95200000D03*
X130720000Y-95200000D03*
D12*
X128560000Y-95500000D03*
%TD*%
D14*
%TO.C,R2*%
X131887500Y-85200000D03*
X133712500Y-85200000D03*
%TD*%
D15*
%TO.C,U2*%
X123050000Y-55300000D03*
X123050000Y-56800000D03*
X123050000Y-58300000D03*
X123050000Y-59800000D03*
X123050000Y-61300000D03*
X123050000Y-62800000D03*
X123050000Y-64300000D03*
X123050000Y-65800000D03*
X123050000Y-67300000D03*
X140550000Y-67300000D03*
X140550000Y-65800000D03*
X140550000Y-64300000D03*
X140550000Y-62800000D03*
X140550000Y-61300000D03*
X140550000Y-59800000D03*
X140550000Y-58300000D03*
X140550000Y-56800000D03*
X140550000Y-55300000D03*
D10*
X131660000Y-60400000D03*
X131660000Y-61500000D03*
X131660000Y-62600000D03*
X132710000Y-60400000D03*
X132710000Y-61500000D03*
X132710000Y-62600000D03*
X133860000Y-60400000D03*
X133860000Y-61500000D03*
X133860000Y-62600000D03*
%TD*%
D16*
%TO.C,D2*%
X137737500Y-85200000D03*
X135862500Y-85200000D03*
%TD*%
D17*
%TO.C,C7*%
X135250000Y-80200000D03*
X133350000Y-80200000D03*
%TD*%
M02*
