%TF.GenerationSoftware,KiCad,Pcbnew,8.0.4*%
%TF.CreationDate,2024-09-01T23:06:21-05:00*%
%TF.ProjectId,Quick Hack,51756963-6b20-4486-9163-6b2e6b696361,rev?*%
%TF.SameCoordinates,Original*%
%TF.FileFunction,Drillmap*%
%TF.FilePolarity,Positive*%
%FSLAX45Y45*%
G04 Gerber Fmt 4.5, Leading zero omitted, Abs format (unit mm)*
G04 Created by KiCad (PCBNEW 8.0.4) date 2024-09-01 23:06:21*
%MOMM*%
%LPD*%
G01*
G04 APERTURE LIST*
%ADD10C,0.050000*%
%ADD11C,0.200000*%
G04 APERTURE END LIST*
D10*
X14280000Y-8520000D02*
G75*
G02*
X13980000Y-8820000I-300000J0D01*
G01*
X14280000Y-5720000D02*
X14280000Y-8520000D01*
X13780000Y-10200000D02*
X13780000Y-9020000D01*
X13180000Y-10300000D02*
X13680000Y-10300000D01*
X13980000Y-5420000D02*
G75*
G02*
X14280000Y-5720000I0J-300000D01*
G01*
X13180000Y-10300000D02*
X12680000Y-10300000D01*
X12080000Y-5720000D02*
G75*
G02*
X12380000Y-5420000I300000J0D01*
G01*
X12380000Y-8820000D02*
G75*
G02*
X12580000Y-9020000I0J-200000D01*
G01*
X12380000Y-8820000D02*
G75*
G02*
X12080000Y-8520000I0J300000D01*
G01*
X13780000Y-10200000D02*
G75*
G02*
X13680000Y-10300000I-100000J0D01*
G01*
X12580000Y-10200000D02*
X12580000Y-9020000D01*
X13980000Y-5420000D02*
X12380000Y-5420000D01*
X12680000Y-10300000D02*
G75*
G02*
X12580000Y-10200000I0J100000D01*
G01*
X12080000Y-5720000D02*
X12080000Y-8520000D01*
X13780000Y-9020000D02*
G75*
G02*
X13980000Y-8820000I200000J0D01*
G01*
D11*
X12338277Y-10613984D02*
X12338277Y-10413984D01*
X12338277Y-10413984D02*
X12385896Y-10413984D01*
X12385896Y-10413984D02*
X12414467Y-10423508D01*
X12414467Y-10423508D02*
X12433515Y-10442555D01*
X12433515Y-10442555D02*
X12443039Y-10461603D01*
X12443039Y-10461603D02*
X12452562Y-10499698D01*
X12452562Y-10499698D02*
X12452562Y-10528270D01*
X12452562Y-10528270D02*
X12443039Y-10566365D01*
X12443039Y-10566365D02*
X12433515Y-10585412D01*
X12433515Y-10585412D02*
X12414467Y-10604460D01*
X12414467Y-10604460D02*
X12385896Y-10613984D01*
X12385896Y-10613984D02*
X12338277Y-10613984D01*
X12538277Y-10613984D02*
X12538277Y-10480650D01*
X12538277Y-10518746D02*
X12547801Y-10499698D01*
X12547801Y-10499698D02*
X12557324Y-10490174D01*
X12557324Y-10490174D02*
X12576372Y-10480650D01*
X12576372Y-10480650D02*
X12595420Y-10480650D01*
X12662086Y-10613984D02*
X12662086Y-10480650D01*
X12662086Y-10413984D02*
X12652562Y-10423508D01*
X12652562Y-10423508D02*
X12662086Y-10433031D01*
X12662086Y-10433031D02*
X12671610Y-10423508D01*
X12671610Y-10423508D02*
X12662086Y-10413984D01*
X12662086Y-10413984D02*
X12662086Y-10433031D01*
X12785896Y-10613984D02*
X12766848Y-10604460D01*
X12766848Y-10604460D02*
X12757324Y-10585412D01*
X12757324Y-10585412D02*
X12757324Y-10413984D01*
X12890658Y-10613984D02*
X12871610Y-10604460D01*
X12871610Y-10604460D02*
X12862086Y-10585412D01*
X12862086Y-10585412D02*
X12862086Y-10413984D01*
X13119229Y-10613984D02*
X13119229Y-10413984D01*
X13119229Y-10413984D02*
X13185896Y-10556841D01*
X13185896Y-10556841D02*
X13252562Y-10413984D01*
X13252562Y-10413984D02*
X13252562Y-10613984D01*
X13433515Y-10613984D02*
X13433515Y-10509222D01*
X13433515Y-10509222D02*
X13423991Y-10490174D01*
X13423991Y-10490174D02*
X13404943Y-10480650D01*
X13404943Y-10480650D02*
X13366848Y-10480650D01*
X13366848Y-10480650D02*
X13347801Y-10490174D01*
X13433515Y-10604460D02*
X13414467Y-10613984D01*
X13414467Y-10613984D02*
X13366848Y-10613984D01*
X13366848Y-10613984D02*
X13347801Y-10604460D01*
X13347801Y-10604460D02*
X13338277Y-10585412D01*
X13338277Y-10585412D02*
X13338277Y-10566365D01*
X13338277Y-10566365D02*
X13347801Y-10547317D01*
X13347801Y-10547317D02*
X13366848Y-10537793D01*
X13366848Y-10537793D02*
X13414467Y-10537793D01*
X13414467Y-10537793D02*
X13433515Y-10528270D01*
X13528753Y-10480650D02*
X13528753Y-10680650D01*
X13528753Y-10490174D02*
X13547801Y-10480650D01*
X13547801Y-10480650D02*
X13585896Y-10480650D01*
X13585896Y-10480650D02*
X13604943Y-10490174D01*
X13604943Y-10490174D02*
X13614467Y-10499698D01*
X13614467Y-10499698D02*
X13623991Y-10518746D01*
X13623991Y-10518746D02*
X13623991Y-10575889D01*
X13623991Y-10575889D02*
X13614467Y-10594936D01*
X13614467Y-10594936D02*
X13604943Y-10604460D01*
X13604943Y-10604460D02*
X13585896Y-10613984D01*
X13585896Y-10613984D02*
X13547801Y-10613984D01*
X13547801Y-10613984D02*
X13528753Y-10604460D01*
X13709705Y-10594936D02*
X13719229Y-10604460D01*
X13719229Y-10604460D02*
X13709705Y-10613984D01*
X13709705Y-10613984D02*
X13700182Y-10604460D01*
X13700182Y-10604460D02*
X13709705Y-10594936D01*
X13709705Y-10594936D02*
X13709705Y-10613984D01*
X13709705Y-10490174D02*
X13719229Y-10499698D01*
X13719229Y-10499698D02*
X13709705Y-10509222D01*
X13709705Y-10509222D02*
X13700182Y-10499698D01*
X13700182Y-10499698D02*
X13709705Y-10490174D01*
X13709705Y-10490174D02*
X13709705Y-10509222D01*
M02*
