%TF.GenerationSoftware,KiCad,Pcbnew,8.0.4*%
%TF.CreationDate,2024-09-01T23:06:21-05:00*%
%TF.ProjectId,Quick Hack,51756963-6b20-4486-9163-6b2e6b696361,rev?*%
%TF.SameCoordinates,Original*%
%TF.FileFunction,Drillmap*%
%TF.FilePolarity,Positive*%
%FSLAX45Y45*%
G04 Gerber Fmt 4.5, Leading zero omitted, Abs format (unit mm)*
G04 Created by KiCad (PCBNEW 8.0.4) date 2024-09-01 23:06:21*
%MOMM*%
%LPD*%
G01*
G04 APERTURE LIST*
%ADD10C,0.050000*%
%ADD11C,0.200000*%
%ADD12C,0.100000*%
G04 APERTURE END LIST*
D10*
X14280000Y-8520000D02*
G75*
G02*
X13980000Y-8820000I-300000J0D01*
G01*
X14280000Y-5720000D02*
X14280000Y-8520000D01*
X13780000Y-10200000D02*
X13780000Y-9020000D01*
X13180000Y-10300000D02*
X13680000Y-10300000D01*
X13980000Y-5420000D02*
G75*
G02*
X14280000Y-5720000I0J-300000D01*
G01*
X13180000Y-10300000D02*
X12680000Y-10300000D01*
X12080000Y-5720000D02*
G75*
G02*
X12380000Y-5420000I300000J0D01*
G01*
X12380000Y-8820000D02*
G75*
G02*
X12580000Y-9020000I0J-200000D01*
G01*
X12380000Y-8820000D02*
G75*
G02*
X12080000Y-8520000I0J300000D01*
G01*
X13780000Y-10200000D02*
G75*
G02*
X13680000Y-10300000I-100000J0D01*
G01*
X12580000Y-10200000D02*
X12580000Y-9020000D01*
X13980000Y-5420000D02*
X12380000Y-5420000D01*
X12680000Y-10300000D02*
G75*
G02*
X12580000Y-10200000I0J100000D01*
G01*
X12080000Y-5720000D02*
X12080000Y-8520000D01*
X13780000Y-9020000D02*
G75*
G02*
X13980000Y-8820000I200000J0D01*
G01*
D11*
D12*
X12145000Y-6405000D02*
X12175000Y-6435000D01*
X12175000Y-6405000D02*
X12145000Y-6435000D01*
X12185000Y-8385000D02*
X12215000Y-8415000D01*
X12215000Y-8385000D02*
X12185000Y-8415000D01*
X12265000Y-6945000D02*
X12295000Y-6975000D01*
X12295000Y-6945000D02*
X12265000Y-6975000D01*
X12325000Y-6865000D02*
X12355000Y-6895000D01*
X12355000Y-6865000D02*
X12325000Y-6895000D01*
X12365000Y-8635000D02*
X12395000Y-8665000D01*
X12395000Y-8635000D02*
X12365000Y-8665000D01*
X12445000Y-5515000D02*
X12475000Y-5545000D01*
X12475000Y-5515000D02*
X12445000Y-5545000D01*
X12485000Y-5665000D02*
X12515000Y-5695000D01*
X12515000Y-5665000D02*
X12485000Y-5695000D01*
X12575000Y-7905000D02*
X12605000Y-7935000D01*
X12605000Y-7905000D02*
X12575000Y-7935000D01*
X12595000Y-8635000D02*
X12625000Y-8665000D01*
X12625000Y-8635000D02*
X12595000Y-8665000D01*
X12805000Y-7895000D02*
X12835000Y-7925000D01*
X12835000Y-7895000D02*
X12805000Y-7925000D01*
X12815000Y-8635000D02*
X12845000Y-8665000D01*
X12845000Y-8635000D02*
X12815000Y-8665000D01*
X12895000Y-8185000D02*
X12925000Y-8215000D01*
X12925000Y-8185000D02*
X12895000Y-8215000D01*
X12955000Y-7995000D02*
X12985000Y-8025000D01*
X12985000Y-7995000D02*
X12955000Y-8025000D01*
X12985000Y-8725000D02*
X13015000Y-8755000D01*
X13015000Y-8725000D02*
X12985000Y-8755000D01*
X13025000Y-6025000D02*
X13055000Y-6055000D01*
X13055000Y-6025000D02*
X13025000Y-6055000D01*
X13025000Y-6135000D02*
X13055000Y-6165000D01*
X13055000Y-6135000D02*
X13025000Y-6165000D01*
X13025000Y-6245000D02*
X13055000Y-6275000D01*
X13055000Y-6245000D02*
X13025000Y-6275000D01*
X13055000Y-8555000D02*
X13085000Y-8585000D01*
X13085000Y-8555000D02*
X13055000Y-8585000D01*
X13185000Y-7945000D02*
X13215000Y-7975000D01*
X13215000Y-7945000D02*
X13185000Y-7975000D01*
X13325000Y-8165000D02*
X13355000Y-8195000D01*
X13355000Y-8165000D02*
X13325000Y-8195000D01*
X13364868Y-8620000D02*
X13394868Y-8650000D01*
X13394868Y-8620000D02*
X13364868Y-8650000D01*
X13375000Y-8775000D02*
X13405000Y-8805000D01*
X13405000Y-8775000D02*
X13375000Y-8805000D01*
X13605000Y-6965000D02*
X13635000Y-6995000D01*
X13635000Y-6965000D02*
X13605000Y-6995000D01*
X13605000Y-7885000D02*
X13635000Y-7915000D01*
X13635000Y-7885000D02*
X13605000Y-7915000D01*
X13775000Y-6205000D02*
X13805000Y-6235000D01*
X13805000Y-6205000D02*
X13775000Y-6235000D01*
X13855000Y-5665000D02*
X13885000Y-5695000D01*
X13885000Y-5665000D02*
X13855000Y-5695000D01*
X13865000Y-5525000D02*
X13895000Y-5555000D01*
X13895000Y-5525000D02*
X13865000Y-5555000D01*
X13865000Y-6275000D02*
X13895000Y-6305000D01*
X13895000Y-6275000D02*
X13865000Y-6305000D01*
X13905000Y-6715000D02*
X13935000Y-6745000D01*
X13935000Y-6715000D02*
X13905000Y-6745000D01*
X12350000Y-7218000D02*
G75*
G02*
X12250000Y-7218000I-50000J0D01*
G01*
X12250000Y-7218000D02*
G75*
G02*
X12350000Y-7218000I50000J0D01*
G01*
X12350000Y-7472000D02*
G75*
G02*
X12250000Y-7472000I-50000J0D01*
G01*
X12250000Y-7472000D02*
G75*
G02*
X12350000Y-7472000I50000J0D01*
G01*
X12350000Y-7726000D02*
G75*
G02*
X12250000Y-7726000I-50000J0D01*
G01*
X12250000Y-7726000D02*
G75*
G02*
X12350000Y-7726000I50000J0D01*
G01*
X12350000Y-7980000D02*
G75*
G02*
X12250000Y-7980000I-50000J0D01*
G01*
X12250000Y-7980000D02*
G75*
G02*
X12350000Y-7980000I50000J0D01*
G01*
X14110000Y-7218000D02*
G75*
G02*
X14010000Y-7218000I-50000J0D01*
G01*
X14010000Y-7218000D02*
G75*
G02*
X14110000Y-7218000I50000J0D01*
G01*
X14110000Y-7472000D02*
G75*
G02*
X14010000Y-7472000I-50000J0D01*
G01*
X14010000Y-7472000D02*
G75*
G02*
X14110000Y-7472000I50000J0D01*
G01*
X14110000Y-7726000D02*
G75*
G02*
X14010000Y-7726000I-50000J0D01*
G01*
X14010000Y-7726000D02*
G75*
G02*
X14110000Y-7726000I50000J0D01*
G01*
X14110000Y-7980000D02*
G75*
G02*
X14010000Y-7980000I-50000J0D01*
G01*
X14010000Y-7980000D02*
G75*
G02*
X14110000Y-7980000I50000J0D01*
G01*
D11*
X12338277Y-10613984D02*
X12338277Y-10413984D01*
X12338277Y-10413984D02*
X12385896Y-10413984D01*
X12385896Y-10413984D02*
X12414467Y-10423508D01*
X12414467Y-10423508D02*
X12433515Y-10442555D01*
X12433515Y-10442555D02*
X12443039Y-10461603D01*
X12443039Y-10461603D02*
X12452562Y-10499698D01*
X12452562Y-10499698D02*
X12452562Y-10528270D01*
X12452562Y-10528270D02*
X12443039Y-10566365D01*
X12443039Y-10566365D02*
X12433515Y-10585412D01*
X12433515Y-10585412D02*
X12414467Y-10604460D01*
X12414467Y-10604460D02*
X12385896Y-10613984D01*
X12385896Y-10613984D02*
X12338277Y-10613984D01*
X12538277Y-10613984D02*
X12538277Y-10480650D01*
X12538277Y-10518746D02*
X12547801Y-10499698D01*
X12547801Y-10499698D02*
X12557324Y-10490174D01*
X12557324Y-10490174D02*
X12576372Y-10480650D01*
X12576372Y-10480650D02*
X12595420Y-10480650D01*
X12662086Y-10613984D02*
X12662086Y-10480650D01*
X12662086Y-10413984D02*
X12652562Y-10423508D01*
X12652562Y-10423508D02*
X12662086Y-10433031D01*
X12662086Y-10433031D02*
X12671610Y-10423508D01*
X12671610Y-10423508D02*
X12662086Y-10413984D01*
X12662086Y-10413984D02*
X12662086Y-10433031D01*
X12785896Y-10613984D02*
X12766848Y-10604460D01*
X12766848Y-10604460D02*
X12757324Y-10585412D01*
X12757324Y-10585412D02*
X12757324Y-10413984D01*
X12890658Y-10613984D02*
X12871610Y-10604460D01*
X12871610Y-10604460D02*
X12862086Y-10585412D01*
X12862086Y-10585412D02*
X12862086Y-10413984D01*
X13119229Y-10613984D02*
X13119229Y-10413984D01*
X13119229Y-10413984D02*
X13185896Y-10556841D01*
X13185896Y-10556841D02*
X13252562Y-10413984D01*
X13252562Y-10413984D02*
X13252562Y-10613984D01*
X13433515Y-10613984D02*
X13433515Y-10509222D01*
X13433515Y-10509222D02*
X13423991Y-10490174D01*
X13423991Y-10490174D02*
X13404943Y-10480650D01*
X13404943Y-10480650D02*
X13366848Y-10480650D01*
X13366848Y-10480650D02*
X13347801Y-10490174D01*
X13433515Y-10604460D02*
X13414467Y-10613984D01*
X13414467Y-10613984D02*
X13366848Y-10613984D01*
X13366848Y-10613984D02*
X13347801Y-10604460D01*
X13347801Y-10604460D02*
X13338277Y-10585412D01*
X13338277Y-10585412D02*
X13338277Y-10566365D01*
X13338277Y-10566365D02*
X13347801Y-10547317D01*
X13347801Y-10547317D02*
X13366848Y-10537793D01*
X13366848Y-10537793D02*
X13414467Y-10537793D01*
X13414467Y-10537793D02*
X13433515Y-10528270D01*
X13528753Y-10480650D02*
X13528753Y-10680650D01*
X13528753Y-10490174D02*
X13547801Y-10480650D01*
X13547801Y-10480650D02*
X13585896Y-10480650D01*
X13585896Y-10480650D02*
X13604943Y-10490174D01*
X13604943Y-10490174D02*
X13614467Y-10499698D01*
X13614467Y-10499698D02*
X13623991Y-10518746D01*
X13623991Y-10518746D02*
X13623991Y-10575889D01*
X13623991Y-10575889D02*
X13614467Y-10594936D01*
X13614467Y-10594936D02*
X13604943Y-10604460D01*
X13604943Y-10604460D02*
X13585896Y-10613984D01*
X13585896Y-10613984D02*
X13547801Y-10613984D01*
X13547801Y-10613984D02*
X13528753Y-10604460D01*
X13709705Y-10594936D02*
X13719229Y-10604460D01*
X13719229Y-10604460D02*
X13709705Y-10613984D01*
X13709705Y-10613984D02*
X13700182Y-10604460D01*
X13700182Y-10604460D02*
X13709705Y-10594936D01*
X13709705Y-10594936D02*
X13709705Y-10613984D01*
X13709705Y-10490174D02*
X13719229Y-10499698D01*
X13719229Y-10499698D02*
X13709705Y-10509222D01*
X13709705Y-10509222D02*
X13700182Y-10499698D01*
X13700182Y-10499698D02*
X13709705Y-10490174D01*
X13709705Y-10490174D02*
X13709705Y-10509222D01*
D12*
X12047500Y-10927500D02*
X12077500Y-10957500D01*
X12077500Y-10927500D02*
X12047500Y-10957500D01*
D11*
X12376372Y-10833984D02*
X12395420Y-10833984D01*
X12395420Y-10833984D02*
X12414467Y-10843508D01*
X12414467Y-10843508D02*
X12423991Y-10853031D01*
X12423991Y-10853031D02*
X12433515Y-10872079D01*
X12433515Y-10872079D02*
X12443039Y-10910174D01*
X12443039Y-10910174D02*
X12443039Y-10957793D01*
X12443039Y-10957793D02*
X12433515Y-10995889D01*
X12433515Y-10995889D02*
X12423991Y-11014936D01*
X12423991Y-11014936D02*
X12414467Y-11024460D01*
X12414467Y-11024460D02*
X12395420Y-11033984D01*
X12395420Y-11033984D02*
X12376372Y-11033984D01*
X12376372Y-11033984D02*
X12357324Y-11024460D01*
X12357324Y-11024460D02*
X12347801Y-11014936D01*
X12347801Y-11014936D02*
X12338277Y-10995889D01*
X12338277Y-10995889D02*
X12328753Y-10957793D01*
X12328753Y-10957793D02*
X12328753Y-10910174D01*
X12328753Y-10910174D02*
X12338277Y-10872079D01*
X12338277Y-10872079D02*
X12347801Y-10853031D01*
X12347801Y-10853031D02*
X12357324Y-10843508D01*
X12357324Y-10843508D02*
X12376372Y-10833984D01*
X12528753Y-11014936D02*
X12538277Y-11024460D01*
X12538277Y-11024460D02*
X12528753Y-11033984D01*
X12528753Y-11033984D02*
X12519229Y-11024460D01*
X12519229Y-11024460D02*
X12528753Y-11014936D01*
X12528753Y-11014936D02*
X12528753Y-11033984D01*
X12604943Y-10833984D02*
X12728753Y-10833984D01*
X12728753Y-10833984D02*
X12662086Y-10910174D01*
X12662086Y-10910174D02*
X12690658Y-10910174D01*
X12690658Y-10910174D02*
X12709705Y-10919698D01*
X12709705Y-10919698D02*
X12719229Y-10929222D01*
X12719229Y-10929222D02*
X12728753Y-10948270D01*
X12728753Y-10948270D02*
X12728753Y-10995889D01*
X12728753Y-10995889D02*
X12719229Y-11014936D01*
X12719229Y-11014936D02*
X12709705Y-11024460D01*
X12709705Y-11024460D02*
X12690658Y-11033984D01*
X12690658Y-11033984D02*
X12633515Y-11033984D01*
X12633515Y-11033984D02*
X12614467Y-11024460D01*
X12614467Y-11024460D02*
X12604943Y-11014936D01*
X12852562Y-10833984D02*
X12871610Y-10833984D01*
X12871610Y-10833984D02*
X12890658Y-10843508D01*
X12890658Y-10843508D02*
X12900182Y-10853031D01*
X12900182Y-10853031D02*
X12909705Y-10872079D01*
X12909705Y-10872079D02*
X12919229Y-10910174D01*
X12919229Y-10910174D02*
X12919229Y-10957793D01*
X12919229Y-10957793D02*
X12909705Y-10995889D01*
X12909705Y-10995889D02*
X12900182Y-11014936D01*
X12900182Y-11014936D02*
X12890658Y-11024460D01*
X12890658Y-11024460D02*
X12871610Y-11033984D01*
X12871610Y-11033984D02*
X12852562Y-11033984D01*
X12852562Y-11033984D02*
X12833515Y-11024460D01*
X12833515Y-11024460D02*
X12823991Y-11014936D01*
X12823991Y-11014936D02*
X12814467Y-10995889D01*
X12814467Y-10995889D02*
X12804943Y-10957793D01*
X12804943Y-10957793D02*
X12804943Y-10910174D01*
X12804943Y-10910174D02*
X12814467Y-10872079D01*
X12814467Y-10872079D02*
X12823991Y-10853031D01*
X12823991Y-10853031D02*
X12833515Y-10843508D01*
X12833515Y-10843508D02*
X12852562Y-10833984D01*
X13043039Y-10833984D02*
X13062086Y-10833984D01*
X13062086Y-10833984D02*
X13081134Y-10843508D01*
X13081134Y-10843508D02*
X13090658Y-10853031D01*
X13090658Y-10853031D02*
X13100182Y-10872079D01*
X13100182Y-10872079D02*
X13109705Y-10910174D01*
X13109705Y-10910174D02*
X13109705Y-10957793D01*
X13109705Y-10957793D02*
X13100182Y-10995889D01*
X13100182Y-10995889D02*
X13090658Y-11014936D01*
X13090658Y-11014936D02*
X13081134Y-11024460D01*
X13081134Y-11024460D02*
X13062086Y-11033984D01*
X13062086Y-11033984D02*
X13043039Y-11033984D01*
X13043039Y-11033984D02*
X13023991Y-11024460D01*
X13023991Y-11024460D02*
X13014467Y-11014936D01*
X13014467Y-11014936D02*
X13004943Y-10995889D01*
X13004943Y-10995889D02*
X12995420Y-10957793D01*
X12995420Y-10957793D02*
X12995420Y-10910174D01*
X12995420Y-10910174D02*
X13004943Y-10872079D01*
X13004943Y-10872079D02*
X13014467Y-10853031D01*
X13014467Y-10853031D02*
X13023991Y-10843508D01*
X13023991Y-10843508D02*
X13043039Y-10833984D01*
X13195420Y-11033984D02*
X13195420Y-10900650D01*
X13195420Y-10919698D02*
X13204943Y-10910174D01*
X13204943Y-10910174D02*
X13223991Y-10900650D01*
X13223991Y-10900650D02*
X13252563Y-10900650D01*
X13252563Y-10900650D02*
X13271610Y-10910174D01*
X13271610Y-10910174D02*
X13281134Y-10929222D01*
X13281134Y-10929222D02*
X13281134Y-11033984D01*
X13281134Y-10929222D02*
X13290658Y-10910174D01*
X13290658Y-10910174D02*
X13309705Y-10900650D01*
X13309705Y-10900650D02*
X13338277Y-10900650D01*
X13338277Y-10900650D02*
X13357324Y-10910174D01*
X13357324Y-10910174D02*
X13366848Y-10929222D01*
X13366848Y-10929222D02*
X13366848Y-11033984D01*
X13462086Y-11033984D02*
X13462086Y-10900650D01*
X13462086Y-10919698D02*
X13471610Y-10910174D01*
X13471610Y-10910174D02*
X13490658Y-10900650D01*
X13490658Y-10900650D02*
X13519229Y-10900650D01*
X13519229Y-10900650D02*
X13538277Y-10910174D01*
X13538277Y-10910174D02*
X13547801Y-10929222D01*
X13547801Y-10929222D02*
X13547801Y-11033984D01*
X13547801Y-10929222D02*
X13557324Y-10910174D01*
X13557324Y-10910174D02*
X13576372Y-10900650D01*
X13576372Y-10900650D02*
X13604943Y-10900650D01*
X13604943Y-10900650D02*
X13623991Y-10910174D01*
X13623991Y-10910174D02*
X13633515Y-10929222D01*
X13633515Y-10929222D02*
X13633515Y-11033984D01*
X14023991Y-10824460D02*
X13852563Y-11081603D01*
X14281134Y-10833984D02*
X14300182Y-10833984D01*
X14300182Y-10833984D02*
X14319229Y-10843508D01*
X14319229Y-10843508D02*
X14328753Y-10853031D01*
X14328753Y-10853031D02*
X14338277Y-10872079D01*
X14338277Y-10872079D02*
X14347801Y-10910174D01*
X14347801Y-10910174D02*
X14347801Y-10957793D01*
X14347801Y-10957793D02*
X14338277Y-10995889D01*
X14338277Y-10995889D02*
X14328753Y-11014936D01*
X14328753Y-11014936D02*
X14319229Y-11024460D01*
X14319229Y-11024460D02*
X14300182Y-11033984D01*
X14300182Y-11033984D02*
X14281134Y-11033984D01*
X14281134Y-11033984D02*
X14262086Y-11024460D01*
X14262086Y-11024460D02*
X14252563Y-11014936D01*
X14252563Y-11014936D02*
X14243039Y-10995889D01*
X14243039Y-10995889D02*
X14233515Y-10957793D01*
X14233515Y-10957793D02*
X14233515Y-10910174D01*
X14233515Y-10910174D02*
X14243039Y-10872079D01*
X14243039Y-10872079D02*
X14252563Y-10853031D01*
X14252563Y-10853031D02*
X14262086Y-10843508D01*
X14262086Y-10843508D02*
X14281134Y-10833984D01*
X14433515Y-11014936D02*
X14443039Y-11024460D01*
X14443039Y-11024460D02*
X14433515Y-11033984D01*
X14433515Y-11033984D02*
X14423991Y-11024460D01*
X14423991Y-11024460D02*
X14433515Y-11014936D01*
X14433515Y-11014936D02*
X14433515Y-11033984D01*
X14566848Y-10833984D02*
X14585896Y-10833984D01*
X14585896Y-10833984D02*
X14604944Y-10843508D01*
X14604944Y-10843508D02*
X14614467Y-10853031D01*
X14614467Y-10853031D02*
X14623991Y-10872079D01*
X14623991Y-10872079D02*
X14633515Y-10910174D01*
X14633515Y-10910174D02*
X14633515Y-10957793D01*
X14633515Y-10957793D02*
X14623991Y-10995889D01*
X14623991Y-10995889D02*
X14614467Y-11014936D01*
X14614467Y-11014936D02*
X14604944Y-11024460D01*
X14604944Y-11024460D02*
X14585896Y-11033984D01*
X14585896Y-11033984D02*
X14566848Y-11033984D01*
X14566848Y-11033984D02*
X14547801Y-11024460D01*
X14547801Y-11024460D02*
X14538277Y-11014936D01*
X14538277Y-11014936D02*
X14528753Y-10995889D01*
X14528753Y-10995889D02*
X14519229Y-10957793D01*
X14519229Y-10957793D02*
X14519229Y-10910174D01*
X14519229Y-10910174D02*
X14528753Y-10872079D01*
X14528753Y-10872079D02*
X14538277Y-10853031D01*
X14538277Y-10853031D02*
X14547801Y-10843508D01*
X14547801Y-10843508D02*
X14566848Y-10833984D01*
X14823991Y-11033984D02*
X14709706Y-11033984D01*
X14766848Y-11033984D02*
X14766848Y-10833984D01*
X14766848Y-10833984D02*
X14747801Y-10862555D01*
X14747801Y-10862555D02*
X14728753Y-10881603D01*
X14728753Y-10881603D02*
X14709706Y-10891127D01*
X15014467Y-11033984D02*
X14900182Y-11033984D01*
X14957325Y-11033984D02*
X14957325Y-10833984D01*
X14957325Y-10833984D02*
X14938277Y-10862555D01*
X14938277Y-10862555D02*
X14919229Y-10881603D01*
X14919229Y-10881603D02*
X14900182Y-10891127D01*
X15128753Y-10919698D02*
X15109706Y-10910174D01*
X15109706Y-10910174D02*
X15100182Y-10900650D01*
X15100182Y-10900650D02*
X15090658Y-10881603D01*
X15090658Y-10881603D02*
X15090658Y-10872079D01*
X15090658Y-10872079D02*
X15100182Y-10853031D01*
X15100182Y-10853031D02*
X15109706Y-10843508D01*
X15109706Y-10843508D02*
X15128753Y-10833984D01*
X15128753Y-10833984D02*
X15166848Y-10833984D01*
X15166848Y-10833984D02*
X15185896Y-10843508D01*
X15185896Y-10843508D02*
X15195420Y-10853031D01*
X15195420Y-10853031D02*
X15204944Y-10872079D01*
X15204944Y-10872079D02*
X15204944Y-10881603D01*
X15204944Y-10881603D02*
X15195420Y-10900650D01*
X15195420Y-10900650D02*
X15185896Y-10910174D01*
X15185896Y-10910174D02*
X15166848Y-10919698D01*
X15166848Y-10919698D02*
X15128753Y-10919698D01*
X15128753Y-10919698D02*
X15109706Y-10929222D01*
X15109706Y-10929222D02*
X15100182Y-10938746D01*
X15100182Y-10938746D02*
X15090658Y-10957793D01*
X15090658Y-10957793D02*
X15090658Y-10995889D01*
X15090658Y-10995889D02*
X15100182Y-11014936D01*
X15100182Y-11014936D02*
X15109706Y-11024460D01*
X15109706Y-11024460D02*
X15128753Y-11033984D01*
X15128753Y-11033984D02*
X15166848Y-11033984D01*
X15166848Y-11033984D02*
X15185896Y-11024460D01*
X15185896Y-11024460D02*
X15195420Y-11014936D01*
X15195420Y-11014936D02*
X15204944Y-10995889D01*
X15204944Y-10995889D02*
X15204944Y-10957793D01*
X15204944Y-10957793D02*
X15195420Y-10938746D01*
X15195420Y-10938746D02*
X15185896Y-10929222D01*
X15185896Y-10929222D02*
X15166848Y-10919698D01*
X15281134Y-10833984D02*
X15281134Y-10872079D01*
X15357325Y-10833984D02*
X15357325Y-10872079D01*
X15652563Y-11110174D02*
X15643039Y-11100650D01*
X15643039Y-11100650D02*
X15623991Y-11072079D01*
X15623991Y-11072079D02*
X15614468Y-11053031D01*
X15614468Y-11053031D02*
X15604944Y-11024460D01*
X15604944Y-11024460D02*
X15595420Y-10976841D01*
X15595420Y-10976841D02*
X15595420Y-10938746D01*
X15595420Y-10938746D02*
X15604944Y-10891127D01*
X15604944Y-10891127D02*
X15614468Y-10862555D01*
X15614468Y-10862555D02*
X15623991Y-10843508D01*
X15623991Y-10843508D02*
X15643039Y-10814936D01*
X15643039Y-10814936D02*
X15652563Y-10805412D01*
X15719229Y-10853031D02*
X15728753Y-10843508D01*
X15728753Y-10843508D02*
X15747801Y-10833984D01*
X15747801Y-10833984D02*
X15795420Y-10833984D01*
X15795420Y-10833984D02*
X15814468Y-10843508D01*
X15814468Y-10843508D02*
X15823991Y-10853031D01*
X15823991Y-10853031D02*
X15833515Y-10872079D01*
X15833515Y-10872079D02*
X15833515Y-10891127D01*
X15833515Y-10891127D02*
X15823991Y-10919698D01*
X15823991Y-10919698D02*
X15709706Y-11033984D01*
X15709706Y-11033984D02*
X15833515Y-11033984D01*
X15928753Y-11033984D02*
X15966848Y-11033984D01*
X15966848Y-11033984D02*
X15985896Y-11024460D01*
X15985896Y-11024460D02*
X15995420Y-11014936D01*
X15995420Y-11014936D02*
X16014468Y-10986365D01*
X16014468Y-10986365D02*
X16023991Y-10948270D01*
X16023991Y-10948270D02*
X16023991Y-10872079D01*
X16023991Y-10872079D02*
X16014468Y-10853031D01*
X16014468Y-10853031D02*
X16004944Y-10843508D01*
X16004944Y-10843508D02*
X15985896Y-10833984D01*
X15985896Y-10833984D02*
X15947801Y-10833984D01*
X15947801Y-10833984D02*
X15928753Y-10843508D01*
X15928753Y-10843508D02*
X15919229Y-10853031D01*
X15919229Y-10853031D02*
X15909706Y-10872079D01*
X15909706Y-10872079D02*
X15909706Y-10919698D01*
X15909706Y-10919698D02*
X15919229Y-10938746D01*
X15919229Y-10938746D02*
X15928753Y-10948270D01*
X15928753Y-10948270D02*
X15947801Y-10957793D01*
X15947801Y-10957793D02*
X15985896Y-10957793D01*
X15985896Y-10957793D02*
X16004944Y-10948270D01*
X16004944Y-10948270D02*
X16014468Y-10938746D01*
X16014468Y-10938746D02*
X16023991Y-10919698D01*
X16262087Y-11033984D02*
X16262087Y-10833984D01*
X16347801Y-11033984D02*
X16347801Y-10929222D01*
X16347801Y-10929222D02*
X16338277Y-10910174D01*
X16338277Y-10910174D02*
X16319230Y-10900650D01*
X16319230Y-10900650D02*
X16290658Y-10900650D01*
X16290658Y-10900650D02*
X16271610Y-10910174D01*
X16271610Y-10910174D02*
X16262087Y-10919698D01*
X16471610Y-11033984D02*
X16452563Y-11024460D01*
X16452563Y-11024460D02*
X16443039Y-11014936D01*
X16443039Y-11014936D02*
X16433515Y-10995889D01*
X16433515Y-10995889D02*
X16433515Y-10938746D01*
X16433515Y-10938746D02*
X16443039Y-10919698D01*
X16443039Y-10919698D02*
X16452563Y-10910174D01*
X16452563Y-10910174D02*
X16471610Y-10900650D01*
X16471610Y-10900650D02*
X16500182Y-10900650D01*
X16500182Y-10900650D02*
X16519230Y-10910174D01*
X16519230Y-10910174D02*
X16528753Y-10919698D01*
X16528753Y-10919698D02*
X16538277Y-10938746D01*
X16538277Y-10938746D02*
X16538277Y-10995889D01*
X16538277Y-10995889D02*
X16528753Y-11014936D01*
X16528753Y-11014936D02*
X16519230Y-11024460D01*
X16519230Y-11024460D02*
X16500182Y-11033984D01*
X16500182Y-11033984D02*
X16471610Y-11033984D01*
X16652563Y-11033984D02*
X16633515Y-11024460D01*
X16633515Y-11024460D02*
X16623991Y-11005412D01*
X16623991Y-11005412D02*
X16623991Y-10833984D01*
X16804944Y-11024460D02*
X16785896Y-11033984D01*
X16785896Y-11033984D02*
X16747801Y-11033984D01*
X16747801Y-11033984D02*
X16728753Y-11024460D01*
X16728753Y-11024460D02*
X16719230Y-11005412D01*
X16719230Y-11005412D02*
X16719230Y-10929222D01*
X16719230Y-10929222D02*
X16728753Y-10910174D01*
X16728753Y-10910174D02*
X16747801Y-10900650D01*
X16747801Y-10900650D02*
X16785896Y-10900650D01*
X16785896Y-10900650D02*
X16804944Y-10910174D01*
X16804944Y-10910174D02*
X16814468Y-10929222D01*
X16814468Y-10929222D02*
X16814468Y-10948270D01*
X16814468Y-10948270D02*
X16719230Y-10967317D01*
X16890658Y-11024460D02*
X16909706Y-11033984D01*
X16909706Y-11033984D02*
X16947801Y-11033984D01*
X16947801Y-11033984D02*
X16966849Y-11024460D01*
X16966849Y-11024460D02*
X16976373Y-11005412D01*
X16976373Y-11005412D02*
X16976373Y-10995889D01*
X16976373Y-10995889D02*
X16966849Y-10976841D01*
X16966849Y-10976841D02*
X16947801Y-10967317D01*
X16947801Y-10967317D02*
X16919230Y-10967317D01*
X16919230Y-10967317D02*
X16900182Y-10957793D01*
X16900182Y-10957793D02*
X16890658Y-10938746D01*
X16890658Y-10938746D02*
X16890658Y-10929222D01*
X16890658Y-10929222D02*
X16900182Y-10910174D01*
X16900182Y-10910174D02*
X16919230Y-10900650D01*
X16919230Y-10900650D02*
X16947801Y-10900650D01*
X16947801Y-10900650D02*
X16966849Y-10910174D01*
X17043039Y-11110174D02*
X17052563Y-11100650D01*
X17052563Y-11100650D02*
X17071611Y-11072079D01*
X17071611Y-11072079D02*
X17081134Y-11053031D01*
X17081134Y-11053031D02*
X17090658Y-11024460D01*
X17090658Y-11024460D02*
X17100182Y-10976841D01*
X17100182Y-10976841D02*
X17100182Y-10938746D01*
X17100182Y-10938746D02*
X17090658Y-10891127D01*
X17090658Y-10891127D02*
X17081134Y-10862555D01*
X17081134Y-10862555D02*
X17071611Y-10843508D01*
X17071611Y-10843508D02*
X17052563Y-10814936D01*
X17052563Y-10814936D02*
X17043039Y-10805412D01*
D12*
X12077500Y-11206500D02*
G75*
G02*
X11977500Y-11206500I-50000J0D01*
G01*
X11977500Y-11206500D02*
G75*
G02*
X12077500Y-11206500I50000J0D01*
G01*
D11*
X12443039Y-11297984D02*
X12328753Y-11297984D01*
X12385896Y-11297984D02*
X12385896Y-11097984D01*
X12385896Y-11097984D02*
X12366848Y-11126555D01*
X12366848Y-11126555D02*
X12347801Y-11145603D01*
X12347801Y-11145603D02*
X12328753Y-11155127D01*
X12528753Y-11278936D02*
X12538277Y-11288460D01*
X12538277Y-11288460D02*
X12528753Y-11297984D01*
X12528753Y-11297984D02*
X12519229Y-11288460D01*
X12519229Y-11288460D02*
X12528753Y-11278936D01*
X12528753Y-11278936D02*
X12528753Y-11297984D01*
X12662086Y-11097984D02*
X12681134Y-11097984D01*
X12681134Y-11097984D02*
X12700182Y-11107508D01*
X12700182Y-11107508D02*
X12709705Y-11117031D01*
X12709705Y-11117031D02*
X12719229Y-11136079D01*
X12719229Y-11136079D02*
X12728753Y-11174174D01*
X12728753Y-11174174D02*
X12728753Y-11221793D01*
X12728753Y-11221793D02*
X12719229Y-11259888D01*
X12719229Y-11259888D02*
X12709705Y-11278936D01*
X12709705Y-11278936D02*
X12700182Y-11288460D01*
X12700182Y-11288460D02*
X12681134Y-11297984D01*
X12681134Y-11297984D02*
X12662086Y-11297984D01*
X12662086Y-11297984D02*
X12643039Y-11288460D01*
X12643039Y-11288460D02*
X12633515Y-11278936D01*
X12633515Y-11278936D02*
X12623991Y-11259888D01*
X12623991Y-11259888D02*
X12614467Y-11221793D01*
X12614467Y-11221793D02*
X12614467Y-11174174D01*
X12614467Y-11174174D02*
X12623991Y-11136079D01*
X12623991Y-11136079D02*
X12633515Y-11117031D01*
X12633515Y-11117031D02*
X12643039Y-11107508D01*
X12643039Y-11107508D02*
X12662086Y-11097984D01*
X12852562Y-11097984D02*
X12871610Y-11097984D01*
X12871610Y-11097984D02*
X12890658Y-11107508D01*
X12890658Y-11107508D02*
X12900182Y-11117031D01*
X12900182Y-11117031D02*
X12909705Y-11136079D01*
X12909705Y-11136079D02*
X12919229Y-11174174D01*
X12919229Y-11174174D02*
X12919229Y-11221793D01*
X12919229Y-11221793D02*
X12909705Y-11259888D01*
X12909705Y-11259888D02*
X12900182Y-11278936D01*
X12900182Y-11278936D02*
X12890658Y-11288460D01*
X12890658Y-11288460D02*
X12871610Y-11297984D01*
X12871610Y-11297984D02*
X12852562Y-11297984D01*
X12852562Y-11297984D02*
X12833515Y-11288460D01*
X12833515Y-11288460D02*
X12823991Y-11278936D01*
X12823991Y-11278936D02*
X12814467Y-11259888D01*
X12814467Y-11259888D02*
X12804943Y-11221793D01*
X12804943Y-11221793D02*
X12804943Y-11174174D01*
X12804943Y-11174174D02*
X12814467Y-11136079D01*
X12814467Y-11136079D02*
X12823991Y-11117031D01*
X12823991Y-11117031D02*
X12833515Y-11107508D01*
X12833515Y-11107508D02*
X12852562Y-11097984D01*
X13043039Y-11097984D02*
X13062086Y-11097984D01*
X13062086Y-11097984D02*
X13081134Y-11107508D01*
X13081134Y-11107508D02*
X13090658Y-11117031D01*
X13090658Y-11117031D02*
X13100182Y-11136079D01*
X13100182Y-11136079D02*
X13109705Y-11174174D01*
X13109705Y-11174174D02*
X13109705Y-11221793D01*
X13109705Y-11221793D02*
X13100182Y-11259888D01*
X13100182Y-11259888D02*
X13090658Y-11278936D01*
X13090658Y-11278936D02*
X13081134Y-11288460D01*
X13081134Y-11288460D02*
X13062086Y-11297984D01*
X13062086Y-11297984D02*
X13043039Y-11297984D01*
X13043039Y-11297984D02*
X13023991Y-11288460D01*
X13023991Y-11288460D02*
X13014467Y-11278936D01*
X13014467Y-11278936D02*
X13004943Y-11259888D01*
X13004943Y-11259888D02*
X12995420Y-11221793D01*
X12995420Y-11221793D02*
X12995420Y-11174174D01*
X12995420Y-11174174D02*
X13004943Y-11136079D01*
X13004943Y-11136079D02*
X13014467Y-11117031D01*
X13014467Y-11117031D02*
X13023991Y-11107508D01*
X13023991Y-11107508D02*
X13043039Y-11097984D01*
X13195420Y-11297984D02*
X13195420Y-11164650D01*
X13195420Y-11183698D02*
X13204943Y-11174174D01*
X13204943Y-11174174D02*
X13223991Y-11164650D01*
X13223991Y-11164650D02*
X13252563Y-11164650D01*
X13252563Y-11164650D02*
X13271610Y-11174174D01*
X13271610Y-11174174D02*
X13281134Y-11193222D01*
X13281134Y-11193222D02*
X13281134Y-11297984D01*
X13281134Y-11193222D02*
X13290658Y-11174174D01*
X13290658Y-11174174D02*
X13309705Y-11164650D01*
X13309705Y-11164650D02*
X13338277Y-11164650D01*
X13338277Y-11164650D02*
X13357324Y-11174174D01*
X13357324Y-11174174D02*
X13366848Y-11193222D01*
X13366848Y-11193222D02*
X13366848Y-11297984D01*
X13462086Y-11297984D02*
X13462086Y-11164650D01*
X13462086Y-11183698D02*
X13471610Y-11174174D01*
X13471610Y-11174174D02*
X13490658Y-11164650D01*
X13490658Y-11164650D02*
X13519229Y-11164650D01*
X13519229Y-11164650D02*
X13538277Y-11174174D01*
X13538277Y-11174174D02*
X13547801Y-11193222D01*
X13547801Y-11193222D02*
X13547801Y-11297984D01*
X13547801Y-11193222D02*
X13557324Y-11174174D01*
X13557324Y-11174174D02*
X13576372Y-11164650D01*
X13576372Y-11164650D02*
X13604943Y-11164650D01*
X13604943Y-11164650D02*
X13623991Y-11174174D01*
X13623991Y-11174174D02*
X13633515Y-11193222D01*
X13633515Y-11193222D02*
X13633515Y-11297984D01*
X14023991Y-11088460D02*
X13852563Y-11345603D01*
X14281134Y-11097984D02*
X14300182Y-11097984D01*
X14300182Y-11097984D02*
X14319229Y-11107508D01*
X14319229Y-11107508D02*
X14328753Y-11117031D01*
X14328753Y-11117031D02*
X14338277Y-11136079D01*
X14338277Y-11136079D02*
X14347801Y-11174174D01*
X14347801Y-11174174D02*
X14347801Y-11221793D01*
X14347801Y-11221793D02*
X14338277Y-11259888D01*
X14338277Y-11259888D02*
X14328753Y-11278936D01*
X14328753Y-11278936D02*
X14319229Y-11288460D01*
X14319229Y-11288460D02*
X14300182Y-11297984D01*
X14300182Y-11297984D02*
X14281134Y-11297984D01*
X14281134Y-11297984D02*
X14262086Y-11288460D01*
X14262086Y-11288460D02*
X14252563Y-11278936D01*
X14252563Y-11278936D02*
X14243039Y-11259888D01*
X14243039Y-11259888D02*
X14233515Y-11221793D01*
X14233515Y-11221793D02*
X14233515Y-11174174D01*
X14233515Y-11174174D02*
X14243039Y-11136079D01*
X14243039Y-11136079D02*
X14252563Y-11117031D01*
X14252563Y-11117031D02*
X14262086Y-11107508D01*
X14262086Y-11107508D02*
X14281134Y-11097984D01*
X14433515Y-11278936D02*
X14443039Y-11288460D01*
X14443039Y-11288460D02*
X14433515Y-11297984D01*
X14433515Y-11297984D02*
X14423991Y-11288460D01*
X14423991Y-11288460D02*
X14433515Y-11278936D01*
X14433515Y-11278936D02*
X14433515Y-11297984D01*
X14566848Y-11097984D02*
X14585896Y-11097984D01*
X14585896Y-11097984D02*
X14604944Y-11107508D01*
X14604944Y-11107508D02*
X14614467Y-11117031D01*
X14614467Y-11117031D02*
X14623991Y-11136079D01*
X14623991Y-11136079D02*
X14633515Y-11174174D01*
X14633515Y-11174174D02*
X14633515Y-11221793D01*
X14633515Y-11221793D02*
X14623991Y-11259888D01*
X14623991Y-11259888D02*
X14614467Y-11278936D01*
X14614467Y-11278936D02*
X14604944Y-11288460D01*
X14604944Y-11288460D02*
X14585896Y-11297984D01*
X14585896Y-11297984D02*
X14566848Y-11297984D01*
X14566848Y-11297984D02*
X14547801Y-11288460D01*
X14547801Y-11288460D02*
X14538277Y-11278936D01*
X14538277Y-11278936D02*
X14528753Y-11259888D01*
X14528753Y-11259888D02*
X14519229Y-11221793D01*
X14519229Y-11221793D02*
X14519229Y-11174174D01*
X14519229Y-11174174D02*
X14528753Y-11136079D01*
X14528753Y-11136079D02*
X14538277Y-11117031D01*
X14538277Y-11117031D02*
X14547801Y-11107508D01*
X14547801Y-11107508D02*
X14566848Y-11097984D01*
X14700182Y-11097984D02*
X14823991Y-11097984D01*
X14823991Y-11097984D02*
X14757325Y-11174174D01*
X14757325Y-11174174D02*
X14785896Y-11174174D01*
X14785896Y-11174174D02*
X14804944Y-11183698D01*
X14804944Y-11183698D02*
X14814467Y-11193222D01*
X14814467Y-11193222D02*
X14823991Y-11212269D01*
X14823991Y-11212269D02*
X14823991Y-11259888D01*
X14823991Y-11259888D02*
X14814467Y-11278936D01*
X14814467Y-11278936D02*
X14804944Y-11288460D01*
X14804944Y-11288460D02*
X14785896Y-11297984D01*
X14785896Y-11297984D02*
X14728753Y-11297984D01*
X14728753Y-11297984D02*
X14709706Y-11288460D01*
X14709706Y-11288460D02*
X14700182Y-11278936D01*
X14919229Y-11297984D02*
X14957325Y-11297984D01*
X14957325Y-11297984D02*
X14976372Y-11288460D01*
X14976372Y-11288460D02*
X14985896Y-11278936D01*
X14985896Y-11278936D02*
X15004944Y-11250365D01*
X15004944Y-11250365D02*
X15014467Y-11212269D01*
X15014467Y-11212269D02*
X15014467Y-11136079D01*
X15014467Y-11136079D02*
X15004944Y-11117031D01*
X15004944Y-11117031D02*
X14995420Y-11107508D01*
X14995420Y-11107508D02*
X14976372Y-11097984D01*
X14976372Y-11097984D02*
X14938277Y-11097984D01*
X14938277Y-11097984D02*
X14919229Y-11107508D01*
X14919229Y-11107508D02*
X14909706Y-11117031D01*
X14909706Y-11117031D02*
X14900182Y-11136079D01*
X14900182Y-11136079D02*
X14900182Y-11183698D01*
X14900182Y-11183698D02*
X14909706Y-11202746D01*
X14909706Y-11202746D02*
X14919229Y-11212269D01*
X14919229Y-11212269D02*
X14938277Y-11221793D01*
X14938277Y-11221793D02*
X14976372Y-11221793D01*
X14976372Y-11221793D02*
X14995420Y-11212269D01*
X14995420Y-11212269D02*
X15004944Y-11202746D01*
X15004944Y-11202746D02*
X15014467Y-11183698D01*
X15185896Y-11164650D02*
X15185896Y-11297984D01*
X15138277Y-11088460D02*
X15090658Y-11231317D01*
X15090658Y-11231317D02*
X15214467Y-11231317D01*
X15281134Y-11097984D02*
X15281134Y-11136079D01*
X15357325Y-11097984D02*
X15357325Y-11136079D01*
X15652563Y-11374174D02*
X15643039Y-11364650D01*
X15643039Y-11364650D02*
X15623991Y-11336079D01*
X15623991Y-11336079D02*
X15614468Y-11317031D01*
X15614468Y-11317031D02*
X15604944Y-11288460D01*
X15604944Y-11288460D02*
X15595420Y-11240841D01*
X15595420Y-11240841D02*
X15595420Y-11202746D01*
X15595420Y-11202746D02*
X15604944Y-11155127D01*
X15604944Y-11155127D02*
X15614468Y-11126555D01*
X15614468Y-11126555D02*
X15623991Y-11107508D01*
X15623991Y-11107508D02*
X15643039Y-11078936D01*
X15643039Y-11078936D02*
X15652563Y-11069412D01*
X15757325Y-11183698D02*
X15738277Y-11174174D01*
X15738277Y-11174174D02*
X15728753Y-11164650D01*
X15728753Y-11164650D02*
X15719229Y-11145603D01*
X15719229Y-11145603D02*
X15719229Y-11136079D01*
X15719229Y-11136079D02*
X15728753Y-11117031D01*
X15728753Y-11117031D02*
X15738277Y-11107508D01*
X15738277Y-11107508D02*
X15757325Y-11097984D01*
X15757325Y-11097984D02*
X15795420Y-11097984D01*
X15795420Y-11097984D02*
X15814468Y-11107508D01*
X15814468Y-11107508D02*
X15823991Y-11117031D01*
X15823991Y-11117031D02*
X15833515Y-11136079D01*
X15833515Y-11136079D02*
X15833515Y-11145603D01*
X15833515Y-11145603D02*
X15823991Y-11164650D01*
X15823991Y-11164650D02*
X15814468Y-11174174D01*
X15814468Y-11174174D02*
X15795420Y-11183698D01*
X15795420Y-11183698D02*
X15757325Y-11183698D01*
X15757325Y-11183698D02*
X15738277Y-11193222D01*
X15738277Y-11193222D02*
X15728753Y-11202746D01*
X15728753Y-11202746D02*
X15719229Y-11221793D01*
X15719229Y-11221793D02*
X15719229Y-11259888D01*
X15719229Y-11259888D02*
X15728753Y-11278936D01*
X15728753Y-11278936D02*
X15738277Y-11288460D01*
X15738277Y-11288460D02*
X15757325Y-11297984D01*
X15757325Y-11297984D02*
X15795420Y-11297984D01*
X15795420Y-11297984D02*
X15814468Y-11288460D01*
X15814468Y-11288460D02*
X15823991Y-11278936D01*
X15823991Y-11278936D02*
X15833515Y-11259888D01*
X15833515Y-11259888D02*
X15833515Y-11221793D01*
X15833515Y-11221793D02*
X15823991Y-11202746D01*
X15823991Y-11202746D02*
X15814468Y-11193222D01*
X15814468Y-11193222D02*
X15795420Y-11183698D01*
X16071610Y-11297984D02*
X16071610Y-11097984D01*
X16157325Y-11297984D02*
X16157325Y-11193222D01*
X16157325Y-11193222D02*
X16147801Y-11174174D01*
X16147801Y-11174174D02*
X16128753Y-11164650D01*
X16128753Y-11164650D02*
X16100182Y-11164650D01*
X16100182Y-11164650D02*
X16081134Y-11174174D01*
X16081134Y-11174174D02*
X16071610Y-11183698D01*
X16281134Y-11297984D02*
X16262087Y-11288460D01*
X16262087Y-11288460D02*
X16252563Y-11278936D01*
X16252563Y-11278936D02*
X16243039Y-11259888D01*
X16243039Y-11259888D02*
X16243039Y-11202746D01*
X16243039Y-11202746D02*
X16252563Y-11183698D01*
X16252563Y-11183698D02*
X16262087Y-11174174D01*
X16262087Y-11174174D02*
X16281134Y-11164650D01*
X16281134Y-11164650D02*
X16309706Y-11164650D01*
X16309706Y-11164650D02*
X16328753Y-11174174D01*
X16328753Y-11174174D02*
X16338277Y-11183698D01*
X16338277Y-11183698D02*
X16347801Y-11202746D01*
X16347801Y-11202746D02*
X16347801Y-11259888D01*
X16347801Y-11259888D02*
X16338277Y-11278936D01*
X16338277Y-11278936D02*
X16328753Y-11288460D01*
X16328753Y-11288460D02*
X16309706Y-11297984D01*
X16309706Y-11297984D02*
X16281134Y-11297984D01*
X16462087Y-11297984D02*
X16443039Y-11288460D01*
X16443039Y-11288460D02*
X16433515Y-11269412D01*
X16433515Y-11269412D02*
X16433515Y-11097984D01*
X16614468Y-11288460D02*
X16595420Y-11297984D01*
X16595420Y-11297984D02*
X16557325Y-11297984D01*
X16557325Y-11297984D02*
X16538277Y-11288460D01*
X16538277Y-11288460D02*
X16528753Y-11269412D01*
X16528753Y-11269412D02*
X16528753Y-11193222D01*
X16528753Y-11193222D02*
X16538277Y-11174174D01*
X16538277Y-11174174D02*
X16557325Y-11164650D01*
X16557325Y-11164650D02*
X16595420Y-11164650D01*
X16595420Y-11164650D02*
X16614468Y-11174174D01*
X16614468Y-11174174D02*
X16623991Y-11193222D01*
X16623991Y-11193222D02*
X16623991Y-11212269D01*
X16623991Y-11212269D02*
X16528753Y-11231317D01*
X16700182Y-11288460D02*
X16719230Y-11297984D01*
X16719230Y-11297984D02*
X16757325Y-11297984D01*
X16757325Y-11297984D02*
X16776372Y-11288460D01*
X16776372Y-11288460D02*
X16785896Y-11269412D01*
X16785896Y-11269412D02*
X16785896Y-11259888D01*
X16785896Y-11259888D02*
X16776372Y-11240841D01*
X16776372Y-11240841D02*
X16757325Y-11231317D01*
X16757325Y-11231317D02*
X16728753Y-11231317D01*
X16728753Y-11231317D02*
X16709706Y-11221793D01*
X16709706Y-11221793D02*
X16700182Y-11202746D01*
X16700182Y-11202746D02*
X16700182Y-11193222D01*
X16700182Y-11193222D02*
X16709706Y-11174174D01*
X16709706Y-11174174D02*
X16728753Y-11164650D01*
X16728753Y-11164650D02*
X16757325Y-11164650D01*
X16757325Y-11164650D02*
X16776372Y-11174174D01*
X16852563Y-11374174D02*
X16862087Y-11364650D01*
X16862087Y-11364650D02*
X16881134Y-11336079D01*
X16881134Y-11336079D02*
X16890658Y-11317031D01*
X16890658Y-11317031D02*
X16900182Y-11288460D01*
X16900182Y-11288460D02*
X16909706Y-11240841D01*
X16909706Y-11240841D02*
X16909706Y-11202746D01*
X16909706Y-11202746D02*
X16900182Y-11155127D01*
X16900182Y-11155127D02*
X16890658Y-11126555D01*
X16890658Y-11126555D02*
X16881134Y-11107508D01*
X16881134Y-11107508D02*
X16862087Y-11078936D01*
X16862087Y-11078936D02*
X16852563Y-11069412D01*
M02*
