M48
; DRILL file {KiCad 8.0.4} date 2024-09-01T23:06:19-0500
; FORMAT={-:-/ absolute / metric / decimal}
; #@! TF.CreationDate,2024-09-01T23:06:19-05:00
; #@! TF.GenerationSoftware,Kicad,Pcbnew,8.0.4
; #@! TF.FileFunction,Plated,1,2,PTH
FMAT,2
METRIC
; #@! TA.AperFunction,Plated,PTH,ViaDrill
T1C0.300
; #@! TA.AperFunction,Plated,PTH,ComponentDrill
T2C1.000
%
G90
G05
T1
X121.6Y-64.2
X122.0Y-84.0
X122.8Y-69.6
X123.4Y-68.8
X123.8Y-86.5
X124.6Y-55.3
X125.0Y-56.8
X125.9Y-79.2
X126.1Y-86.5
X128.2Y-79.1
X128.3Y-86.5
X129.1Y-82.0
X129.7Y-80.1
X130.0Y-87.4
X130.4Y-60.4
X130.4Y-61.5
X130.4Y-62.6
X130.7Y-85.7
X132.0Y-79.6
X133.4Y-81.8
X133.799Y-86.35
X133.9Y-87.9
X136.2Y-69.8
X136.2Y-79.0
X137.9Y-62.2
X138.7Y-56.8
X138.8Y-55.4
X138.8Y-62.9
X139.2Y-67.3
T2
X123.0Y-72.18
X123.0Y-74.72
X123.0Y-77.26
X123.0Y-79.8
X140.6Y-72.18
X140.6Y-74.72
X140.6Y-77.26
X140.6Y-79.8
M30
