%TF.GenerationSoftware,KiCad,Pcbnew,8.0.4*%
%TF.CreationDate,2024-09-01T23:06:17-05:00*%
%TF.ProjectId,Quick Hack,51756963-6b20-4486-9163-6b2e6b696361,rev?*%
%TF.SameCoordinates,Original*%
%TF.FileFunction,Copper,L2,Bot*%
%TF.FilePolarity,Positive*%
%FSLAX46Y46*%
G04 Gerber Fmt 4.6, Leading zero omitted, Abs format (unit mm)*
G04 Created by KiCad (PCBNEW 8.0.4) date 2024-09-01 23:06:17*
%MOMM*%
%LPD*%
G01*
G04 APERTURE LIST*
G04 Aperture macros list*
%AMRoundRect*
0 Rectangle with rounded corners*
0 $1 Rounding radius*
0 $2 $3 $4 $5 $6 $7 $8 $9 X,Y pos of 4 corners*
0 Add a 4 corners polygon primitive as box body*
4,1,4,$2,$3,$4,$5,$6,$7,$8,$9,$2,$3,0*
0 Add four circle primitives for the rounded corners*
1,1,$1+$1,$2,$3*
1,1,$1+$1,$4,$5*
1,1,$1+$1,$6,$7*
1,1,$1+$1,$8,$9*
0 Add four rect primitives between the rounded corners*
20,1,$1+$1,$2,$3,$4,$5,0*
20,1,$1+$1,$4,$5,$6,$7,0*
20,1,$1+$1,$6,$7,$8,$9,0*
20,1,$1+$1,$8,$9,$2,$3,0*%
G04 Aperture macros list end*
%TA.AperFunction,ComponentPad*%
%ADD10R,1.700000X1.700000*%
%TD*%
%TA.AperFunction,ComponentPad*%
%ADD11O,1.700000X1.700000*%
%TD*%
%TA.AperFunction,SMDPad,CuDef*%
%ADD12RoundRect,0.250000X-0.250000X-0.475000X0.250000X-0.475000X0.250000X0.475000X-0.250000X0.475000X0*%
%TD*%
%TA.AperFunction,SMDPad,CuDef*%
%ADD13R,0.625000X0.250000*%
%TD*%
%TA.AperFunction,SMDPad,CuDef*%
%ADD14R,0.700000X0.450000*%
%TD*%
%TA.AperFunction,SMDPad,CuDef*%
%ADD15R,0.575000X0.450000*%
%TD*%
%TA.AperFunction,SMDPad,CuDef*%
%ADD16RoundRect,0.250000X0.262500X0.450000X-0.262500X0.450000X-0.262500X-0.450000X0.262500X-0.450000X0*%
%TD*%
%TA.AperFunction,SMDPad,CuDef*%
%ADD17RoundRect,0.250000X0.250000X0.475000X-0.250000X0.475000X-0.250000X-0.475000X0.250000X-0.475000X0*%
%TD*%
%TA.AperFunction,SMDPad,CuDef*%
%ADD18RoundRect,0.375000X0.375000X-0.625000X0.375000X0.625000X-0.375000X0.625000X-0.375000X-0.625000X0*%
%TD*%
%TA.AperFunction,SMDPad,CuDef*%
%ADD19RoundRect,0.500000X1.400000X-0.500000X1.400000X0.500000X-1.400000X0.500000X-1.400000X-0.500000X0*%
%TD*%
%TA.AperFunction,ViaPad*%
%ADD20C,0.600000*%
%TD*%
%TA.AperFunction,Conductor*%
%ADD21C,0.200000*%
%TD*%
G04 APERTURE END LIST*
D10*
%TO.P,J2,1,Pin_1*%
%TO.N,GND*%
X140600000Y-79800000D03*
D11*
%TO.P,J2,2,Pin_2*%
%TO.N,+3V3*%
X140600000Y-77260000D03*
%TO.P,J2,3,Pin_3*%
%TO.N,IO03*%
X140600000Y-74720000D03*
%TO.P,J2,4,Pin_4*%
%TO.N,IO02*%
X140600000Y-72180000D03*
%TD*%
D10*
%TO.P,J3,1,Pin_1*%
%TO.N,IO04*%
X123000000Y-79800000D03*
D11*
%TO.P,J3,2,Pin_2*%
%TO.N,IO05*%
X123000000Y-77260000D03*
%TO.P,J3,3,Pin_3*%
%TO.N,IO06*%
X123000000Y-74720000D03*
%TO.P,J3,4,Pin_4*%
%TO.N,IO07*%
X123000000Y-72180000D03*
%TD*%
D12*
%TO.P,C2,1*%
%TO.N,+5V*%
X128850000Y-75700000D03*
%TO.P,C2,2*%
%TO.N,GND*%
X130750000Y-75700000D03*
%TD*%
D13*
%TO.P,U4,1*%
%TO.N,USB_D+*%
X132637500Y-85100000D03*
%TO.P,U4,2*%
%TO.N,USB_D-*%
X132637500Y-85600000D03*
D14*
%TO.P,U4,3,VSS*%
%TO.N,GND*%
X132600000Y-86100000D03*
D13*
%TO.P,U4,4*%
%TO.N,+5V*%
X132637500Y-86600000D03*
%TO.P,U4,5*%
%TO.N,unconnected-(U4-Pad5)*%
X132637500Y-87100000D03*
%TO.P,U4,6,NC*%
%TO.N,unconnected-(U4-NC-Pad6)*%
X131862500Y-87100000D03*
%TO.P,U4,7,NC*%
%TO.N,unconnected-(U4-NC-Pad7)*%
X131862500Y-86600000D03*
D15*
%TO.P,U4,8,VSS*%
%TO.N,GND*%
X131837500Y-86100000D03*
D13*
%TO.P,U4,9,NC*%
%TO.N,unconnected-(U4-NC-Pad9)*%
X131862500Y-85600000D03*
%TO.P,U4,10,NC*%
%TO.N,unconnected-(U4-NC-Pad10)*%
X131862500Y-85100000D03*
%TD*%
D12*
%TO.P,C4,1*%
%TO.N,+3V3*%
X132850000Y-77700000D03*
%TO.P,C4,2*%
%TO.N,GND*%
X134750000Y-77700000D03*
%TD*%
%TO.P,C1,1*%
%TO.N,+5V*%
X128850000Y-77700000D03*
%TO.P,C1,2*%
%TO.N,GND*%
X130750000Y-77700000D03*
%TD*%
%TO.P,C6,1*%
%TO.N,+3V3*%
X132800000Y-58200000D03*
%TO.P,C6,2*%
%TO.N,GND*%
X134700000Y-58200000D03*
%TD*%
D16*
%TO.P,R3,1*%
%TO.N,RESET*%
X128562500Y-60500000D03*
%TO.P,R3,2*%
%TO.N,+3V3*%
X126737500Y-60500000D03*
%TD*%
D17*
%TO.P,C9,1*%
%TO.N,RESET*%
X128600000Y-62800000D03*
%TO.P,C9,2*%
%TO.N,GND*%
X126700000Y-62800000D03*
%TD*%
D12*
%TO.P,C3,1*%
%TO.N,RESET*%
X128800000Y-58200000D03*
%TO.P,C3,2*%
%TO.N,GND*%
X130700000Y-58200000D03*
%TD*%
%TO.P,C5,1*%
%TO.N,+3V3*%
X132850000Y-75700000D03*
%TO.P,C5,2*%
%TO.N,GND*%
X134750000Y-75700000D03*
%TD*%
D18*
%TO.P,U1,1,GND*%
%TO.N,GND*%
X134100000Y-72850000D03*
%TO.P,U1,2,VO*%
%TO.N,+3V3*%
X131800000Y-72850000D03*
D19*
X131800000Y-66550000D03*
D18*
%TO.P,U1,3,VI*%
%TO.N,+5V*%
X129500000Y-72850000D03*
%TD*%
D12*
%TO.P,C8,1*%
%TO.N,+3V3*%
X132800000Y-56200000D03*
%TO.P,C8,2*%
%TO.N,GND*%
X134700000Y-56200000D03*
%TD*%
D20*
%TO.N,+5V*%
X129700000Y-80100000D03*
X133798680Y-86350000D03*
%TO.N,GND*%
X130700000Y-85700000D03*
X136200000Y-69800000D03*
X129100000Y-82000000D03*
X122000000Y-84000000D03*
X123400000Y-68800000D03*
X130400000Y-61500000D03*
X136200000Y-79000000D03*
X128200000Y-79100000D03*
X130400000Y-62600000D03*
X130400000Y-60400000D03*
%TO.N,RESET*%
X125000000Y-56800000D03*
%TO.N,+3V3*%
X124600000Y-55300000D03*
X132000000Y-79600000D03*
%TO.N,BOOT*%
X122800000Y-69600000D03*
X133400000Y-81800000D03*
%TO.N,IO08*%
X125900000Y-79200000D03*
X121600000Y-64200000D03*
%TO.N,USB_D-*%
X138800000Y-62900000D03*
X133900000Y-87900000D03*
%TO.N,USB_D+*%
X137900000Y-62200000D03*
X130000000Y-87400000D03*
%TO.N,Net-(U2-GPIO10)*%
X128300000Y-86500000D03*
X139200000Y-67300000D03*
%TO.N,Net-(U2-GPIO0{slash}ADC1_CH0{slash}XTAL_32K_P)*%
X123800000Y-86500000D03*
X138800000Y-55400000D03*
%TO.N,Net-(U2-GPIO1{slash}ADC1_CH1{slash}XTAL_32K_N)*%
X138700000Y-56800000D03*
X126100000Y-86500000D03*
%TD*%
D21*
%TO.N,+5V*%
X128850000Y-77700000D02*
X128850000Y-75700000D01*
X128850000Y-79250000D02*
X128850000Y-77700000D01*
X132637500Y-86600000D02*
X133548680Y-86600000D01*
X128850000Y-75700000D02*
X128850000Y-73500000D01*
X129700000Y-80100000D02*
X128850000Y-79250000D01*
X133548680Y-86600000D02*
X133798680Y-86350000D01*
X128850000Y-73500000D02*
X129500000Y-72850000D01*
%TO.N,GND*%
X133800000Y-82900000D02*
X136200000Y-80500000D01*
X134100000Y-72850000D02*
X134100000Y-71900000D01*
X134900000Y-77700000D02*
X136200000Y-79000000D01*
X136200000Y-80500000D02*
X136200000Y-79000000D01*
X134750000Y-75550000D02*
X134100000Y-74900000D01*
X132600000Y-86100000D02*
X131837500Y-86100000D01*
X134750000Y-75700000D02*
X134750000Y-75550000D01*
X134100000Y-74900000D02*
X134100000Y-72850000D01*
X134750000Y-77700000D02*
X134750000Y-75700000D01*
X134100000Y-71900000D02*
X136200000Y-69800000D01*
X123100000Y-82900000D02*
X133800000Y-82900000D01*
X134750000Y-77700000D02*
X134900000Y-77700000D01*
X131837500Y-86100000D02*
X131100000Y-86100000D01*
X122000000Y-84000000D02*
X123100000Y-82900000D01*
X131100000Y-86100000D02*
X130700000Y-85700000D01*
%TO.N,RESET*%
X128562500Y-62762500D02*
X128600000Y-62800000D01*
X127400000Y-56800000D02*
X128800000Y-58200000D01*
X128562500Y-60500000D02*
X125000000Y-56937500D01*
X125000000Y-56937500D02*
X125000000Y-56800000D01*
X125000000Y-56800000D02*
X127400000Y-56800000D01*
X128562500Y-60500000D02*
X128562500Y-62762500D01*
%TO.N,+3V3*%
X132850000Y-77700000D02*
X132850000Y-75700000D01*
X132850000Y-78750000D02*
X132850000Y-77700000D01*
X132800000Y-65550000D02*
X132800000Y-58200000D01*
X131800000Y-72850000D02*
X131800000Y-74650000D01*
X124600000Y-55300000D02*
X125000000Y-54900000D01*
X124200000Y-55700000D02*
X124600000Y-55300000D01*
X131800000Y-66550000D02*
X132800000Y-65550000D01*
X132000000Y-79600000D02*
X132850000Y-78750000D01*
X132800000Y-56200000D02*
X132800000Y-58200000D01*
X124200000Y-58800000D02*
X124200000Y-55700000D01*
X130662500Y-56200000D02*
X132800000Y-56200000D01*
X126737500Y-60500000D02*
X125900000Y-60500000D01*
X131800000Y-72850000D02*
X131800000Y-66550000D01*
X129362500Y-54900000D02*
X130662500Y-56200000D01*
X125900000Y-60500000D02*
X124200000Y-58800000D01*
X125000000Y-54900000D02*
X129362500Y-54900000D01*
X131800000Y-74650000D02*
X132850000Y-75700000D01*
%TO.N,BOOT*%
X126900000Y-72100000D02*
X124400000Y-69600000D01*
X133400000Y-81800000D02*
X130000000Y-81800000D01*
X130000000Y-81800000D02*
X126900000Y-78700000D01*
X126900000Y-78700000D02*
X126900000Y-72100000D01*
X124400000Y-69600000D02*
X122800000Y-69600000D01*
%TO.N,IO08*%
X121600000Y-64200000D02*
X121600000Y-69700000D01*
X121600000Y-69700000D02*
X122700000Y-70800000D01*
X125600000Y-78500000D02*
X125900000Y-78800000D01*
X122700000Y-70800000D02*
X124000000Y-70800000D01*
X124000000Y-70800000D02*
X125600000Y-72400000D01*
X125900000Y-78800000D02*
X125900000Y-79200000D01*
X125600000Y-72400000D02*
X125600000Y-78500000D01*
%TO.N,USB_D-*%
X138300000Y-82700000D02*
X138300000Y-65000000D01*
X134650000Y-87150000D02*
X134650000Y-86350000D01*
X138300000Y-63400000D02*
X138800000Y-62900000D01*
X133900000Y-87900000D02*
X134650000Y-87150000D01*
X138300000Y-65000000D02*
X138300000Y-63400000D01*
X133900000Y-85600000D02*
X134650000Y-86350000D01*
X132637500Y-85600000D02*
X133900000Y-85600000D01*
X134650000Y-86350000D02*
X138300000Y-82700000D01*
%TO.N,USB_D+*%
X132637500Y-84287500D02*
X132600000Y-84250000D01*
X130000000Y-87400000D02*
X130000000Y-85300000D01*
X132637500Y-85100000D02*
X132637500Y-84287500D01*
X132600000Y-84250000D02*
X134244975Y-84250000D01*
X134244975Y-84250000D02*
X137900000Y-80594975D01*
X137900000Y-80594975D02*
X137900000Y-62200000D01*
X130000000Y-85300000D02*
X131050000Y-84250000D01*
X131050000Y-84250000D02*
X132600000Y-84250000D01*
%TO.N,Net-(U2-GPIO10)*%
X138700000Y-67800000D02*
X138700000Y-84000000D01*
X128300000Y-87300000D02*
X128300000Y-86500000D01*
X130000000Y-89000000D02*
X128300000Y-87300000D01*
X138700000Y-84000000D02*
X133700000Y-89000000D01*
X133700000Y-89000000D02*
X130000000Y-89000000D01*
X139200000Y-67300000D02*
X138700000Y-67800000D01*
%TO.N,Net-(U2-GPIO0{slash}ADC1_CH0{slash}XTAL_32K_P)*%
X136800000Y-57400000D02*
X138800000Y-55400000D01*
X136800000Y-80550000D02*
X136800000Y-57400000D01*
X126900000Y-83400000D02*
X133950000Y-83400000D01*
X133950000Y-83400000D02*
X136800000Y-80550000D01*
X123800000Y-86500000D02*
X126900000Y-83400000D01*
%TO.N,Net-(U2-GPIO1{slash}ADC1_CH1{slash}XTAL_32K_N)*%
X128700000Y-83900000D02*
X134100000Y-83900000D01*
X137300000Y-80700000D02*
X137300000Y-58200000D01*
X137300000Y-58200000D02*
X138700000Y-56800000D01*
X126100000Y-86500000D02*
X128700000Y-83900000D01*
X134100000Y-83900000D02*
X137300000Y-80700000D01*
%TD*%
%TA.AperFunction,Conductor*%
%TO.N,GND*%
G36*
X139803736Y-54700726D02*
G01*
X140093796Y-54718271D01*
X140108657Y-54720075D01*
X140372643Y-54768453D01*
X140390798Y-54771780D01*
X140405335Y-54775363D01*
X140679172Y-54860695D01*
X140693163Y-54866000D01*
X140954743Y-54983727D01*
X140967989Y-54990680D01*
X141213465Y-55139075D01*
X141225776Y-55147573D01*
X141451573Y-55324473D01*
X141462781Y-55334403D01*
X141665596Y-55537218D01*
X141675526Y-55548426D01*
X141699674Y-55579249D01*
X141833074Y-55749522D01*
X141852422Y-55774217D01*
X141860926Y-55786537D01*
X142009316Y-56032004D01*
X142016275Y-56045263D01*
X142133997Y-56306831D01*
X142139306Y-56320832D01*
X142224635Y-56594663D01*
X142228219Y-56609201D01*
X142279923Y-56891340D01*
X142281728Y-56906205D01*
X142299274Y-57196263D01*
X142299500Y-57203750D01*
X142299500Y-85196249D01*
X142299274Y-85203736D01*
X142281728Y-85493794D01*
X142279923Y-85508659D01*
X142228219Y-85790798D01*
X142224635Y-85805336D01*
X142139306Y-86079167D01*
X142133997Y-86093168D01*
X142016275Y-86354736D01*
X142009316Y-86367995D01*
X141860928Y-86613459D01*
X141852422Y-86625782D01*
X141675526Y-86851573D01*
X141665596Y-86862781D01*
X141462781Y-87065596D01*
X141451573Y-87075526D01*
X141225782Y-87252422D01*
X141213459Y-87260928D01*
X140967995Y-87409316D01*
X140954736Y-87416275D01*
X140693168Y-87533997D01*
X140679167Y-87539306D01*
X140405336Y-87624635D01*
X140390798Y-87628219D01*
X140108659Y-87679923D01*
X140093794Y-87681728D01*
X139803736Y-87699274D01*
X139796249Y-87699500D01*
X139648746Y-87699500D01*
X139498598Y-87717731D01*
X139348449Y-87735963D01*
X139229602Y-87765255D01*
X139054727Y-87808358D01*
X138771882Y-87915628D01*
X138504035Y-88056206D01*
X138504026Y-88056212D01*
X138255078Y-88228047D01*
X138255072Y-88228052D01*
X138028648Y-88428646D01*
X138028646Y-88428648D01*
X137828052Y-88655072D01*
X137828047Y-88655078D01*
X137656212Y-88904026D01*
X137656206Y-88904035D01*
X137515628Y-89171882D01*
X137408358Y-89454727D01*
X137378200Y-89577085D01*
X137335963Y-89748449D01*
X137321377Y-89868568D01*
X137299500Y-90048745D01*
X137299500Y-101993038D01*
X137298720Y-102006923D01*
X137288540Y-102097264D01*
X137282362Y-102124333D01*
X137254648Y-102203537D01*
X137242600Y-102228555D01*
X137197957Y-102299604D01*
X137180644Y-102321313D01*
X137121313Y-102380644D01*
X137099604Y-102397957D01*
X137028555Y-102442600D01*
X137003537Y-102454648D01*
X136924333Y-102482362D01*
X136897264Y-102488540D01*
X136817075Y-102497576D01*
X136806921Y-102498720D01*
X136793038Y-102499500D01*
X126806962Y-102499500D01*
X126793078Y-102498720D01*
X126780553Y-102497308D01*
X126702735Y-102488540D01*
X126675666Y-102482362D01*
X126596462Y-102454648D01*
X126571444Y-102442600D01*
X126500395Y-102397957D01*
X126478686Y-102380644D01*
X126419355Y-102321313D01*
X126402042Y-102299604D01*
X126357399Y-102228555D01*
X126345351Y-102203537D01*
X126317637Y-102124333D01*
X126311459Y-102097263D01*
X126301280Y-102006922D01*
X126300500Y-101993038D01*
X126300500Y-90048745D01*
X126292235Y-89980680D01*
X126264037Y-89748449D01*
X126191643Y-89454734D01*
X126191642Y-89454731D01*
X126191641Y-89454727D01*
X126084371Y-89171882D01*
X125943793Y-88904035D01*
X125943787Y-88904026D01*
X125771952Y-88655078D01*
X125771947Y-88655072D01*
X125571353Y-88428648D01*
X125571351Y-88428646D01*
X125344927Y-88228052D01*
X125344921Y-88228047D01*
X125095973Y-88056212D01*
X125095964Y-88056206D01*
X124828117Y-87915628D01*
X124545272Y-87808358D01*
X124429820Y-87779902D01*
X124251551Y-87735963D01*
X124071371Y-87714085D01*
X123951254Y-87699500D01*
X123951252Y-87699500D01*
X123803751Y-87699500D01*
X123796264Y-87699274D01*
X123506205Y-87681728D01*
X123491340Y-87679923D01*
X123209201Y-87628219D01*
X123194663Y-87624635D01*
X122920832Y-87539306D01*
X122906831Y-87533997D01*
X122645263Y-87416275D01*
X122632004Y-87409316D01*
X122616587Y-87399996D01*
X122386537Y-87260926D01*
X122374217Y-87252422D01*
X122340222Y-87225789D01*
X122170850Y-87093094D01*
X122148426Y-87075526D01*
X122137218Y-87065596D01*
X121934403Y-86862781D01*
X121924473Y-86851573D01*
X121862815Y-86772872D01*
X121747573Y-86625776D01*
X121739075Y-86613465D01*
X121590680Y-86367989D01*
X121583727Y-86354743D01*
X121466000Y-86093163D01*
X121460693Y-86079167D01*
X121435318Y-85997737D01*
X121375363Y-85805335D01*
X121371780Y-85790798D01*
X121342455Y-85630777D01*
X121320075Y-85508657D01*
X121318271Y-85493794D01*
X121314238Y-85427127D01*
X121300726Y-85203736D01*
X121300500Y-85196249D01*
X121300500Y-70549097D01*
X121320185Y-70482058D01*
X121372989Y-70436303D01*
X121442147Y-70426359D01*
X121505703Y-70455384D01*
X121512181Y-70461416D01*
X122072753Y-71021988D01*
X122106238Y-71083311D01*
X122101254Y-71153003D01*
X122072753Y-71197350D01*
X121961505Y-71308597D01*
X121825965Y-71502169D01*
X121825964Y-71502171D01*
X121726098Y-71716335D01*
X121726094Y-71716344D01*
X121664938Y-71944586D01*
X121664936Y-71944596D01*
X121644341Y-72179999D01*
X121644341Y-72180000D01*
X121664936Y-72415403D01*
X121664938Y-72415413D01*
X121726094Y-72643655D01*
X121726096Y-72643659D01*
X121726097Y-72643663D01*
X121752413Y-72700097D01*
X121825965Y-72857830D01*
X121825967Y-72857834D01*
X121889934Y-72949187D01*
X121961501Y-73051396D01*
X121961506Y-73051402D01*
X122128597Y-73218493D01*
X122128603Y-73218498D01*
X122314158Y-73348425D01*
X122357783Y-73403002D01*
X122364977Y-73472500D01*
X122333454Y-73534855D01*
X122314158Y-73551575D01*
X122128597Y-73681505D01*
X121961505Y-73848597D01*
X121825965Y-74042169D01*
X121825964Y-74042171D01*
X121726098Y-74256335D01*
X121726094Y-74256344D01*
X121664938Y-74484586D01*
X121664936Y-74484596D01*
X121644341Y-74719999D01*
X121644341Y-74720000D01*
X121664936Y-74955403D01*
X121664938Y-74955413D01*
X121726094Y-75183655D01*
X121726096Y-75183659D01*
X121726097Y-75183663D01*
X121732414Y-75197209D01*
X121825965Y-75397830D01*
X121825967Y-75397834D01*
X121870341Y-75461206D01*
X121961501Y-75591396D01*
X121961506Y-75591402D01*
X122128597Y-75758493D01*
X122128603Y-75758498D01*
X122314158Y-75888425D01*
X122357783Y-75943002D01*
X122364977Y-76012500D01*
X122333454Y-76074855D01*
X122314158Y-76091575D01*
X122128597Y-76221505D01*
X121961505Y-76388597D01*
X121825965Y-76582169D01*
X121825964Y-76582171D01*
X121726098Y-76796335D01*
X121726094Y-76796344D01*
X121664938Y-77024586D01*
X121664936Y-77024596D01*
X121644341Y-77259999D01*
X121644341Y-77260000D01*
X121664936Y-77495403D01*
X121664938Y-77495413D01*
X121726094Y-77723655D01*
X121726096Y-77723659D01*
X121726097Y-77723663D01*
X121825965Y-77937830D01*
X121825967Y-77937834D01*
X121889934Y-78029187D01*
X121961501Y-78131396D01*
X121961506Y-78131402D01*
X122083430Y-78253326D01*
X122116915Y-78314649D01*
X122111931Y-78384341D01*
X122070059Y-78440274D01*
X122039083Y-78457189D01*
X121907669Y-78506203D01*
X121907664Y-78506206D01*
X121792455Y-78592452D01*
X121792452Y-78592455D01*
X121706206Y-78707664D01*
X121706202Y-78707671D01*
X121655908Y-78842517D01*
X121649501Y-78902116D01*
X121649501Y-78902123D01*
X121649500Y-78902135D01*
X121649500Y-80697870D01*
X121649501Y-80697876D01*
X121655908Y-80757483D01*
X121706202Y-80892328D01*
X121706206Y-80892335D01*
X121792452Y-81007544D01*
X121792455Y-81007547D01*
X121907664Y-81093793D01*
X121907671Y-81093797D01*
X122042517Y-81144091D01*
X122042516Y-81144091D01*
X122049444Y-81144835D01*
X122102127Y-81150500D01*
X123897872Y-81150499D01*
X123957483Y-81144091D01*
X124092331Y-81093796D01*
X124207546Y-81007546D01*
X124293796Y-80892331D01*
X124344091Y-80757483D01*
X124350500Y-80697873D01*
X124350499Y-78902128D01*
X124344091Y-78842517D01*
X124316042Y-78767315D01*
X124293797Y-78707671D01*
X124293793Y-78707664D01*
X124207547Y-78592455D01*
X124207544Y-78592452D01*
X124092335Y-78506206D01*
X124092328Y-78506202D01*
X123960917Y-78457189D01*
X123904983Y-78415318D01*
X123880566Y-78349853D01*
X123895418Y-78281580D01*
X123916563Y-78253332D01*
X124038495Y-78131401D01*
X124174035Y-77937830D01*
X124273903Y-77723663D01*
X124335063Y-77495408D01*
X124355659Y-77260000D01*
X124335063Y-77024592D01*
X124273903Y-76796337D01*
X124174035Y-76582171D01*
X124138999Y-76532133D01*
X124038494Y-76388597D01*
X123871402Y-76221506D01*
X123871396Y-76221501D01*
X123685842Y-76091575D01*
X123642217Y-76036998D01*
X123635023Y-75967500D01*
X123666546Y-75905145D01*
X123685842Y-75888425D01*
X123708026Y-75872891D01*
X123871401Y-75758495D01*
X124038495Y-75591401D01*
X124174035Y-75397830D01*
X124273903Y-75183663D01*
X124335063Y-74955408D01*
X124355659Y-74720000D01*
X124335063Y-74484592D01*
X124273903Y-74256337D01*
X124174035Y-74042171D01*
X124168243Y-74033898D01*
X124038494Y-73848597D01*
X123871402Y-73681506D01*
X123871396Y-73681501D01*
X123685842Y-73551575D01*
X123642217Y-73496998D01*
X123635023Y-73427500D01*
X123666546Y-73365145D01*
X123685842Y-73348425D01*
X123708026Y-73332891D01*
X123871401Y-73218495D01*
X124038495Y-73051401D01*
X124174035Y-72857830D01*
X124273903Y-72643663D01*
X124335063Y-72415408D01*
X124346570Y-72283884D01*
X124372021Y-72218818D01*
X124428612Y-72177839D01*
X124498374Y-72173961D01*
X124557778Y-72207013D01*
X124963181Y-72612416D01*
X124996666Y-72673739D01*
X124999500Y-72700097D01*
X124999500Y-78413330D01*
X124999499Y-78413348D01*
X124999499Y-78420943D01*
X124999499Y-78579057D01*
X125025604Y-78676482D01*
X125035058Y-78711765D01*
X125038505Y-78729999D01*
X125082185Y-79118716D01*
X125096500Y-79246114D01*
X125099935Y-79271055D01*
X125099938Y-79271068D01*
X125100255Y-79272077D01*
X125105180Y-79295371D01*
X125114630Y-79379250D01*
X125114631Y-79379254D01*
X125174211Y-79549523D01*
X125204507Y-79597738D01*
X125270184Y-79702262D01*
X125397738Y-79829816D01*
X125455048Y-79865826D01*
X125542450Y-79920745D01*
X125550478Y-79925789D01*
X125618306Y-79949523D01*
X125720745Y-79985368D01*
X125720750Y-79985369D01*
X125899996Y-80005565D01*
X125900000Y-80005565D01*
X125900004Y-80005565D01*
X126079249Y-79985369D01*
X126079252Y-79985368D01*
X126079255Y-79985368D01*
X126249522Y-79925789D01*
X126402262Y-79829816D01*
X126529816Y-79702262D01*
X126625789Y-79549522D01*
X126631762Y-79532449D01*
X126672482Y-79475674D01*
X126737434Y-79449924D01*
X126805996Y-79463379D01*
X126836486Y-79485721D01*
X129515139Y-82164374D01*
X129515149Y-82164385D01*
X129519479Y-82168715D01*
X129519480Y-82168716D01*
X129631284Y-82280520D01*
X129718095Y-82330639D01*
X129718097Y-82330641D01*
X129756151Y-82352611D01*
X129768215Y-82359577D01*
X129920943Y-82400501D01*
X129920946Y-82400501D01*
X130086653Y-82400501D01*
X130086669Y-82400500D01*
X132407709Y-82400500D01*
X132435001Y-82403541D01*
X133104235Y-82554541D01*
X133165298Y-82588498D01*
X133198309Y-82650078D01*
X133192787Y-82719729D01*
X133150485Y-82775337D01*
X133084835Y-82799249D01*
X133076943Y-82799500D01*
X126986669Y-82799500D01*
X126986653Y-82799499D01*
X126979057Y-82799499D01*
X126820943Y-82799499D01*
X126713587Y-82828265D01*
X126668210Y-82840424D01*
X126668209Y-82840425D01*
X126618096Y-82869359D01*
X126618095Y-82869360D01*
X126574689Y-82894420D01*
X126531285Y-82919479D01*
X126531282Y-82919481D01*
X126419478Y-83031286D01*
X124077047Y-85373716D01*
X124055599Y-85390864D01*
X123423479Y-85790247D01*
X123414926Y-85795772D01*
X123413415Y-85796921D01*
X123404370Y-85803181D01*
X123297741Y-85870181D01*
X123297739Y-85870182D01*
X123170184Y-85997737D01*
X123074211Y-86150476D01*
X123014631Y-86320745D01*
X123014630Y-86320750D01*
X122994435Y-86499996D01*
X122994435Y-86500003D01*
X123014630Y-86679249D01*
X123014631Y-86679254D01*
X123074211Y-86849523D01*
X123122977Y-86927133D01*
X123170184Y-87002262D01*
X123297738Y-87129816D01*
X123388080Y-87186582D01*
X123442450Y-87220745D01*
X123450478Y-87225789D01*
X123585045Y-87272876D01*
X123620745Y-87285368D01*
X123620750Y-87285369D01*
X123799996Y-87305565D01*
X123800000Y-87305565D01*
X123800004Y-87305565D01*
X123979249Y-87285369D01*
X123979252Y-87285368D01*
X123979255Y-87285368D01*
X124149522Y-87225789D01*
X124302262Y-87129816D01*
X124429816Y-87002262D01*
X124501449Y-86888256D01*
X124507347Y-86880241D01*
X124507127Y-86880079D01*
X124509755Y-86876510D01*
X124509761Y-86876504D01*
X124909128Y-86244403D01*
X124926269Y-86222964D01*
X125230781Y-85918452D01*
X125292102Y-85884969D01*
X125361794Y-85889953D01*
X125417727Y-85931825D01*
X125442144Y-85997289D01*
X125427292Y-86065562D01*
X125423454Y-86072107D01*
X125374211Y-86150476D01*
X125314631Y-86320745D01*
X125314630Y-86320750D01*
X125294435Y-86499996D01*
X125294435Y-86500003D01*
X125314630Y-86679249D01*
X125314631Y-86679254D01*
X125374211Y-86849523D01*
X125422977Y-86927133D01*
X125470184Y-87002262D01*
X125597738Y-87129816D01*
X125688080Y-87186582D01*
X125742450Y-87220745D01*
X125750478Y-87225789D01*
X125885045Y-87272876D01*
X125920745Y-87285368D01*
X125920750Y-87285369D01*
X126099996Y-87305565D01*
X126100000Y-87305565D01*
X126100004Y-87305565D01*
X126279249Y-87285369D01*
X126279252Y-87285368D01*
X126279255Y-87285368D01*
X126449522Y-87225789D01*
X126602262Y-87129816D01*
X126729816Y-87002262D01*
X126801449Y-86888256D01*
X126807347Y-86880241D01*
X126807127Y-86880079D01*
X126809755Y-86876510D01*
X126809761Y-86876504D01*
X127209128Y-86244403D01*
X127226269Y-86222964D01*
X127338322Y-86110911D01*
X127399643Y-86077428D01*
X127469335Y-86082412D01*
X127525268Y-86124284D01*
X127549685Y-86189748D01*
X127543043Y-86239548D01*
X127514632Y-86320742D01*
X127514630Y-86320750D01*
X127494435Y-86499996D01*
X127494435Y-86500003D01*
X127514631Y-86679253D01*
X127514631Y-86679254D01*
X127538464Y-86747368D01*
X127543401Y-86766026D01*
X127547019Y-86785826D01*
X127693066Y-87221394D01*
X127699499Y-87260814D01*
X127699499Y-87379054D01*
X127699498Y-87379054D01*
X127740423Y-87531786D01*
X127741700Y-87533997D01*
X127744765Y-87539306D01*
X127745563Y-87540687D01*
X127745565Y-87540691D01*
X127819477Y-87668712D01*
X127819481Y-87668717D01*
X127938349Y-87787585D01*
X127938355Y-87787590D01*
X129515139Y-89364374D01*
X129515149Y-89364385D01*
X129519479Y-89368715D01*
X129519480Y-89368716D01*
X129631284Y-89480520D01*
X129718095Y-89530639D01*
X129718097Y-89530641D01*
X129756151Y-89552611D01*
X129768215Y-89559577D01*
X129920943Y-89600500D01*
X133613331Y-89600500D01*
X133613347Y-89600501D01*
X133620943Y-89600501D01*
X133779054Y-89600501D01*
X133779057Y-89600501D01*
X133931785Y-89559577D01*
X133981904Y-89530639D01*
X134068716Y-89480520D01*
X134180520Y-89368716D01*
X134180520Y-89368714D01*
X134190728Y-89358507D01*
X134190730Y-89358504D01*
X139068713Y-84480521D01*
X139068716Y-84480520D01*
X139180520Y-84368716D01*
X139230639Y-84281904D01*
X139259577Y-84231785D01*
X139300501Y-84079057D01*
X139300501Y-83920943D01*
X139300501Y-83913348D01*
X139300500Y-83913330D01*
X139300500Y-81185807D01*
X139320185Y-81118768D01*
X139372989Y-81073013D01*
X139442147Y-81063069D01*
X139498814Y-81086542D01*
X139507913Y-81093354D01*
X139642620Y-81143596D01*
X139642627Y-81143598D01*
X139702155Y-81149999D01*
X139702172Y-81150000D01*
X140350000Y-81150000D01*
X140350000Y-80233012D01*
X140407007Y-80265925D01*
X140534174Y-80300000D01*
X140665826Y-80300000D01*
X140792993Y-80265925D01*
X140850000Y-80233012D01*
X140850000Y-81150000D01*
X141497828Y-81150000D01*
X141497844Y-81149999D01*
X141557372Y-81143598D01*
X141557379Y-81143596D01*
X141692086Y-81093354D01*
X141692093Y-81093350D01*
X141807187Y-81007190D01*
X141807190Y-81007187D01*
X141893350Y-80892093D01*
X141893354Y-80892086D01*
X141943596Y-80757379D01*
X141943598Y-80757372D01*
X141949999Y-80697844D01*
X141950000Y-80697827D01*
X141950000Y-80050000D01*
X141033012Y-80050000D01*
X141065925Y-79992993D01*
X141100000Y-79865826D01*
X141100000Y-79734174D01*
X141065925Y-79607007D01*
X141033012Y-79550000D01*
X141950000Y-79550000D01*
X141950000Y-78902172D01*
X141949999Y-78902155D01*
X141943598Y-78842627D01*
X141943596Y-78842620D01*
X141893354Y-78707913D01*
X141893350Y-78707906D01*
X141807190Y-78592812D01*
X141807187Y-78592809D01*
X141692093Y-78506649D01*
X141692088Y-78506646D01*
X141560528Y-78457577D01*
X141504595Y-78415705D01*
X141480178Y-78350241D01*
X141495030Y-78281968D01*
X141516175Y-78253720D01*
X141638495Y-78131401D01*
X141774035Y-77937830D01*
X141873903Y-77723663D01*
X141935063Y-77495408D01*
X141955659Y-77260000D01*
X141935063Y-77024592D01*
X141873903Y-76796337D01*
X141774035Y-76582171D01*
X141738999Y-76532133D01*
X141638494Y-76388597D01*
X141471402Y-76221506D01*
X141471396Y-76221501D01*
X141285842Y-76091575D01*
X141242217Y-76036998D01*
X141235023Y-75967500D01*
X141266546Y-75905145D01*
X141285842Y-75888425D01*
X141308026Y-75872891D01*
X141471401Y-75758495D01*
X141638495Y-75591401D01*
X141774035Y-75397830D01*
X141873903Y-75183663D01*
X141935063Y-74955408D01*
X141955659Y-74720000D01*
X141935063Y-74484592D01*
X141873903Y-74256337D01*
X141774035Y-74042171D01*
X141768243Y-74033898D01*
X141638494Y-73848597D01*
X141471402Y-73681506D01*
X141471396Y-73681501D01*
X141285842Y-73551575D01*
X141242217Y-73496998D01*
X141235023Y-73427500D01*
X141266546Y-73365145D01*
X141285842Y-73348425D01*
X141308026Y-73332891D01*
X141471401Y-73218495D01*
X141638495Y-73051401D01*
X141774035Y-72857830D01*
X141873903Y-72643663D01*
X141935063Y-72415408D01*
X141955659Y-72180000D01*
X141955576Y-72179057D01*
X141935063Y-71944596D01*
X141935063Y-71944592D01*
X141883112Y-71750707D01*
X141873905Y-71716344D01*
X141873904Y-71716343D01*
X141873903Y-71716337D01*
X141774035Y-71502171D01*
X141760885Y-71483390D01*
X141638494Y-71308597D01*
X141471402Y-71141506D01*
X141471395Y-71141501D01*
X141277834Y-71005967D01*
X141277830Y-71005965D01*
X141148214Y-70945524D01*
X141063663Y-70906097D01*
X141063659Y-70906096D01*
X141063655Y-70906094D01*
X140835413Y-70844938D01*
X140835403Y-70844936D01*
X140600001Y-70824341D01*
X140599999Y-70824341D01*
X140364596Y-70844936D01*
X140364586Y-70844938D01*
X140136344Y-70906094D01*
X140136337Y-70906096D01*
X140136337Y-70906097D01*
X140122816Y-70912401D01*
X139922171Y-71005964D01*
X139922169Y-71005965D01*
X139728597Y-71141505D01*
X139561504Y-71308598D01*
X139526074Y-71359198D01*
X139471497Y-71402823D01*
X139401999Y-71410015D01*
X139339644Y-71378493D01*
X139304231Y-71318262D01*
X139300500Y-71288074D01*
X139300500Y-68302857D01*
X139320185Y-68235818D01*
X139347907Y-68205340D01*
X139679447Y-67944951D01*
X139690056Y-67937484D01*
X139702262Y-67929816D01*
X139711603Y-67920473D01*
X139719886Y-67912908D01*
X139736610Y-67898969D01*
X139737637Y-67898061D01*
X139795674Y-67837451D01*
X139795675Y-67837448D01*
X139798584Y-67834411D01*
X139804921Y-67827155D01*
X139829816Y-67802262D01*
X139925789Y-67649522D01*
X139985368Y-67479255D01*
X139991701Y-67423049D01*
X140005565Y-67300003D01*
X140005565Y-67299996D01*
X139985369Y-67120750D01*
X139985368Y-67120745D01*
X139925788Y-66950476D01*
X139829815Y-66797737D01*
X139702262Y-66670184D01*
X139549523Y-66574211D01*
X139379254Y-66514631D01*
X139379249Y-66514630D01*
X139200004Y-66494435D01*
X139199996Y-66494435D01*
X139038383Y-66512644D01*
X138969561Y-66500589D01*
X138918182Y-66453240D01*
X138900500Y-66389424D01*
X138900500Y-63902857D01*
X138920185Y-63835818D01*
X138947907Y-63805340D01*
X139279447Y-63544951D01*
X139290056Y-63537484D01*
X139302262Y-63529816D01*
X139311603Y-63520473D01*
X139319886Y-63512908D01*
X139336610Y-63498969D01*
X139337637Y-63498061D01*
X139395674Y-63437451D01*
X139395675Y-63437448D01*
X139398584Y-63434411D01*
X139404921Y-63427155D01*
X139429816Y-63402262D01*
X139525789Y-63249522D01*
X139585368Y-63079255D01*
X139585369Y-63079249D01*
X139605565Y-62900003D01*
X139605565Y-62899996D01*
X139585369Y-62720750D01*
X139585368Y-62720745D01*
X139525788Y-62550476D01*
X139429815Y-62397737D01*
X139302262Y-62270184D01*
X139149523Y-62174211D01*
X138979254Y-62114631D01*
X138979249Y-62114630D01*
X138800004Y-62094435D01*
X138799136Y-62094435D01*
X138798595Y-62094276D01*
X138793081Y-62093655D01*
X138793189Y-62092688D01*
X138732097Y-62074750D01*
X138686342Y-62021946D01*
X138682094Y-62011389D01*
X138680166Y-62005880D01*
X138625789Y-61850478D01*
X138529816Y-61697738D01*
X138402262Y-61570184D01*
X138358541Y-61542712D01*
X138249521Y-61474210D01*
X138079249Y-61414630D01*
X138010616Y-61406897D01*
X137946202Y-61379830D01*
X137906647Y-61322235D01*
X137900500Y-61283677D01*
X137900500Y-58500096D01*
X137920185Y-58433057D01*
X137936815Y-58412419D01*
X138422964Y-57926269D01*
X138444403Y-57909128D01*
X139076504Y-57509761D01*
X139085010Y-57504266D01*
X139085018Y-57504258D01*
X139086482Y-57503146D01*
X139095556Y-57496862D01*
X139202262Y-57429816D01*
X139329816Y-57302262D01*
X139425789Y-57149522D01*
X139485368Y-56979255D01*
X139486342Y-56970613D01*
X139505565Y-56800003D01*
X139505565Y-56799996D01*
X139485369Y-56620750D01*
X139485368Y-56620745D01*
X139478749Y-56601830D01*
X139425789Y-56450478D01*
X139329816Y-56297738D01*
X139264595Y-56232517D01*
X139231110Y-56171194D01*
X139236094Y-56101502D01*
X139277966Y-56045569D01*
X139286307Y-56039841D01*
X139288562Y-56038424D01*
X139302262Y-56029816D01*
X139429816Y-55902262D01*
X139525789Y-55749522D01*
X139585368Y-55579255D01*
X139586107Y-55572700D01*
X139605565Y-55400003D01*
X139605565Y-55399996D01*
X139585369Y-55220750D01*
X139585368Y-55220745D01*
X139554416Y-55132289D01*
X139525789Y-55050478D01*
X139519321Y-55040185D01*
X139462955Y-54950478D01*
X139429816Y-54897738D01*
X139429815Y-54897737D01*
X139426111Y-54891842D01*
X139428409Y-54890397D01*
X139406659Y-54837151D01*
X139419401Y-54768453D01*
X139467261Y-54717550D01*
X139530012Y-54700500D01*
X139734108Y-54700500D01*
X139796249Y-54700500D01*
X139803736Y-54700726D01*
G37*
%TD.AperFunction*%
%TA.AperFunction,Conductor*%
G36*
X130971409Y-85280337D02*
G01*
X131027343Y-85322208D01*
X131051760Y-85387673D01*
X131051366Y-85409770D01*
X131049500Y-85427125D01*
X131049500Y-85772868D01*
X131049501Y-85772881D01*
X131051244Y-85789092D01*
X131051244Y-85815594D01*
X131050000Y-85827162D01*
X131050000Y-85875000D01*
X131065639Y-85890639D01*
X131094140Y-85934987D01*
X131106202Y-85967328D01*
X131106203Y-85967330D01*
X131149891Y-86025689D01*
X131174308Y-86091153D01*
X131159457Y-86159426D01*
X131149891Y-86174311D01*
X131106203Y-86232669D01*
X131106203Y-86232670D01*
X131094140Y-86265013D01*
X131065640Y-86309359D01*
X131050000Y-86324999D01*
X131050000Y-86372823D01*
X131050001Y-86372846D01*
X131051243Y-86384404D01*
X131051243Y-86410898D01*
X131049501Y-86427108D01*
X131049500Y-86427131D01*
X131049500Y-86772869D01*
X131049501Y-86772879D01*
X131056367Y-86836751D01*
X131056367Y-86863257D01*
X131055909Y-86867516D01*
X131055909Y-86867517D01*
X131049500Y-86927127D01*
X131049500Y-86927132D01*
X131049500Y-86927133D01*
X131049500Y-87272869D01*
X131049501Y-87272876D01*
X131055908Y-87332483D01*
X131106202Y-87467328D01*
X131106206Y-87467335D01*
X131192452Y-87582544D01*
X131192455Y-87582547D01*
X131307664Y-87668793D01*
X131307671Y-87668797D01*
X131352618Y-87685561D01*
X131442517Y-87719091D01*
X131502127Y-87725500D01*
X132222872Y-87725499D01*
X132236741Y-87724008D01*
X132263250Y-87724008D01*
X132277127Y-87725500D01*
X132975340Y-87725499D01*
X133042379Y-87745183D01*
X133088134Y-87797987D01*
X133098560Y-87863381D01*
X133094435Y-87899994D01*
X133094435Y-87900003D01*
X133114630Y-88079249D01*
X133114632Y-88079257D01*
X133168970Y-88234546D01*
X133172531Y-88304324D01*
X133137802Y-88364952D01*
X133075809Y-88397179D01*
X133051928Y-88399500D01*
X130300097Y-88399500D01*
X130233058Y-88379815D01*
X130212416Y-88363181D01*
X130211642Y-88362407D01*
X130178157Y-88301084D01*
X130183141Y-88231392D01*
X130225013Y-88175459D01*
X130258367Y-88157685D01*
X130313726Y-88138314D01*
X130349520Y-88125790D01*
X130349522Y-88125789D01*
X130502262Y-88029816D01*
X130629816Y-87902262D01*
X130725789Y-87749522D01*
X130785368Y-87579255D01*
X130789713Y-87540691D01*
X130805565Y-87400003D01*
X130805565Y-87399996D01*
X130785369Y-87220751D01*
X130785368Y-87220749D01*
X130785368Y-87220745D01*
X130773812Y-87187721D01*
X130768257Y-87165358D01*
X130768106Y-87164364D01*
X130768105Y-87164352D01*
X130630081Y-86552623D01*
X130603541Y-86434996D01*
X130600500Y-86407704D01*
X130600500Y-85600096D01*
X130620185Y-85533057D01*
X130636815Y-85512419D01*
X130840398Y-85308836D01*
X130901718Y-85275353D01*
X130971409Y-85280337D01*
G37*
%TD.AperFunction*%
%TA.AperFunction,Conductor*%
G36*
X138137026Y-54720185D02*
G01*
X138182781Y-54772989D01*
X138192725Y-54842147D01*
X138171806Y-54890532D01*
X138173889Y-54891841D01*
X138170184Y-54897738D01*
X138098553Y-55011736D01*
X138092648Y-55019777D01*
X138092861Y-55019934D01*
X138090235Y-55023498D01*
X137690868Y-55655595D01*
X137673720Y-55677043D01*
X136431286Y-56919478D01*
X136319481Y-57031282D01*
X136319477Y-57031287D01*
X136277196Y-57104522D01*
X136240424Y-57168211D01*
X136240423Y-57168212D01*
X136216808Y-57256345D01*
X136199499Y-57320943D01*
X136199499Y-57320945D01*
X136199499Y-57489046D01*
X136199500Y-57489059D01*
X136199500Y-80249902D01*
X136179815Y-80316941D01*
X136163181Y-80337583D01*
X134388593Y-82112171D01*
X134327270Y-82145656D01*
X134257578Y-82140672D01*
X134201645Y-82098800D01*
X134177228Y-82033336D01*
X134183872Y-81983532D01*
X134185366Y-81979260D01*
X134185368Y-81979255D01*
X134185369Y-81979249D01*
X134205565Y-81800003D01*
X134205565Y-81799996D01*
X134185369Y-81620750D01*
X134185368Y-81620745D01*
X134125788Y-81450476D01*
X134029815Y-81297737D01*
X133902262Y-81170184D01*
X133749523Y-81074211D01*
X133579254Y-81014631D01*
X133579249Y-81014630D01*
X133400004Y-80994435D01*
X133399996Y-80994435D01*
X133220747Y-81014631D01*
X133187733Y-81026183D01*
X133165376Y-81031738D01*
X133164357Y-81031892D01*
X132434997Y-81196459D01*
X132407705Y-81199500D01*
X130300097Y-81199500D01*
X130233058Y-81179815D01*
X130212416Y-81163181D01*
X130052307Y-81003072D01*
X130018822Y-80941749D01*
X130023806Y-80872057D01*
X130065678Y-80816124D01*
X130074004Y-80810405D01*
X130202262Y-80729816D01*
X130329816Y-80602262D01*
X130425789Y-80449522D01*
X130485368Y-80279255D01*
X130486870Y-80265925D01*
X130505565Y-80100003D01*
X130505565Y-80099996D01*
X130485369Y-79920750D01*
X130485368Y-79920745D01*
X130466151Y-79865826D01*
X130425789Y-79750478D01*
X130329816Y-79597738D01*
X130202262Y-79470184D01*
X130088266Y-79398555D01*
X130080235Y-79392653D01*
X130080076Y-79392869D01*
X130076512Y-79390244D01*
X130076508Y-79390241D01*
X130076504Y-79390238D01*
X129583650Y-79078847D01*
X129537490Y-79026398D01*
X129527014Y-78957318D01*
X129542722Y-78911629D01*
X129696203Y-78648022D01*
X129746945Y-78599993D01*
X129815600Y-78587020D01*
X129880369Y-78613225D01*
X129902559Y-78638185D01*
X129903202Y-78637677D01*
X129907683Y-78643344D01*
X130031654Y-78767315D01*
X130180875Y-78859356D01*
X130180880Y-78859358D01*
X130347302Y-78914505D01*
X130347309Y-78914506D01*
X130450019Y-78924999D01*
X130499999Y-78924998D01*
X130500000Y-78924998D01*
X130500000Y-74475000D01*
X130499999Y-74474999D01*
X130450029Y-74475000D01*
X130450009Y-74475001D01*
X130348685Y-74485352D01*
X130279992Y-74472582D01*
X130229108Y-74424701D01*
X130212188Y-74356911D01*
X130234604Y-74290735D01*
X130280988Y-74250907D01*
X130349296Y-74217030D01*
X130497722Y-74097722D01*
X130549026Y-74033896D01*
X130606367Y-73993978D01*
X130676189Y-73991398D01*
X130736322Y-74026976D01*
X130750436Y-74045248D01*
X130980765Y-74409017D01*
X131000000Y-74475351D01*
X131000000Y-78924999D01*
X131049972Y-78924999D01*
X131049986Y-78924998D01*
X131152695Y-78914506D01*
X131255364Y-78880484D01*
X131325192Y-78878082D01*
X131385235Y-78913813D01*
X131416428Y-78976333D01*
X131408868Y-79045793D01*
X131382053Y-79085869D01*
X131370183Y-79097739D01*
X131274211Y-79250476D01*
X131214631Y-79420745D01*
X131214630Y-79420750D01*
X131194435Y-79599996D01*
X131194435Y-79600003D01*
X131214630Y-79779249D01*
X131214631Y-79779254D01*
X131274211Y-79949523D01*
X131368760Y-80099996D01*
X131370184Y-80102262D01*
X131497738Y-80229816D01*
X131529705Y-80249902D01*
X131636396Y-80316941D01*
X131650478Y-80325789D01*
X131820745Y-80385368D01*
X131820750Y-80385369D01*
X131999996Y-80405565D01*
X132000000Y-80405565D01*
X132000004Y-80405565D01*
X132179249Y-80385369D01*
X132179252Y-80385368D01*
X132179255Y-80385368D01*
X132349522Y-80325789D01*
X132502262Y-80229816D01*
X132629816Y-80102262D01*
X132701449Y-79988256D01*
X132707347Y-79980241D01*
X132707127Y-79980079D01*
X132709755Y-79976510D01*
X132709761Y-79976504D01*
X133109127Y-79344405D01*
X133126269Y-79322965D01*
X133179721Y-79269513D01*
X133183057Y-79266300D01*
X133198033Y-79252422D01*
X133199124Y-79251073D01*
X133207806Y-79241428D01*
X133330520Y-79118716D01*
X133385925Y-79022749D01*
X133396924Y-79006744D01*
X133664304Y-78676469D01*
X133664373Y-78676358D01*
X133664469Y-78676238D01*
X133666438Y-78673488D01*
X133666582Y-78673591D01*
X133681633Y-78654734D01*
X133692712Y-78643656D01*
X133694752Y-78640347D01*
X133696746Y-78638553D01*
X133697191Y-78637992D01*
X133697286Y-78638067D01*
X133746694Y-78593623D01*
X133815656Y-78582395D01*
X133879740Y-78610234D01*
X133905829Y-78640339D01*
X133907681Y-78643341D01*
X133907683Y-78643344D01*
X134031654Y-78767315D01*
X134180875Y-78859356D01*
X134180880Y-78859358D01*
X134347302Y-78914505D01*
X134347309Y-78914506D01*
X134450019Y-78924999D01*
X135000000Y-78924999D01*
X135049972Y-78924999D01*
X135049986Y-78924998D01*
X135152697Y-78914505D01*
X135319119Y-78859358D01*
X135319124Y-78859356D01*
X135468345Y-78767315D01*
X135592315Y-78643345D01*
X135684356Y-78494124D01*
X135684358Y-78494119D01*
X135739505Y-78327697D01*
X135739506Y-78327690D01*
X135749999Y-78224986D01*
X135750000Y-78224973D01*
X135750000Y-77950000D01*
X135000000Y-77950000D01*
X135000000Y-78924999D01*
X134450019Y-78924999D01*
X134499999Y-78924998D01*
X134500000Y-78924998D01*
X134500000Y-77450000D01*
X135000000Y-77450000D01*
X135749999Y-77450000D01*
X135749999Y-77175028D01*
X135749998Y-77175013D01*
X135739505Y-77072302D01*
X135684358Y-76905880D01*
X135684353Y-76905869D01*
X135597523Y-76765097D01*
X135579082Y-76697705D01*
X135597523Y-76634903D01*
X135684353Y-76494130D01*
X135684358Y-76494119D01*
X135739505Y-76327697D01*
X135739506Y-76327690D01*
X135750000Y-76224982D01*
X135750000Y-75950000D01*
X135000000Y-75950000D01*
X135000000Y-77450000D01*
X134500000Y-77450000D01*
X134500000Y-75574000D01*
X134519685Y-75506961D01*
X134572489Y-75461206D01*
X134624000Y-75450000D01*
X135749999Y-75450000D01*
X135749999Y-75175028D01*
X135749998Y-75175013D01*
X135739505Y-75072302D01*
X135684358Y-74905880D01*
X135684356Y-74905875D01*
X135592315Y-74756654D01*
X135468345Y-74632684D01*
X135319124Y-74540643D01*
X135319119Y-74540641D01*
X135152697Y-74485494D01*
X135152690Y-74485493D01*
X135049986Y-74475000D01*
X134957130Y-74475000D01*
X134890091Y-74455315D01*
X134844336Y-74402511D01*
X134834392Y-74333353D01*
X134863417Y-74269797D01*
X134902036Y-74239911D01*
X134949027Y-74216605D01*
X135097366Y-74097367D01*
X135097367Y-74097366D01*
X135216607Y-73949025D01*
X135216609Y-73949022D01*
X135301168Y-73778523D01*
X135347102Y-73593824D01*
X135350000Y-73551096D01*
X135350000Y-73100000D01*
X134350000Y-73100000D01*
X134350000Y-74395059D01*
X134330315Y-74462098D01*
X134277511Y-74507853D01*
X134265005Y-74512765D01*
X134180878Y-74540642D01*
X134180875Y-74540643D01*
X134031654Y-74632684D01*
X133907683Y-74756655D01*
X133907679Y-74756660D01*
X133905826Y-74759665D01*
X133904018Y-74761290D01*
X133903202Y-74762323D01*
X133903025Y-74762183D01*
X133853874Y-74806385D01*
X133784911Y-74817601D01*
X133720831Y-74789752D01*
X133694753Y-74759653D01*
X133694737Y-74759628D01*
X133692712Y-74756344D01*
X133568656Y-74632288D01*
X133446377Y-74556866D01*
X133399654Y-74504919D01*
X133388431Y-74435956D01*
X133416275Y-74371874D01*
X133474343Y-74333018D01*
X133541402Y-74330994D01*
X133606169Y-74347101D01*
X133648903Y-74350000D01*
X133850000Y-74350000D01*
X133850000Y-72600000D01*
X134350000Y-72600000D01*
X135350000Y-72600000D01*
X135350000Y-72148903D01*
X135347102Y-72106175D01*
X135301168Y-71921476D01*
X135216609Y-71750977D01*
X135216607Y-71750974D01*
X135097367Y-71602633D01*
X135097366Y-71602632D01*
X134949025Y-71483392D01*
X134949022Y-71483390D01*
X134778523Y-71398831D01*
X134593824Y-71352897D01*
X134551097Y-71350000D01*
X134350000Y-71350000D01*
X134350000Y-72600000D01*
X133850000Y-72600000D01*
X133850000Y-71350000D01*
X133648903Y-71350000D01*
X133606175Y-71352897D01*
X133421476Y-71398831D01*
X133250977Y-71483390D01*
X133250974Y-71483392D01*
X133102635Y-71602631D01*
X133051255Y-71666550D01*
X132993911Y-71706468D01*
X132924089Y-71709048D01*
X132863957Y-71673469D01*
X132849847Y-71655201D01*
X132524590Y-71141506D01*
X132419735Y-70975902D01*
X132400500Y-70909568D01*
X132400500Y-68797117D01*
X132420185Y-68730078D01*
X132432332Y-68714165D01*
X132992688Y-68091547D01*
X133052166Y-68054886D01*
X133084856Y-68050499D01*
X133258028Y-68050499D01*
X133258036Y-68050499D01*
X133377418Y-68039886D01*
X133573049Y-67983909D01*
X133753407Y-67889698D01*
X133911109Y-67761109D01*
X134039698Y-67603407D01*
X134133909Y-67423049D01*
X134189886Y-67227418D01*
X134200500Y-67108037D01*
X134200499Y-65991964D01*
X134189886Y-65872582D01*
X134133909Y-65676951D01*
X134039698Y-65496593D01*
X133987684Y-65432803D01*
X133911109Y-65338890D01*
X133810604Y-65256940D01*
X133777053Y-65214239D01*
X133775175Y-65210304D01*
X133412588Y-64450429D01*
X133400500Y-64397028D01*
X133400500Y-59603494D01*
X133417340Y-59541102D01*
X133429907Y-59519518D01*
X133646203Y-59148021D01*
X133696945Y-59099993D01*
X133765600Y-59087020D01*
X133830369Y-59113225D01*
X133852559Y-59138185D01*
X133853202Y-59137677D01*
X133857683Y-59143344D01*
X133981654Y-59267315D01*
X134130875Y-59359356D01*
X134130880Y-59359358D01*
X134297302Y-59414505D01*
X134297309Y-59414506D01*
X134400019Y-59424999D01*
X134950000Y-59424999D01*
X134999972Y-59424999D01*
X134999986Y-59424998D01*
X135102697Y-59414505D01*
X135269119Y-59359358D01*
X135269124Y-59359356D01*
X135418345Y-59267315D01*
X135542315Y-59143345D01*
X135634356Y-58994124D01*
X135634358Y-58994119D01*
X135689505Y-58827697D01*
X135689506Y-58827690D01*
X135699999Y-58724986D01*
X135700000Y-58724973D01*
X135700000Y-58450000D01*
X134950000Y-58450000D01*
X134950000Y-59424999D01*
X134400019Y-59424999D01*
X134449999Y-59424998D01*
X134450000Y-59424998D01*
X134450000Y-57950000D01*
X134950000Y-57950000D01*
X135699999Y-57950000D01*
X135699999Y-57675028D01*
X135699998Y-57675013D01*
X135689505Y-57572302D01*
X135634358Y-57405880D01*
X135634353Y-57405869D01*
X135547523Y-57265097D01*
X135529082Y-57197705D01*
X135547523Y-57134903D01*
X135634353Y-56994130D01*
X135634358Y-56994119D01*
X135689505Y-56827697D01*
X135689506Y-56827690D01*
X135699999Y-56724986D01*
X135700000Y-56724973D01*
X135700000Y-56450000D01*
X134950000Y-56450000D01*
X134950000Y-57950000D01*
X134450000Y-57950000D01*
X134450000Y-55950000D01*
X134950000Y-55950000D01*
X135699999Y-55950000D01*
X135699999Y-55675028D01*
X135699998Y-55675013D01*
X135689505Y-55572302D01*
X135634358Y-55405880D01*
X135634356Y-55405875D01*
X135542315Y-55256654D01*
X135418345Y-55132684D01*
X135269124Y-55040643D01*
X135269119Y-55040641D01*
X135102697Y-54985494D01*
X135102690Y-54985493D01*
X134999986Y-54975000D01*
X134950000Y-54975000D01*
X134950000Y-55950000D01*
X134450000Y-55950000D01*
X134450000Y-54975000D01*
X134449999Y-54974999D01*
X134400029Y-54975000D01*
X134400011Y-54975001D01*
X134297302Y-54985494D01*
X134130880Y-55040641D01*
X134130875Y-55040643D01*
X133981654Y-55132684D01*
X133857683Y-55256655D01*
X133857679Y-55256660D01*
X133855826Y-55259665D01*
X133854018Y-55261290D01*
X133853202Y-55262323D01*
X133853025Y-55262183D01*
X133803874Y-55306385D01*
X133734911Y-55317601D01*
X133670831Y-55289752D01*
X133644753Y-55259653D01*
X133644737Y-55259628D01*
X133642712Y-55256344D01*
X133518656Y-55132288D01*
X133386017Y-55050476D01*
X133369336Y-55040187D01*
X133369331Y-55040185D01*
X133365879Y-55039041D01*
X133202797Y-54985001D01*
X133202795Y-54985000D01*
X133100010Y-54974500D01*
X132499998Y-54974500D01*
X132499980Y-54974501D01*
X132397203Y-54985000D01*
X132397200Y-54985001D01*
X132230668Y-55040185D01*
X132230663Y-55040187D01*
X132081342Y-55132289D01*
X131957288Y-55256343D01*
X131957285Y-55256347D01*
X131879260Y-55382845D01*
X131850717Y-55414948D01*
X131651567Y-55572700D01*
X131586794Y-55598896D01*
X131574572Y-55599500D01*
X130962598Y-55599500D01*
X130895559Y-55579815D01*
X130874917Y-55563181D01*
X130553065Y-55241329D01*
X130223915Y-54912180D01*
X130190431Y-54850858D01*
X130195415Y-54781167D01*
X130237286Y-54725233D01*
X130302751Y-54700816D01*
X130311597Y-54700500D01*
X138069987Y-54700500D01*
X138137026Y-54720185D01*
G37*
%TD.AperFunction*%
%TA.AperFunction,Conductor*%
G36*
X123873960Y-54720185D02*
G01*
X123919715Y-54772989D01*
X123929659Y-54842147D01*
X123911915Y-54890472D01*
X123874212Y-54950475D01*
X123874211Y-54950476D01*
X123843221Y-55039041D01*
X123840419Y-55046308D01*
X123830501Y-55069801D01*
X123830498Y-55069812D01*
X123825886Y-55087381D01*
X123822994Y-55096843D01*
X123814631Y-55120745D01*
X123813754Y-55128528D01*
X123810474Y-55146106D01*
X123785485Y-55241329D01*
X123753228Y-55297534D01*
X123719481Y-55331280D01*
X123698629Y-55367398D01*
X123691898Y-55379058D01*
X123640423Y-55468215D01*
X123599499Y-55620943D01*
X123599499Y-55620945D01*
X123599499Y-55789046D01*
X123599500Y-55789059D01*
X123599500Y-58713330D01*
X123599499Y-58713348D01*
X123599499Y-58879054D01*
X123599498Y-58879054D01*
X123640424Y-59031789D01*
X123640425Y-59031790D01*
X123659970Y-59065642D01*
X123659971Y-59065643D01*
X123719477Y-59168712D01*
X123719481Y-59168717D01*
X123838349Y-59287585D01*
X123838355Y-59287590D01*
X125325716Y-60774951D01*
X125335927Y-60786520D01*
X125354398Y-60810281D01*
X125718595Y-61161470D01*
X125749262Y-61191041D01*
X125780894Y-61241295D01*
X125790185Y-61269332D01*
X125790186Y-61269334D01*
X125822815Y-61322235D01*
X125882289Y-61418657D01*
X126003532Y-61539900D01*
X126037017Y-61601223D01*
X126032033Y-61670915D01*
X125990161Y-61726848D01*
X125982065Y-61732359D01*
X125981655Y-61732683D01*
X125857684Y-61856654D01*
X125765643Y-62005875D01*
X125765641Y-62005880D01*
X125710494Y-62172302D01*
X125710493Y-62172309D01*
X125700000Y-62275013D01*
X125700000Y-62550000D01*
X126826000Y-62550000D01*
X126893039Y-62569685D01*
X126938794Y-62622489D01*
X126950000Y-62674000D01*
X126950000Y-64024999D01*
X126999972Y-64024999D01*
X126999986Y-64024998D01*
X127102697Y-64014505D01*
X127269119Y-63959358D01*
X127269124Y-63959356D01*
X127418345Y-63867315D01*
X127542318Y-63743342D01*
X127544165Y-63740348D01*
X127545969Y-63738724D01*
X127546798Y-63737677D01*
X127546976Y-63737818D01*
X127596110Y-63693621D01*
X127665073Y-63682396D01*
X127729156Y-63710236D01*
X127755243Y-63740341D01*
X127757288Y-63743656D01*
X127881344Y-63867712D01*
X128030666Y-63959814D01*
X128197203Y-64014999D01*
X128299991Y-64025500D01*
X128900008Y-64025499D01*
X128900016Y-64025498D01*
X128900019Y-64025498D01*
X128956302Y-64019748D01*
X129002797Y-64014999D01*
X129169334Y-63959814D01*
X129318656Y-63867712D01*
X129442712Y-63743656D01*
X129534814Y-63594334D01*
X129589999Y-63427797D01*
X129600500Y-63325009D01*
X129600499Y-62274992D01*
X129589999Y-62172203D01*
X129568177Y-62106351D01*
X129565152Y-62095621D01*
X129561670Y-62080735D01*
X129557061Y-62070583D01*
X129552263Y-62058325D01*
X129546380Y-62040572D01*
X129534814Y-62005666D01*
X129511551Y-61967952D01*
X129504182Y-61954113D01*
X129502191Y-61949727D01*
X129502188Y-61949722D01*
X129449853Y-61867890D01*
X129448776Y-61866176D01*
X129441066Y-61853676D01*
X129438095Y-61849505D01*
X129338980Y-61694527D01*
X129319443Y-61627444D01*
X129336649Y-61564702D01*
X129390045Y-61474211D01*
X129486961Y-61309964D01*
X129488864Y-61305614D01*
X129496929Y-61290222D01*
X129500967Y-61283677D01*
X129509814Y-61269334D01*
X129523811Y-61227091D01*
X129527918Y-61216387D01*
X129535692Y-61198628D01*
X129537300Y-61193280D01*
X129545443Y-61162774D01*
X129545442Y-61162774D01*
X129545820Y-61161362D01*
X129547912Y-61154359D01*
X129564999Y-61102797D01*
X129575500Y-61000009D01*
X129575499Y-59999992D01*
X129564999Y-59897203D01*
X129509814Y-59730666D01*
X129417712Y-59581344D01*
X129373130Y-59536762D01*
X129339645Y-59475439D01*
X129344629Y-59405747D01*
X129386501Y-59349814D01*
X129395715Y-59343542D01*
X129450094Y-59310001D01*
X129518656Y-59267712D01*
X129642712Y-59143656D01*
X129644752Y-59140347D01*
X129646745Y-59138555D01*
X129647193Y-59137989D01*
X129647289Y-59138065D01*
X129696694Y-59093623D01*
X129765656Y-59082395D01*
X129829740Y-59110234D01*
X129855829Y-59140339D01*
X129857681Y-59143341D01*
X129857683Y-59143344D01*
X129981654Y-59267315D01*
X130130875Y-59359356D01*
X130130880Y-59359358D01*
X130297302Y-59414505D01*
X130297309Y-59414506D01*
X130400019Y-59424999D01*
X130449999Y-59424998D01*
X130450000Y-59424998D01*
X130450000Y-58074000D01*
X130469685Y-58006961D01*
X130522489Y-57961206D01*
X130574000Y-57950000D01*
X130826000Y-57950000D01*
X130893039Y-57969685D01*
X130938794Y-58022489D01*
X130950000Y-58074000D01*
X130950000Y-59424999D01*
X130999972Y-59424999D01*
X130999986Y-59424998D01*
X131102697Y-59414505D01*
X131269119Y-59359358D01*
X131269124Y-59359356D01*
X131418345Y-59267315D01*
X131542315Y-59143345D01*
X131634356Y-58994124D01*
X131637341Y-58987722D01*
X131683510Y-58935280D01*
X131750702Y-58916123D01*
X131817585Y-58936334D01*
X131861661Y-58988016D01*
X131862137Y-58987795D01*
X131865187Y-58994338D01*
X131876681Y-59012973D01*
X131884369Y-59028160D01*
X131884373Y-59028159D01*
X131884500Y-59028419D01*
X131886083Y-59031545D01*
X131886318Y-59032126D01*
X131886320Y-59032131D01*
X132067634Y-59343542D01*
X132133860Y-59457288D01*
X132182660Y-59541102D01*
X132199500Y-59603494D01*
X132199500Y-64207619D01*
X132179815Y-64274658D01*
X132143725Y-64311163D01*
X131054216Y-65029044D01*
X130987406Y-65049492D01*
X130985991Y-65049500D01*
X130341971Y-65049500D01*
X130341965Y-65049500D01*
X130341964Y-65049501D01*
X130330316Y-65050536D01*
X130222584Y-65060113D01*
X130026954Y-65116089D01*
X129936772Y-65163196D01*
X129846593Y-65210302D01*
X129846591Y-65210303D01*
X129846590Y-65210304D01*
X129688890Y-65338890D01*
X129560304Y-65496590D01*
X129466089Y-65676954D01*
X129410114Y-65872583D01*
X129410113Y-65872586D01*
X129399500Y-65991966D01*
X129399500Y-67108028D01*
X129399501Y-67108034D01*
X129410113Y-67227415D01*
X129466089Y-67423045D01*
X129466090Y-67423048D01*
X129466091Y-67423049D01*
X129560302Y-67603407D01*
X129560304Y-67603409D01*
X129688890Y-67761109D01*
X129739355Y-67802257D01*
X129846593Y-67889698D01*
X130026951Y-67983909D01*
X130222582Y-68039886D01*
X130341963Y-68050500D01*
X130515142Y-68050499D01*
X130582182Y-68070183D01*
X130607311Y-68091547D01*
X131167668Y-68714165D01*
X131197884Y-68777164D01*
X131199500Y-68797117D01*
X131199500Y-70909568D01*
X131180265Y-70975902D01*
X131068130Y-71153003D01*
X130750437Y-71654750D01*
X130697943Y-71700859D01*
X130628853Y-71711269D01*
X130565103Y-71682673D01*
X130549025Y-71666102D01*
X130497722Y-71602278D01*
X130497721Y-71602277D01*
X130349295Y-71482969D01*
X130349292Y-71482967D01*
X130178697Y-71398360D01*
X129993892Y-71352400D01*
X129972506Y-71350950D01*
X129951123Y-71349500D01*
X129951120Y-71349500D01*
X129048877Y-71349500D01*
X129048874Y-71349501D01*
X129006113Y-71352399D01*
X129006112Y-71352399D01*
X128821303Y-71398360D01*
X128650707Y-71482967D01*
X128650704Y-71482969D01*
X128502278Y-71602277D01*
X128502277Y-71602278D01*
X128382969Y-71750704D01*
X128382967Y-71750707D01*
X128298360Y-71921302D01*
X128252400Y-72106107D01*
X128249500Y-72148879D01*
X128249500Y-72675201D01*
X128248238Y-72692846D01*
X128244500Y-72718844D01*
X128244500Y-74305090D01*
X128227660Y-74367482D01*
X127936324Y-74867861D01*
X127936316Y-74867877D01*
X127934180Y-74872699D01*
X127926352Y-74887559D01*
X127915188Y-74905659D01*
X127915186Y-74905665D01*
X127904002Y-74939414D01*
X127899682Y-74950605D01*
X127891228Y-74969699D01*
X127891228Y-74969700D01*
X127889684Y-74974579D01*
X127883696Y-74994980D01*
X127883694Y-74994987D01*
X127882667Y-74999962D01*
X127882271Y-74999880D01*
X127878708Y-75015746D01*
X127860001Y-75072200D01*
X127860001Y-75072201D01*
X127849500Y-75174983D01*
X127849500Y-76225001D01*
X127849501Y-76225019D01*
X127860001Y-76327798D01*
X127878226Y-76382799D01*
X127882331Y-76398605D01*
X127882357Y-76398746D01*
X127882360Y-76398755D01*
X127887240Y-76410818D01*
X127889993Y-76418311D01*
X127915186Y-76494334D01*
X127926682Y-76512973D01*
X127934372Y-76528164D01*
X127934376Y-76528163D01*
X127934515Y-76528448D01*
X127936086Y-76531550D01*
X127936320Y-76532128D01*
X127936325Y-76532140D01*
X127965454Y-76582169D01*
X127996157Y-76634903D01*
X127997732Y-76637607D01*
X128014452Y-76705447D01*
X127997732Y-76762390D01*
X127936324Y-76867861D01*
X127936312Y-76867885D01*
X127934186Y-76872686D01*
X127926350Y-76887564D01*
X127915187Y-76905662D01*
X127915186Y-76905665D01*
X127904002Y-76939414D01*
X127899682Y-76950605D01*
X127891228Y-76969699D01*
X127890288Y-76972667D01*
X127889684Y-76974579D01*
X127883696Y-76994980D01*
X127883694Y-76994987D01*
X127882667Y-76999962D01*
X127882271Y-76999880D01*
X127878708Y-77015746D01*
X127860001Y-77072200D01*
X127860001Y-77072201D01*
X127849500Y-77174983D01*
X127849500Y-78225001D01*
X127849501Y-78225019D01*
X127860001Y-78327798D01*
X127878226Y-78382799D01*
X127882331Y-78398605D01*
X127882357Y-78398746D01*
X127882360Y-78398755D01*
X127887240Y-78410818D01*
X127889993Y-78418311D01*
X127915186Y-78494336D01*
X127915187Y-78494338D01*
X127926681Y-78512973D01*
X127934369Y-78528160D01*
X127934373Y-78528159D01*
X127934500Y-78528419D01*
X127936083Y-78531545D01*
X127936318Y-78532126D01*
X127936324Y-78532138D01*
X127950313Y-78556165D01*
X127967033Y-78624004D01*
X127944422Y-78690114D01*
X127889659Y-78733505D01*
X127820130Y-78740400D01*
X127757911Y-78708611D01*
X127755472Y-78706237D01*
X127536819Y-78487584D01*
X127503334Y-78426261D01*
X127500500Y-78399903D01*
X127500500Y-72189059D01*
X127500501Y-72189046D01*
X127500501Y-72020945D01*
X127500501Y-72020943D01*
X127459577Y-71868215D01*
X127419904Y-71799500D01*
X127380520Y-71731284D01*
X127268716Y-71619480D01*
X127264385Y-71615149D01*
X127264374Y-71615139D01*
X124887590Y-69238355D01*
X124887588Y-69238352D01*
X124768717Y-69119481D01*
X124768709Y-69119475D01*
X124659036Y-69056156D01*
X124659035Y-69056155D01*
X124659035Y-69056156D01*
X124631785Y-69040423D01*
X124479057Y-68999499D01*
X124320943Y-68999499D01*
X124313347Y-68999499D01*
X124313331Y-68999500D01*
X123792294Y-68999500D01*
X123765002Y-68996459D01*
X123035680Y-68831901D01*
X123024908Y-68829585D01*
X123010029Y-68825399D01*
X122979259Y-68814633D01*
X122979248Y-68814630D01*
X122800004Y-68794435D01*
X122799996Y-68794435D01*
X122620750Y-68814630D01*
X122620745Y-68814631D01*
X122450476Y-68874211D01*
X122390472Y-68911915D01*
X122323235Y-68930915D01*
X122256400Y-68910547D01*
X122211186Y-68857279D01*
X122200500Y-68806921D01*
X122200500Y-65192294D01*
X122203541Y-65165002D01*
X122368108Y-64435633D01*
X122370413Y-64424912D01*
X122374596Y-64410038D01*
X122385368Y-64379255D01*
X122405565Y-64200000D01*
X122385847Y-64024999D01*
X122385369Y-64020750D01*
X122385368Y-64020745D01*
X122331819Y-63867712D01*
X122325789Y-63850478D01*
X122229816Y-63697738D01*
X122102262Y-63570184D01*
X121988953Y-63498987D01*
X121949523Y-63474211D01*
X121779254Y-63414631D01*
X121779249Y-63414630D01*
X121600004Y-63394435D01*
X121599996Y-63394435D01*
X121438383Y-63412644D01*
X121369561Y-63400589D01*
X121318182Y-63353240D01*
X121310353Y-63324986D01*
X125700001Y-63324986D01*
X125710494Y-63427697D01*
X125765641Y-63594119D01*
X125765643Y-63594124D01*
X125857684Y-63743345D01*
X125981654Y-63867315D01*
X126130875Y-63959356D01*
X126130880Y-63959358D01*
X126297302Y-64014505D01*
X126297309Y-64014506D01*
X126400019Y-64024999D01*
X126449999Y-64024998D01*
X126450000Y-64024998D01*
X126450000Y-63050000D01*
X125700001Y-63050000D01*
X125700001Y-63324986D01*
X121310353Y-63324986D01*
X121300500Y-63289424D01*
X121300500Y-57203750D01*
X121300726Y-57196263D01*
X121310469Y-57035184D01*
X121318271Y-56906201D01*
X121320076Y-56891340D01*
X121324472Y-56867355D01*
X121371780Y-56609197D01*
X121375364Y-56594663D01*
X121420294Y-56450478D01*
X121460696Y-56320822D01*
X121465998Y-56306841D01*
X121583731Y-56045249D01*
X121590676Y-56032016D01*
X121739080Y-55786526D01*
X121747567Y-55774230D01*
X121924480Y-55548417D01*
X121934395Y-55537226D01*
X122137226Y-55334395D01*
X122148417Y-55324480D01*
X122374230Y-55147567D01*
X122386526Y-55139080D01*
X122632016Y-54990676D01*
X122645249Y-54983731D01*
X122906841Y-54865998D01*
X122920822Y-54860696D01*
X123194668Y-54775362D01*
X123209197Y-54771780D01*
X123491344Y-54720075D01*
X123506201Y-54718271D01*
X123796264Y-54700726D01*
X123803751Y-54700500D01*
X123806921Y-54700500D01*
X123873960Y-54720185D01*
G37*
%TD.AperFunction*%
%TD*%
%TA.AperFunction,Conductor*%
%TO.N,+5V*%
G36*
X128857532Y-75708220D02*
G01*
X128858953Y-75709641D01*
X129325668Y-76264369D01*
X129328372Y-76272905D01*
X129326826Y-76277788D01*
X128953385Y-76919187D01*
X128946261Y-76924612D01*
X128943274Y-76925000D01*
X128756726Y-76925000D01*
X128748453Y-76921573D01*
X128746615Y-76919187D01*
X128373172Y-76277786D01*
X128371972Y-76268914D01*
X128374329Y-76264372D01*
X128841047Y-75709640D01*
X128848996Y-75705516D01*
X128857532Y-75708220D01*
G37*
%TD.AperFunction*%
%TD*%
%TA.AperFunction,Conductor*%
%TO.N,GND*%
G36*
X136314805Y-78722836D02*
G01*
X136200707Y-79000707D01*
X135922836Y-79114805D01*
X135492894Y-78434315D01*
X135634315Y-78292894D01*
X136314805Y-78722836D01*
G37*
%TD.AperFunction*%
%TD*%
%TA.AperFunction,Conductor*%
%TO.N,Net-(U2-GPIO10)*%
G36*
X138933707Y-67189658D02*
G01*
X139197815Y-67298103D01*
X139201663Y-67300671D01*
X139402848Y-67502805D01*
X139406255Y-67511087D01*
X139402809Y-67519352D01*
X139401782Y-67520260D01*
X138876620Y-67932717D01*
X138804364Y-67989467D01*
X138803182Y-67990395D01*
X138795955Y-67992894D01*
X138617276Y-67992894D01*
X138609003Y-67989467D01*
X138605576Y-67981194D01*
X138606412Y-67976852D01*
X138788911Y-67520260D01*
X138918453Y-67196159D01*
X138924704Y-67189750D01*
X138933658Y-67189639D01*
X138933707Y-67189658D01*
G37*
%TD.AperFunction*%
%TD*%
%TA.AperFunction,Conductor*%
%TO.N,+3V3*%
G36*
X132312341Y-55707427D02*
G01*
X132792825Y-56191760D01*
X132796219Y-56200047D01*
X132792825Y-56208240D01*
X132312341Y-56692572D01*
X132304082Y-56696032D01*
X132296771Y-56693503D01*
X131804435Y-56303513D01*
X131800078Y-56295690D01*
X131800000Y-56294342D01*
X131800000Y-56105657D01*
X131803427Y-56097384D01*
X131804425Y-56096494D01*
X132296773Y-55706495D01*
X132305383Y-55704045D01*
X132312341Y-55707427D01*
G37*
%TD.AperFunction*%
%TD*%
%TA.AperFunction,Conductor*%
%TO.N,RESET*%
G36*
X128664367Y-61578427D02*
G01*
X128665951Y-61580396D01*
X129076333Y-62222078D01*
X129077903Y-62230894D01*
X129075429Y-62235914D01*
X128608953Y-62790358D01*
X128601004Y-62794483D01*
X128592468Y-62791779D01*
X128591047Y-62790358D01*
X128124088Y-62235341D01*
X128121384Y-62226805D01*
X128122682Y-62222371D01*
X128459213Y-61581262D01*
X128466092Y-61575530D01*
X128469572Y-61575000D01*
X128656094Y-61575000D01*
X128664367Y-61578427D01*
G37*
%TD.AperFunction*%
%TD*%
%TA.AperFunction,Conductor*%
%TO.N,Net-(U2-GPIO0{slash}ADC1_CH0{slash}XTAL_32K_P)*%
G36*
X138531922Y-55288925D02*
G01*
X138543062Y-55293500D01*
X138796184Y-55397436D01*
X138802536Y-55403748D01*
X138802563Y-55403815D01*
X138911073Y-55668076D01*
X138911046Y-55677031D01*
X138906499Y-55682411D01*
X138242222Y-56102109D01*
X138233398Y-56103631D01*
X138227700Y-56100491D01*
X138099508Y-55972299D01*
X138096081Y-55964026D01*
X138097890Y-55957777D01*
X138517589Y-55293498D01*
X138524904Y-55288336D01*
X138531922Y-55288925D01*
G37*
%TD.AperFunction*%
%TD*%
%TA.AperFunction,Conductor*%
%TO.N,+5V*%
G36*
X129142222Y-79397890D02*
G01*
X129806499Y-79817588D01*
X129811663Y-79824904D01*
X129811073Y-79831923D01*
X129702563Y-80096184D01*
X129696251Y-80102536D01*
X129696184Y-80102563D01*
X129431923Y-80211073D01*
X129422968Y-80211046D01*
X129417588Y-80206499D01*
X128997890Y-79542222D01*
X128996368Y-79533398D01*
X128999506Y-79527702D01*
X129127701Y-79399507D01*
X129135973Y-79396081D01*
X129142222Y-79397890D01*
G37*
%TD.AperFunction*%
%TD*%
%TA.AperFunction,Conductor*%
%TO.N,IO08*%
G36*
X125677957Y-78438589D02*
G01*
X125678864Y-78439608D01*
X126105699Y-78979728D01*
X126108140Y-78988343D01*
X126104820Y-78995228D01*
X125904149Y-79197241D01*
X125895887Y-79200695D01*
X125895820Y-79200695D01*
X125610433Y-79200024D01*
X125602168Y-79196578D01*
X125598835Y-79189632D01*
X125529918Y-78576305D01*
X125532400Y-78567703D01*
X125533263Y-78566737D01*
X125661412Y-78438588D01*
X125669684Y-78435162D01*
X125677957Y-78438589D01*
G37*
%TD.AperFunction*%
%TD*%
%TA.AperFunction,Conductor*%
%TO.N,+3V3*%
G36*
X132951547Y-76478427D02*
G01*
X132953385Y-76480813D01*
X133326826Y-77122211D01*
X133328027Y-77131085D01*
X133325668Y-77135630D01*
X132858953Y-77690358D01*
X132851004Y-77694483D01*
X132842468Y-77691779D01*
X132841047Y-77690358D01*
X132374331Y-77135630D01*
X132371627Y-77127094D01*
X132373171Y-77122215D01*
X132746615Y-76480812D01*
X132753739Y-76475388D01*
X132756726Y-76475000D01*
X132943274Y-76475000D01*
X132951547Y-76478427D01*
G37*
%TD.AperFunction*%
%TD*%
%TA.AperFunction,Conductor*%
%TO.N,+3V3*%
G36*
X132900892Y-64553427D02*
G01*
X132903178Y-64556661D01*
X133392616Y-65582375D01*
X133393087Y-65591318D01*
X133388080Y-65597445D01*
X131809909Y-66545049D01*
X131801052Y-66546370D01*
X131793929Y-66541162D01*
X131188290Y-65559663D01*
X131186863Y-65550825D01*
X131191810Y-65543752D01*
X132697071Y-64551930D01*
X132703508Y-64550000D01*
X132892619Y-64550000D01*
X132900892Y-64553427D01*
G37*
%TD.AperFunction*%
%TD*%
%TA.AperFunction,Conductor*%
%TO.N,Net-(U2-GPIO1{slash}ADC1_CH1{slash}XTAL_32K_N)*%
G36*
X126672299Y-85799508D02*
G01*
X126800491Y-85927700D01*
X126803918Y-85935973D01*
X126802109Y-85942222D01*
X126382411Y-86606499D01*
X126375095Y-86611663D01*
X126368076Y-86611073D01*
X126103815Y-86502563D01*
X126097463Y-86496251D01*
X126097436Y-86496184D01*
X125988926Y-86231923D01*
X125988953Y-86222968D01*
X125993498Y-86217589D01*
X126657777Y-85797889D01*
X126666601Y-85796368D01*
X126672299Y-85799508D01*
G37*
%TD.AperFunction*%
%TD*%
%TA.AperFunction,Conductor*%
%TO.N,BOOT*%
G36*
X123690875Y-69497941D02*
G01*
X123698191Y-69503105D01*
X123700000Y-69509354D01*
X123700000Y-69690645D01*
X123696573Y-69698918D01*
X123690875Y-69702058D01*
X122924388Y-69875001D01*
X122915564Y-69873479D01*
X122911017Y-69868099D01*
X122800883Y-69604509D01*
X122800857Y-69595556D01*
X122800862Y-69595542D01*
X122911018Y-69331898D01*
X122917369Y-69325588D01*
X122924387Y-69324998D01*
X123690875Y-69497941D01*
G37*
%TD.AperFunction*%
%TD*%
%TA.AperFunction,Conductor*%
%TO.N,+5V*%
G36*
X128857532Y-77708220D02*
G01*
X128858953Y-77709641D01*
X129325668Y-78264369D01*
X129328372Y-78272905D01*
X129326826Y-78277788D01*
X128953385Y-78919187D01*
X128946261Y-78924612D01*
X128943274Y-78925000D01*
X128756726Y-78925000D01*
X128748453Y-78921573D01*
X128746615Y-78919187D01*
X128373172Y-78277786D01*
X128371972Y-78268914D01*
X128374329Y-78264372D01*
X128841047Y-77709640D01*
X128848996Y-77705516D01*
X128857532Y-77708220D01*
G37*
%TD.AperFunction*%
%TD*%
%TA.AperFunction,Conductor*%
%TO.N,RESET*%
G36*
X127775312Y-59566670D02*
G01*
X128578509Y-59797478D01*
X128585514Y-59803057D01*
X128586971Y-59809125D01*
X128563466Y-60493167D01*
X128559757Y-60501317D01*
X128556232Y-60503582D01*
X128060744Y-60707854D01*
X128051790Y-60707839D01*
X128045498Y-60701569D01*
X127670518Y-59809125D01*
X127630310Y-59713432D01*
X127630266Y-59704480D01*
X127632823Y-59700631D01*
X127763812Y-59569642D01*
X127772084Y-59566216D01*
X127775312Y-59566670D01*
G37*
%TD.AperFunction*%
%TD*%
%TA.AperFunction,Conductor*%
%TO.N,USB_D-*%
G36*
X138533707Y-62789658D02*
G01*
X138797815Y-62898103D01*
X138801663Y-62900671D01*
X139002848Y-63102805D01*
X139006255Y-63111087D01*
X139002809Y-63119352D01*
X139001782Y-63120260D01*
X138476620Y-63532717D01*
X138404364Y-63589467D01*
X138403182Y-63590395D01*
X138395955Y-63592894D01*
X138217276Y-63592894D01*
X138209003Y-63589467D01*
X138205576Y-63581194D01*
X138206412Y-63576852D01*
X138388911Y-63120260D01*
X138518453Y-62796159D01*
X138524704Y-62789750D01*
X138533658Y-62789639D01*
X138533707Y-62789658D01*
G37*
%TD.AperFunction*%
%TD*%
%TA.AperFunction,Conductor*%
%TO.N,+3V3*%
G36*
X124335203Y-55190273D02*
G01*
X124597815Y-55298103D01*
X124601663Y-55300671D01*
X124803977Y-55503939D01*
X124807384Y-55512221D01*
X124804037Y-55520385D01*
X124303440Y-56030807D01*
X124295201Y-56034314D01*
X124295087Y-56034315D01*
X124115167Y-56034315D01*
X124106894Y-56030888D01*
X124103467Y-56022615D01*
X124103850Y-56019645D01*
X124147829Y-55852061D01*
X124319442Y-55198125D01*
X124324857Y-55190994D01*
X124333729Y-55189779D01*
X124335203Y-55190273D01*
G37*
%TD.AperFunction*%
%TD*%
%TA.AperFunction,Conductor*%
%TO.N,+3V3*%
G36*
X126275118Y-59927919D02*
G01*
X126275401Y-59928253D01*
X126731115Y-60491935D01*
X126733651Y-60500522D01*
X126729699Y-60508114D01*
X126233085Y-60940511D01*
X126224595Y-60943359D01*
X126217281Y-60940109D01*
X125705283Y-60446399D01*
X125701706Y-60438190D01*
X125704982Y-60429856D01*
X125705081Y-60429754D01*
X125837881Y-60296954D01*
X125838394Y-60296473D01*
X126258608Y-59926860D01*
X126267081Y-59923970D01*
X126275118Y-59927919D01*
G37*
%TD.AperFunction*%
%TD*%
%TA.AperFunction,Conductor*%
%TO.N,Net-(U2-GPIO1{slash}ADC1_CH1{slash}XTAL_32K_N)*%
G36*
X138431922Y-56688925D02*
G01*
X138443062Y-56693500D01*
X138696184Y-56797436D01*
X138702536Y-56803748D01*
X138702563Y-56803815D01*
X138811073Y-57068076D01*
X138811046Y-57077031D01*
X138806499Y-57082411D01*
X138142222Y-57502109D01*
X138133398Y-57503631D01*
X138127700Y-57500491D01*
X137999508Y-57372299D01*
X137996081Y-57364026D01*
X137997890Y-57357777D01*
X138417589Y-56693498D01*
X138424904Y-56688336D01*
X138431922Y-56688925D01*
G37*
%TD.AperFunction*%
%TD*%
%TA.AperFunction,Conductor*%
%TO.N,+3V3*%
G36*
X125328517Y-54805064D02*
G01*
X125333932Y-54812196D01*
X125334315Y-54815166D01*
X125334315Y-54995087D01*
X125330888Y-55003360D01*
X125330807Y-55003440D01*
X124820385Y-55504037D01*
X124812079Y-55507383D01*
X124803939Y-55503977D01*
X124600671Y-55301663D01*
X124598102Y-55297814D01*
X124490273Y-55035203D01*
X124490300Y-55026248D01*
X124496652Y-55019936D01*
X124498119Y-55019444D01*
X125319647Y-54803849D01*
X125328517Y-54805064D01*
G37*
%TD.AperFunction*%
%TD*%
%TA.AperFunction,Conductor*%
%TO.N,+3V3*%
G36*
X132077766Y-74781540D02*
G01*
X132600949Y-74915717D01*
X132823544Y-74972804D01*
X132830706Y-74978178D01*
X132832333Y-74983837D01*
X132850500Y-75692658D01*
X132847286Y-75701016D01*
X132843263Y-75703775D01*
X132360689Y-75902699D01*
X132351734Y-75902684D01*
X132345467Y-75896469D01*
X132258609Y-75692658D01*
X131932981Y-74928575D01*
X131932891Y-74919623D01*
X131935470Y-74915719D01*
X132066589Y-74784600D01*
X132074861Y-74781174D01*
X132077766Y-74781540D01*
G37*
%TD.AperFunction*%
%TD*%
%TA.AperFunction,Conductor*%
%TO.N,USB_D+*%
G36*
X130098919Y-86503427D02*
G01*
X130102059Y-86509125D01*
X130275001Y-87275611D01*
X130273479Y-87284435D01*
X130268099Y-87288982D01*
X130004511Y-87399115D01*
X129995556Y-87399142D01*
X129995489Y-87399115D01*
X129731900Y-87288982D01*
X129725588Y-87282630D01*
X129724998Y-87275611D01*
X129897941Y-86509125D01*
X129903105Y-86501809D01*
X129909354Y-86500000D01*
X130090646Y-86500000D01*
X130098919Y-86503427D01*
G37*
%TD.AperFunction*%
%TD*%
%TA.AperFunction,Conductor*%
%TO.N,+3V3*%
G36*
X132857053Y-77709917D02*
G01*
X132859308Y-77712465D01*
X133272117Y-78344641D01*
X133273771Y-78353442D01*
X133271415Y-78358400D01*
X132805144Y-78934353D01*
X132797275Y-78938627D01*
X132788688Y-78936085D01*
X132787777Y-78935264D01*
X132656762Y-78804249D01*
X132654732Y-78801521D01*
X132372799Y-78277674D01*
X132371896Y-78268765D01*
X132374155Y-78264591D01*
X132840567Y-77711320D01*
X132848519Y-77707204D01*
X132857053Y-77709917D01*
G37*
%TD.AperFunction*%
%TD*%
%TA.AperFunction,Conductor*%
%TO.N,+5V*%
G36*
X128763902Y-72707357D02*
G01*
X129493805Y-72847808D01*
X129501280Y-72852735D01*
X129502407Y-72854830D01*
X129906763Y-73834022D01*
X129906754Y-73842977D01*
X129902384Y-73848259D01*
X128952929Y-74473517D01*
X128946494Y-74475446D01*
X128761700Y-74475446D01*
X128753427Y-74472019D01*
X128750000Y-74463746D01*
X128750000Y-72718847D01*
X128753427Y-72710574D01*
X128761700Y-72707147D01*
X128763902Y-72707357D01*
G37*
%TD.AperFunction*%
%TD*%
%TA.AperFunction,Conductor*%
%TO.N,GND*%
G36*
X136477164Y-79114805D02*
G01*
X136300000Y-79900000D01*
X136100000Y-79900000D01*
X135922836Y-79114805D01*
X136200000Y-78999000D01*
X136477164Y-79114805D01*
G37*
%TD.AperFunction*%
%TD*%
%TA.AperFunction,Conductor*%
%TO.N,BOOT*%
G36*
X133284435Y-81526520D02*
G01*
X133288982Y-81531900D01*
X133399115Y-81795489D01*
X133399142Y-81804444D01*
X133399115Y-81804511D01*
X133288982Y-82068099D01*
X133282630Y-82074411D01*
X133275611Y-82075001D01*
X132509125Y-81902058D01*
X132501809Y-81896894D01*
X132500000Y-81890645D01*
X132500000Y-81709354D01*
X132503427Y-81701081D01*
X132509124Y-81697941D01*
X133275612Y-81524998D01*
X133284435Y-81526520D01*
G37*
%TD.AperFunction*%
%TD*%
%TA.AperFunction,Conductor*%
%TO.N,Net-(U2-GPIO0{slash}ADC1_CH0{slash}XTAL_32K_P)*%
G36*
X124372299Y-85799508D02*
G01*
X124500491Y-85927700D01*
X124503918Y-85935973D01*
X124502109Y-85942222D01*
X124082411Y-86606499D01*
X124075095Y-86611663D01*
X124068076Y-86611073D01*
X123803815Y-86502563D01*
X123797463Y-86496251D01*
X123797436Y-86496184D01*
X123688926Y-86231923D01*
X123688953Y-86222968D01*
X123693498Y-86217589D01*
X124357777Y-85797889D01*
X124366601Y-85796368D01*
X124372299Y-85799508D01*
G37*
%TD.AperFunction*%
%TD*%
%TA.AperFunction,Conductor*%
%TO.N,RESET*%
G36*
X128027766Y-57281540D02*
G01*
X128550949Y-57415717D01*
X128773544Y-57472804D01*
X128780706Y-57478178D01*
X128782333Y-57483837D01*
X128800500Y-58192658D01*
X128797286Y-58201016D01*
X128793263Y-58203775D01*
X128310689Y-58402699D01*
X128301734Y-58402684D01*
X128295467Y-58396469D01*
X128208609Y-58192658D01*
X127882981Y-57428575D01*
X127882891Y-57419623D01*
X127885470Y-57415719D01*
X128016589Y-57284600D01*
X128024861Y-57281174D01*
X128027766Y-57281540D01*
G37*
%TD.AperFunction*%
%TD*%
%TA.AperFunction,Conductor*%
%TO.N,RESET*%
G36*
X125890875Y-56697941D02*
G01*
X125898191Y-56703105D01*
X125900000Y-56709354D01*
X125900000Y-56890645D01*
X125896573Y-56898918D01*
X125890875Y-56902058D01*
X125124388Y-57075001D01*
X125115564Y-57073479D01*
X125111017Y-57068099D01*
X125000883Y-56804509D01*
X125000857Y-56795556D01*
X125000862Y-56795542D01*
X125111018Y-56531898D01*
X125117369Y-56525588D01*
X125124387Y-56524998D01*
X125890875Y-56697941D01*
G37*
%TD.AperFunction*%
%TD*%
%TA.AperFunction,Conductor*%
%TO.N,+3V3*%
G36*
X132572299Y-78899508D02*
G01*
X132700491Y-79027700D01*
X132703918Y-79035973D01*
X132702109Y-79042222D01*
X132282411Y-79706499D01*
X132275095Y-79711663D01*
X132268076Y-79711073D01*
X132003815Y-79602563D01*
X131997463Y-79596251D01*
X131997436Y-79596184D01*
X131888926Y-79331923D01*
X131888953Y-79322968D01*
X131893498Y-79317589D01*
X132557777Y-78897889D01*
X132566601Y-78896368D01*
X132572299Y-78899508D01*
G37*
%TD.AperFunction*%
%TD*%
%TA.AperFunction,Conductor*%
%TO.N,+3V3*%
G36*
X131808002Y-72857570D02*
G01*
X131808535Y-72858103D01*
X132515259Y-73611897D01*
X132518418Y-73620276D01*
X132516609Y-73626158D01*
X131903445Y-74594559D01*
X131896124Y-74599716D01*
X131893560Y-74600000D01*
X131706440Y-74600000D01*
X131698167Y-74596573D01*
X131696555Y-74594559D01*
X131083390Y-73626158D01*
X131081859Y-73617335D01*
X131084738Y-73611900D01*
X131791465Y-72858102D01*
X131799623Y-72854411D01*
X131808002Y-72857570D01*
G37*
%TD.AperFunction*%
%TD*%
%TA.AperFunction,Conductor*%
%TO.N,+3V3*%
G36*
X132807532Y-58208220D02*
G01*
X132808953Y-58209641D01*
X133275668Y-58764369D01*
X133278372Y-58772905D01*
X133276826Y-58777788D01*
X132903385Y-59419187D01*
X132896261Y-59424612D01*
X132893274Y-59425000D01*
X132706726Y-59425000D01*
X132698453Y-59421573D01*
X132696615Y-59419187D01*
X132323172Y-58777786D01*
X132321972Y-58768914D01*
X132324329Y-58764372D01*
X132791047Y-58209640D01*
X132798996Y-58205516D01*
X132807532Y-58208220D01*
G37*
%TD.AperFunction*%
%TD*%
%TA.AperFunction,Conductor*%
%TO.N,IO08*%
G36*
X121868099Y-64311017D02*
G01*
X121874411Y-64317369D01*
X121875001Y-64324388D01*
X121702059Y-65090875D01*
X121696895Y-65098191D01*
X121690646Y-65100000D01*
X121509354Y-65100000D01*
X121501081Y-65096573D01*
X121497941Y-65090875D01*
X121324998Y-64324388D01*
X121326520Y-64315564D01*
X121331897Y-64311018D01*
X121595490Y-64200883D01*
X121604444Y-64200857D01*
X121868099Y-64311017D01*
G37*
%TD.AperFunction*%
%TD*%
%TA.AperFunction,Conductor*%
%TO.N,USB_D-*%
G36*
X134472299Y-87199508D02*
G01*
X134600491Y-87327700D01*
X134603918Y-87335973D01*
X134602109Y-87342222D01*
X134182411Y-88006499D01*
X134175095Y-88011663D01*
X134168076Y-88011073D01*
X133903815Y-87902563D01*
X133897463Y-87896251D01*
X133897436Y-87896184D01*
X133788926Y-87631923D01*
X133788953Y-87622968D01*
X133793498Y-87617589D01*
X134457777Y-87197889D01*
X134466601Y-87196368D01*
X134472299Y-87199508D01*
G37*
%TD.AperFunction*%
%TD*%
%TA.AperFunction,Conductor*%
%TO.N,RESET*%
G36*
X128570340Y-60507776D02*
G01*
X128571185Y-60508621D01*
X129050209Y-61039289D01*
X129053209Y-61047727D01*
X129051601Y-61053075D01*
X128665895Y-61706746D01*
X128658739Y-61712130D01*
X128655818Y-61712500D01*
X128469182Y-61712500D01*
X128460909Y-61709073D01*
X128459105Y-61706746D01*
X128379159Y-61571259D01*
X128073397Y-61053073D01*
X128072145Y-61044208D01*
X128074788Y-61039291D01*
X128553815Y-60508620D01*
X128561902Y-60504776D01*
X128570340Y-60507776D01*
G37*
%TD.AperFunction*%
%TD*%
%TA.AperFunction,Conductor*%
%TO.N,GND*%
G36*
X122707106Y-83434315D02*
G01*
X122277164Y-84114805D01*
X121999293Y-84000707D01*
X121885195Y-83722836D01*
X122565685Y-83292894D01*
X122707106Y-83434315D01*
G37*
%TD.AperFunction*%
%TD*%
%TA.AperFunction,Conductor*%
%TO.N,+3V3*%
G36*
X132807532Y-56208220D02*
G01*
X132808953Y-56209641D01*
X133275668Y-56764369D01*
X133278372Y-56772905D01*
X133276826Y-56777788D01*
X132903385Y-57419187D01*
X132896261Y-57424612D01*
X132893274Y-57425000D01*
X132706726Y-57425000D01*
X132698453Y-57421573D01*
X132696615Y-57419187D01*
X132323172Y-56777786D01*
X132321972Y-56768914D01*
X132324329Y-56764372D01*
X132791047Y-56209640D01*
X132798996Y-56205516D01*
X132807532Y-56208220D01*
G37*
%TD.AperFunction*%
%TD*%
%TA.AperFunction,Conductor*%
%TO.N,+3V3*%
G36*
X132857532Y-75708220D02*
G01*
X132858953Y-75709641D01*
X133325668Y-76264369D01*
X133328372Y-76272905D01*
X133326826Y-76277788D01*
X132953385Y-76919187D01*
X132946261Y-76924612D01*
X132943274Y-76925000D01*
X132756726Y-76925000D01*
X132748453Y-76921573D01*
X132746615Y-76919187D01*
X132373172Y-76277786D01*
X132371972Y-76268914D01*
X132374329Y-76264372D01*
X132841047Y-75709640D01*
X132848996Y-75705516D01*
X132857532Y-75708220D01*
G37*
%TD.AperFunction*%
%TD*%
%TA.AperFunction,Conductor*%
%TO.N,Net-(U2-GPIO10)*%
G36*
X128585788Y-86499966D02*
G01*
X128594052Y-86503412D01*
X128597459Y-86511694D01*
X128597236Y-86513941D01*
X128442111Y-87296515D01*
X128438907Y-87302513D01*
X128313359Y-87428061D01*
X128305086Y-87431488D01*
X128296813Y-87428061D01*
X128293993Y-87423507D01*
X128252581Y-87300000D01*
X128026296Y-86625124D01*
X128026915Y-86616191D01*
X128032878Y-86610609D01*
X128297118Y-86500201D01*
X128301652Y-86499298D01*
X128585788Y-86499966D01*
G37*
%TD.AperFunction*%
%TD*%
%TA.AperFunction,Conductor*%
%TO.N,+5V*%
G36*
X128951547Y-76478427D02*
G01*
X128953385Y-76480813D01*
X129326826Y-77122211D01*
X129328027Y-77131085D01*
X129325668Y-77135630D01*
X128858953Y-77690358D01*
X128851004Y-77694483D01*
X128842468Y-77691779D01*
X128841047Y-77690358D01*
X128374331Y-77135630D01*
X128371627Y-77127094D01*
X128373171Y-77122215D01*
X128746615Y-76480812D01*
X128753739Y-76475388D01*
X128756726Y-76475000D01*
X128943274Y-76475000D01*
X128951547Y-76478427D01*
G37*
%TD.AperFunction*%
%TD*%
%TA.AperFunction,Conductor*%
%TO.N,+3V3*%
G36*
X131808269Y-66557277D02*
G01*
X131808277Y-66557285D01*
X132792158Y-67542150D01*
X132795581Y-67550425D01*
X132792578Y-67558246D01*
X131903486Y-68546127D01*
X131895404Y-68549984D01*
X131894789Y-68550000D01*
X131705211Y-68550000D01*
X131696938Y-68546573D01*
X131696514Y-68546127D01*
X130807421Y-67558246D01*
X130804434Y-67549804D01*
X130807840Y-67542152D01*
X131791723Y-66557284D01*
X131799994Y-66553854D01*
X131808269Y-66557277D01*
G37*
%TD.AperFunction*%
%TD*%
%TA.AperFunction,Conductor*%
%TO.N,+5V*%
G36*
X128951547Y-74478427D02*
G01*
X128953385Y-74480813D01*
X129326826Y-75122211D01*
X129328027Y-75131085D01*
X129325668Y-75135630D01*
X128858953Y-75690358D01*
X128851004Y-75694483D01*
X128842468Y-75691779D01*
X128841047Y-75690358D01*
X128374331Y-75135630D01*
X128371627Y-75127094D01*
X128373171Y-75122215D01*
X128746615Y-74480812D01*
X128753739Y-74475388D01*
X128756726Y-74475000D01*
X128943274Y-74475000D01*
X128951547Y-74478427D01*
G37*
%TD.AperFunction*%
%TD*%
%TA.AperFunction,Conductor*%
%TO.N,+3V3*%
G36*
X132901547Y-56978427D02*
G01*
X132903385Y-56980813D01*
X133276826Y-57622211D01*
X133278027Y-57631085D01*
X133275668Y-57635630D01*
X132808953Y-58190358D01*
X132801004Y-58194483D01*
X132792468Y-58191779D01*
X132791047Y-58190358D01*
X132324331Y-57635630D01*
X132321627Y-57627094D01*
X132323171Y-57622215D01*
X132696615Y-56980812D01*
X132703739Y-56975388D01*
X132706726Y-56975000D01*
X132893274Y-56975000D01*
X132901547Y-56978427D01*
G37*
%TD.AperFunction*%
%TD*%
%TA.AperFunction,Conductor*%
%TO.N,USB_D+*%
G36*
X138168099Y-62311017D02*
G01*
X138174411Y-62317369D01*
X138175001Y-62324388D01*
X138002059Y-63090875D01*
X137996895Y-63098191D01*
X137990646Y-63100000D01*
X137809354Y-63100000D01*
X137801081Y-63096573D01*
X137797941Y-63090875D01*
X137624998Y-62324388D01*
X137626520Y-62315564D01*
X137631897Y-62311018D01*
X137895490Y-62200883D01*
X137904444Y-62200857D01*
X138168099Y-62311017D01*
G37*
%TD.AperFunction*%
%TD*%
%TA.AperFunction,Conductor*%
%TO.N,GND*%
G36*
X136200707Y-69799293D02*
G01*
X136314805Y-70077164D01*
X135634315Y-70507106D01*
X135492894Y-70365685D01*
X135922836Y-69685195D01*
X136200707Y-69799293D01*
G37*
%TD.AperFunction*%
%TD*%
%TA.AperFunction,Conductor*%
%TO.N,+3V3*%
G36*
X131901833Y-71103427D02*
G01*
X131903445Y-71105441D01*
X132516609Y-72073841D01*
X132518140Y-72082664D01*
X132515259Y-72088102D01*
X131808535Y-72841896D01*
X131800377Y-72845588D01*
X131791998Y-72842429D01*
X131791465Y-72841896D01*
X131084740Y-72088102D01*
X131081581Y-72079723D01*
X131083389Y-72073843D01*
X131696555Y-71105441D01*
X131703876Y-71100284D01*
X131706440Y-71100000D01*
X131893560Y-71100000D01*
X131901833Y-71103427D01*
G37*
%TD.AperFunction*%
%TD*%
%TA.AperFunction,Conductor*%
%TO.N,RESET*%
G36*
X125275841Y-56689441D02*
G01*
X125281909Y-56695239D01*
X125621162Y-57413313D01*
X125621597Y-57422257D01*
X125618856Y-57426584D01*
X125490623Y-57554817D01*
X125482350Y-57558244D01*
X125475092Y-57555720D01*
X124798143Y-57020259D01*
X124793780Y-57012439D01*
X124796225Y-57003825D01*
X124797089Y-57002848D01*
X124997629Y-56800967D01*
X125001480Y-56798394D01*
X125266889Y-56689414D01*
X125275841Y-56689441D01*
G37*
%TD.AperFunction*%
%TD*%
M02*
