%TF.GenerationSoftware,KiCad,Pcbnew,8.0.4*%
%TF.CreationDate,2024-09-01T23:06:17-05:00*%
%TF.ProjectId,Quick Hack,51756963-6b20-4486-9163-6b2e6b696361,rev?*%
%TF.SameCoordinates,Original*%
%TF.FileFunction,Copper,L1,Top*%
%TF.FilePolarity,Positive*%
%FSLAX46Y46*%
G04 Gerber Fmt 4.6, Leading zero omitted, Abs format (unit mm)*
G04 Created by KiCad (PCBNEW 8.0.4) date 2024-09-01 23:06:17*
%MOMM*%
%LPD*%
G01*
G04 APERTURE LIST*
G04 Aperture macros list*
%AMRoundRect*
0 Rectangle with rounded corners*
0 $1 Rounding radius*
0 $2 $3 $4 $5 $6 $7 $8 $9 X,Y pos of 4 corners*
0 Add a 4 corners polygon primitive as box body*
4,1,4,$2,$3,$4,$5,$6,$7,$8,$9,$2,$3,0*
0 Add four circle primitives for the rounded corners*
1,1,$1+$1,$2,$3*
1,1,$1+$1,$4,$5*
1,1,$1+$1,$6,$7*
1,1,$1+$1,$8,$9*
0 Add four rect primitives between the rounded corners*
20,1,$1+$1,$2,$3,$4,$5,0*
20,1,$1+$1,$4,$5,$6,$7,0*
20,1,$1+$1,$6,$7,$8,$9,0*
20,1,$1+$1,$8,$9,$2,$3,0*%
G04 Aperture macros list end*
%ADD10C,0.300000*%
%TA.AperFunction,NonConductor*%
%ADD11C,0.300000*%
%TD*%
%TA.AperFunction,NonConductor*%
%ADD12C,0.200000*%
%TD*%
%TA.AperFunction,SMDPad,CuDef*%
%ADD13R,0.700000X0.700000*%
%TD*%
%TA.AperFunction,SMDPad,CuDef*%
%ADD14R,1.000000X1.250000*%
%TD*%
%TA.AperFunction,SMDPad,CuDef*%
%ADD15C,1.000000*%
%TD*%
%TA.AperFunction,SMDPad,CuDef*%
%ADD16RoundRect,0.325000X-0.325000X-6.025000X0.325000X-6.025000X0.325000X6.025000X-0.325000X6.025000X0*%
%TD*%
%TA.AperFunction,SMDPad,CuDef*%
%ADD17RoundRect,0.325000X-0.325000X-5.725000X0.325000X-5.725000X0.325000X5.725000X-0.325000X5.725000X0*%
%TD*%
%TA.AperFunction,SMDPad,CuDef*%
%ADD18RoundRect,0.250000X-0.262500X-0.450000X0.262500X-0.450000X0.262500X0.450000X-0.262500X0.450000X0*%
%TD*%
%TA.AperFunction,ComponentPad*%
%ADD19R,1.700000X1.700000*%
%TD*%
%TA.AperFunction,ComponentPad*%
%ADD20O,1.700000X1.700000*%
%TD*%
%TA.AperFunction,SMDPad,CuDef*%
%ADD21R,1.500000X0.900000*%
%TD*%
%TA.AperFunction,SMDPad,CuDef*%
%ADD22RoundRect,0.243750X0.243750X0.456250X-0.243750X0.456250X-0.243750X-0.456250X0.243750X-0.456250X0*%
%TD*%
%TA.AperFunction,SMDPad,CuDef*%
%ADD23RoundRect,0.250000X0.250000X0.475000X-0.250000X0.475000X-0.250000X-0.475000X0.250000X-0.475000X0*%
%TD*%
%TA.AperFunction,ViaPad*%
%ADD24C,0.600000*%
%TD*%
%TA.AperFunction,Conductor*%
%ADD25C,0.200000*%
%TD*%
G04 APERTURE END LIST*
D10*
D11*
X150158156Y-84823683D02*
X151158155Y-84824195D01*
X149586544Y-85180533D02*
X150657790Y-85538225D01*
X150657790Y-85538225D02*
X150658265Y-84609653D01*
X150301525Y-83823757D02*
X150230023Y-83966577D01*
X150230023Y-83966577D02*
X150158558Y-84037969D01*
X150158558Y-84037969D02*
X150015664Y-84109325D01*
X150015664Y-84109325D02*
X149944236Y-84109288D01*
X149944236Y-84109288D02*
X149801415Y-84037786D01*
X149801415Y-84037786D02*
X149730023Y-83966321D01*
X149730023Y-83966321D02*
X149658668Y-83823427D01*
X149658668Y-83823427D02*
X149658814Y-83537713D01*
X149658814Y-83537713D02*
X149730316Y-83394893D01*
X149730316Y-83394893D02*
X149801781Y-83323501D01*
X149801781Y-83323501D02*
X149944675Y-83252145D01*
X149944675Y-83252145D02*
X150016103Y-83252182D01*
X150016103Y-83252182D02*
X150158924Y-83323684D01*
X150158924Y-83323684D02*
X150230316Y-83395149D01*
X150230316Y-83395149D02*
X150301671Y-83538042D01*
X150301671Y-83538042D02*
X150301525Y-83823757D01*
X150301525Y-83823757D02*
X150372880Y-83966650D01*
X150372880Y-83966650D02*
X150444272Y-84038116D01*
X150444272Y-84038116D02*
X150587093Y-84109617D01*
X150587093Y-84109617D02*
X150872807Y-84109764D01*
X150872807Y-84109764D02*
X151015701Y-84038408D01*
X151015701Y-84038408D02*
X151087166Y-83967016D01*
X151087166Y-83967016D02*
X151158668Y-83824196D01*
X151158668Y-83824196D02*
X151158814Y-83538482D01*
X151158814Y-83538482D02*
X151087459Y-83395588D01*
X151087459Y-83395588D02*
X151016067Y-83324123D01*
X151016067Y-83324123D02*
X150873246Y-83252621D01*
X150873246Y-83252621D02*
X150587532Y-83252475D01*
X150587532Y-83252475D02*
X150444638Y-83323830D01*
X150444638Y-83323830D02*
X150373173Y-83395222D01*
X150373173Y-83395222D02*
X150301671Y-83538042D01*
X151016433Y-82609837D02*
X151087898Y-82538445D01*
X151087898Y-82538445D02*
X151159290Y-82609911D01*
X151159290Y-82609911D02*
X151087825Y-82681303D01*
X151087825Y-82681303D02*
X151016433Y-82609837D01*
X151016433Y-82609837D02*
X151159290Y-82609911D01*
X150302623Y-81680900D02*
X150231121Y-81823720D01*
X150231121Y-81823720D02*
X150159656Y-81895112D01*
X150159656Y-81895112D02*
X150016762Y-81966468D01*
X150016762Y-81966468D02*
X149945334Y-81966431D01*
X149945334Y-81966431D02*
X149802513Y-81894929D01*
X149802513Y-81894929D02*
X149731121Y-81823464D01*
X149731121Y-81823464D02*
X149659766Y-81680571D01*
X149659766Y-81680571D02*
X149659912Y-81394856D01*
X149659912Y-81394856D02*
X149731414Y-81252036D01*
X149731414Y-81252036D02*
X149802879Y-81180644D01*
X149802879Y-81180644D02*
X149945773Y-81109288D01*
X149945773Y-81109288D02*
X150017201Y-81109325D01*
X150017201Y-81109325D02*
X150160022Y-81180827D01*
X150160022Y-81180827D02*
X150231414Y-81252292D01*
X150231414Y-81252292D02*
X150302769Y-81395186D01*
X150302769Y-81395186D02*
X150302623Y-81680900D01*
X150302623Y-81680900D02*
X150373978Y-81823794D01*
X150373978Y-81823794D02*
X150445370Y-81895259D01*
X150445370Y-81895259D02*
X150588191Y-81966761D01*
X150588191Y-81966761D02*
X150873905Y-81966907D01*
X150873905Y-81966907D02*
X151016799Y-81895552D01*
X151016799Y-81895552D02*
X151088264Y-81824160D01*
X151088264Y-81824160D02*
X151159766Y-81681339D01*
X151159766Y-81681339D02*
X151159912Y-81395625D01*
X151159912Y-81395625D02*
X151088556Y-81252731D01*
X151088556Y-81252731D02*
X151017165Y-81181266D01*
X151017165Y-81181266D02*
X150874344Y-81109764D01*
X150874344Y-81109764D02*
X150588630Y-81109618D01*
X150588630Y-81109618D02*
X150445736Y-81180973D01*
X150445736Y-81180973D02*
X150374271Y-81252365D01*
X150374271Y-81252365D02*
X150302769Y-81395186D01*
X149660534Y-80180571D02*
X149660607Y-80037714D01*
X149660607Y-80037714D02*
X149732109Y-79894894D01*
X149732109Y-79894894D02*
X149803574Y-79823502D01*
X149803574Y-79823502D02*
X149946468Y-79752146D01*
X149946468Y-79752146D02*
X150232219Y-79680864D01*
X150232219Y-79680864D02*
X150589362Y-79681047D01*
X150589362Y-79681047D02*
X150875039Y-79752622D01*
X150875039Y-79752622D02*
X151017860Y-79824124D01*
X151017860Y-79824124D02*
X151089252Y-79895589D01*
X151089252Y-79895589D02*
X151160607Y-80038483D01*
X151160607Y-80038483D02*
X151160534Y-80181340D01*
X151160534Y-80181340D02*
X151089032Y-80324160D01*
X151089032Y-80324160D02*
X151017567Y-80395552D01*
X151017567Y-80395552D02*
X150874673Y-80466908D01*
X150874673Y-80466908D02*
X150588922Y-80538190D01*
X150588922Y-80538190D02*
X150231780Y-80538007D01*
X150231780Y-80538007D02*
X149946102Y-80466432D01*
X149946102Y-80466432D02*
X149803281Y-80394930D01*
X149803281Y-80394930D02*
X149731890Y-80323465D01*
X149731890Y-80323465D02*
X149660534Y-80180571D01*
X149661266Y-78752000D02*
X149661339Y-78609143D01*
X149661339Y-78609143D02*
X149732841Y-78466323D01*
X149732841Y-78466323D02*
X149804306Y-78394931D01*
X149804306Y-78394931D02*
X149947200Y-78323575D01*
X149947200Y-78323575D02*
X150232951Y-78252293D01*
X150232951Y-78252293D02*
X150590093Y-78252476D01*
X150590093Y-78252476D02*
X150875771Y-78324051D01*
X150875771Y-78324051D02*
X151018592Y-78395553D01*
X151018592Y-78395553D02*
X151089984Y-78467018D01*
X151089984Y-78467018D02*
X151161339Y-78609912D01*
X151161339Y-78609912D02*
X151161266Y-78752769D01*
X151161266Y-78752769D02*
X151089764Y-78895589D01*
X151089764Y-78895589D02*
X151018299Y-78966981D01*
X151018299Y-78966981D02*
X150875405Y-79038337D01*
X150875405Y-79038337D02*
X150589654Y-79109619D01*
X150589654Y-79109619D02*
X150232512Y-79109436D01*
X150232512Y-79109436D02*
X149946834Y-79037861D01*
X149946834Y-79037861D02*
X149804013Y-78966359D01*
X149804013Y-78966359D02*
X149732621Y-78894894D01*
X149732621Y-78894894D02*
X149661266Y-78752000D01*
X149661998Y-77323430D02*
X149662071Y-77180572D01*
X149662071Y-77180572D02*
X149733573Y-77037752D01*
X149733573Y-77037752D02*
X149805038Y-76966360D01*
X149805038Y-76966360D02*
X149947932Y-76895005D01*
X149947932Y-76895005D02*
X150233682Y-76823722D01*
X150233682Y-76823722D02*
X150590825Y-76823905D01*
X150590825Y-76823905D02*
X150876503Y-76895480D01*
X150876503Y-76895480D02*
X151019323Y-76966982D01*
X151019323Y-76966982D02*
X151090715Y-77038447D01*
X151090715Y-77038447D02*
X151162071Y-77181341D01*
X151162071Y-77181341D02*
X151161998Y-77324198D01*
X151161998Y-77324198D02*
X151090496Y-77467019D01*
X151090496Y-77467019D02*
X151019031Y-77538411D01*
X151019031Y-77538411D02*
X150876137Y-77609766D01*
X150876137Y-77609766D02*
X150590386Y-77681048D01*
X150590386Y-77681048D02*
X150233243Y-77680865D01*
X150233243Y-77680865D02*
X149947566Y-77609290D01*
X149947566Y-77609290D02*
X149804745Y-77537788D01*
X149804745Y-77537788D02*
X149733353Y-77466323D01*
X149733353Y-77466323D02*
X149661998Y-77323430D01*
X151163169Y-75038485D02*
X150163169Y-75037972D01*
X150306026Y-75038046D02*
X150234634Y-74966580D01*
X150234634Y-74966580D02*
X150163279Y-74823687D01*
X150163279Y-74823687D02*
X150163388Y-74609401D01*
X150163388Y-74609401D02*
X150234890Y-74466580D01*
X150234890Y-74466580D02*
X150377784Y-74395225D01*
X150377784Y-74395225D02*
X151163498Y-74395628D01*
X150377784Y-74395225D02*
X150234963Y-74323723D01*
X150234963Y-74323723D02*
X150163608Y-74180830D01*
X150163608Y-74180830D02*
X150163718Y-73966544D01*
X150163718Y-73966544D02*
X150235219Y-73823723D01*
X150235219Y-73823723D02*
X150378113Y-73752368D01*
X150378113Y-73752368D02*
X151163827Y-73752770D01*
X151164193Y-73038485D02*
X150164193Y-73037973D01*
X150307050Y-73038046D02*
X150235658Y-72966581D01*
X150235658Y-72966581D02*
X150164303Y-72823687D01*
X150164303Y-72823687D02*
X150164413Y-72609401D01*
X150164413Y-72609401D02*
X150235915Y-72466581D01*
X150235915Y-72466581D02*
X150378808Y-72395225D01*
X150378808Y-72395225D02*
X151164523Y-72395628D01*
X150378808Y-72395225D02*
X150235988Y-72323724D01*
X150235988Y-72323724D02*
X150164632Y-72180830D01*
X150164632Y-72180830D02*
X150164742Y-71966544D01*
X150164742Y-71966544D02*
X150236244Y-71823724D01*
X150236244Y-71823724D02*
X150379138Y-71752368D01*
X150379138Y-71752368D02*
X151164852Y-71752771D01*
D12*
X132325000Y-54200256D02*
X152881931Y-54210787D01*
X132300000Y-103000256D02*
X152856931Y-103010787D01*
X152295511Y-54210487D02*
X152270511Y-103010487D01*
X152295511Y-54210487D02*
X152270511Y-103010487D01*
X152295511Y-54210487D02*
X152881355Y-55337291D01*
X152295511Y-54210487D02*
X151708513Y-55336690D01*
X152270511Y-103010487D02*
X151684667Y-101883683D01*
X152270511Y-103010487D02*
X152857509Y-101884284D01*
D10*
D11*
X124871430Y-41821185D02*
X124942858Y-41749757D01*
X124942858Y-41749757D02*
X125085716Y-41678328D01*
X125085716Y-41678328D02*
X125442858Y-41678328D01*
X125442858Y-41678328D02*
X125585716Y-41749757D01*
X125585716Y-41749757D02*
X125657144Y-41821185D01*
X125657144Y-41821185D02*
X125728573Y-41964042D01*
X125728573Y-41964042D02*
X125728573Y-42106900D01*
X125728573Y-42106900D02*
X125657144Y-42321185D01*
X125657144Y-42321185D02*
X124800001Y-43178328D01*
X124800001Y-43178328D02*
X125728573Y-43178328D01*
X126300001Y-41821185D02*
X126371429Y-41749757D01*
X126371429Y-41749757D02*
X126514287Y-41678328D01*
X126514287Y-41678328D02*
X126871429Y-41678328D01*
X126871429Y-41678328D02*
X127014287Y-41749757D01*
X127014287Y-41749757D02*
X127085715Y-41821185D01*
X127085715Y-41821185D02*
X127157144Y-41964042D01*
X127157144Y-41964042D02*
X127157144Y-42106900D01*
X127157144Y-42106900D02*
X127085715Y-42321185D01*
X127085715Y-42321185D02*
X126228572Y-43178328D01*
X126228572Y-43178328D02*
X127157144Y-43178328D01*
X127800000Y-43035471D02*
X127871429Y-43106900D01*
X127871429Y-43106900D02*
X127800000Y-43178328D01*
X127800000Y-43178328D02*
X127728572Y-43106900D01*
X127728572Y-43106900D02*
X127800000Y-43035471D01*
X127800000Y-43035471D02*
X127800000Y-43178328D01*
X128800001Y-41678328D02*
X128942858Y-41678328D01*
X128942858Y-41678328D02*
X129085715Y-41749757D01*
X129085715Y-41749757D02*
X129157144Y-41821185D01*
X129157144Y-41821185D02*
X129228572Y-41964042D01*
X129228572Y-41964042D02*
X129300001Y-42249757D01*
X129300001Y-42249757D02*
X129300001Y-42606900D01*
X129300001Y-42606900D02*
X129228572Y-42892614D01*
X129228572Y-42892614D02*
X129157144Y-43035471D01*
X129157144Y-43035471D02*
X129085715Y-43106900D01*
X129085715Y-43106900D02*
X128942858Y-43178328D01*
X128942858Y-43178328D02*
X128800001Y-43178328D01*
X128800001Y-43178328D02*
X128657144Y-43106900D01*
X128657144Y-43106900D02*
X128585715Y-43035471D01*
X128585715Y-43035471D02*
X128514286Y-42892614D01*
X128514286Y-42892614D02*
X128442858Y-42606900D01*
X128442858Y-42606900D02*
X128442858Y-42249757D01*
X128442858Y-42249757D02*
X128514286Y-41964042D01*
X128514286Y-41964042D02*
X128585715Y-41821185D01*
X128585715Y-41821185D02*
X128657144Y-41749757D01*
X128657144Y-41749757D02*
X128800001Y-41678328D01*
X130228572Y-41678328D02*
X130371429Y-41678328D01*
X130371429Y-41678328D02*
X130514286Y-41749757D01*
X130514286Y-41749757D02*
X130585715Y-41821185D01*
X130585715Y-41821185D02*
X130657143Y-41964042D01*
X130657143Y-41964042D02*
X130728572Y-42249757D01*
X130728572Y-42249757D02*
X130728572Y-42606900D01*
X130728572Y-42606900D02*
X130657143Y-42892614D01*
X130657143Y-42892614D02*
X130585715Y-43035471D01*
X130585715Y-43035471D02*
X130514286Y-43106900D01*
X130514286Y-43106900D02*
X130371429Y-43178328D01*
X130371429Y-43178328D02*
X130228572Y-43178328D01*
X130228572Y-43178328D02*
X130085715Y-43106900D01*
X130085715Y-43106900D02*
X130014286Y-43035471D01*
X130014286Y-43035471D02*
X129942857Y-42892614D01*
X129942857Y-42892614D02*
X129871429Y-42606900D01*
X129871429Y-42606900D02*
X129871429Y-42249757D01*
X129871429Y-42249757D02*
X129942857Y-41964042D01*
X129942857Y-41964042D02*
X130014286Y-41821185D01*
X130014286Y-41821185D02*
X130085715Y-41749757D01*
X130085715Y-41749757D02*
X130228572Y-41678328D01*
X131657143Y-41678328D02*
X131800000Y-41678328D01*
X131800000Y-41678328D02*
X131942857Y-41749757D01*
X131942857Y-41749757D02*
X132014286Y-41821185D01*
X132014286Y-41821185D02*
X132085714Y-41964042D01*
X132085714Y-41964042D02*
X132157143Y-42249757D01*
X132157143Y-42249757D02*
X132157143Y-42606900D01*
X132157143Y-42606900D02*
X132085714Y-42892614D01*
X132085714Y-42892614D02*
X132014286Y-43035471D01*
X132014286Y-43035471D02*
X131942857Y-43106900D01*
X131942857Y-43106900D02*
X131800000Y-43178328D01*
X131800000Y-43178328D02*
X131657143Y-43178328D01*
X131657143Y-43178328D02*
X131514286Y-43106900D01*
X131514286Y-43106900D02*
X131442857Y-43035471D01*
X131442857Y-43035471D02*
X131371428Y-42892614D01*
X131371428Y-42892614D02*
X131300000Y-42606900D01*
X131300000Y-42606900D02*
X131300000Y-42249757D01*
X131300000Y-42249757D02*
X131371428Y-41964042D01*
X131371428Y-41964042D02*
X131442857Y-41821185D01*
X131442857Y-41821185D02*
X131514286Y-41749757D01*
X131514286Y-41749757D02*
X131657143Y-41678328D01*
X133085714Y-41678328D02*
X133228571Y-41678328D01*
X133228571Y-41678328D02*
X133371428Y-41749757D01*
X133371428Y-41749757D02*
X133442857Y-41821185D01*
X133442857Y-41821185D02*
X133514285Y-41964042D01*
X133514285Y-41964042D02*
X133585714Y-42249757D01*
X133585714Y-42249757D02*
X133585714Y-42606900D01*
X133585714Y-42606900D02*
X133514285Y-42892614D01*
X133514285Y-42892614D02*
X133442857Y-43035471D01*
X133442857Y-43035471D02*
X133371428Y-43106900D01*
X133371428Y-43106900D02*
X133228571Y-43178328D01*
X133228571Y-43178328D02*
X133085714Y-43178328D01*
X133085714Y-43178328D02*
X132942857Y-43106900D01*
X132942857Y-43106900D02*
X132871428Y-43035471D01*
X132871428Y-43035471D02*
X132799999Y-42892614D01*
X132799999Y-42892614D02*
X132728571Y-42606900D01*
X132728571Y-42606900D02*
X132728571Y-42249757D01*
X132728571Y-42249757D02*
X132799999Y-41964042D01*
X132799999Y-41964042D02*
X132871428Y-41821185D01*
X132871428Y-41821185D02*
X132942857Y-41749757D01*
X132942857Y-41749757D02*
X133085714Y-41678328D01*
X135371427Y-43178328D02*
X135371427Y-42178328D01*
X135371427Y-42321185D02*
X135442856Y-42249757D01*
X135442856Y-42249757D02*
X135585713Y-42178328D01*
X135585713Y-42178328D02*
X135799999Y-42178328D01*
X135799999Y-42178328D02*
X135942856Y-42249757D01*
X135942856Y-42249757D02*
X136014285Y-42392614D01*
X136014285Y-42392614D02*
X136014285Y-43178328D01*
X136014285Y-42392614D02*
X136085713Y-42249757D01*
X136085713Y-42249757D02*
X136228570Y-42178328D01*
X136228570Y-42178328D02*
X136442856Y-42178328D01*
X136442856Y-42178328D02*
X136585713Y-42249757D01*
X136585713Y-42249757D02*
X136657142Y-42392614D01*
X136657142Y-42392614D02*
X136657142Y-43178328D01*
X137371427Y-43178328D02*
X137371427Y-42178328D01*
X137371427Y-42321185D02*
X137442856Y-42249757D01*
X137442856Y-42249757D02*
X137585713Y-42178328D01*
X137585713Y-42178328D02*
X137799999Y-42178328D01*
X137799999Y-42178328D02*
X137942856Y-42249757D01*
X137942856Y-42249757D02*
X138014285Y-42392614D01*
X138014285Y-42392614D02*
X138014285Y-43178328D01*
X138014285Y-42392614D02*
X138085713Y-42249757D01*
X138085713Y-42249757D02*
X138228570Y-42178328D01*
X138228570Y-42178328D02*
X138442856Y-42178328D01*
X138442856Y-42178328D02*
X138585713Y-42249757D01*
X138585713Y-42249757D02*
X138657142Y-42392614D01*
X138657142Y-42392614D02*
X138657142Y-43178328D01*
D12*
X120800000Y-56700000D02*
X120800000Y-43713580D01*
X142800000Y-56700000D02*
X142800000Y-43713580D01*
X120800000Y-44300000D02*
X142800000Y-44300000D01*
X120800000Y-44300000D02*
X142800000Y-44300000D01*
X120800000Y-44300000D02*
X121926504Y-43713579D01*
X120800000Y-44300000D02*
X121926504Y-44886421D01*
X142800000Y-44300000D02*
X141673496Y-44886421D01*
X142800000Y-44300000D02*
X141673496Y-43713579D01*
D13*
%TO.P,D1,1,DOUT*%
%TO.N,unconnected-(D1-DOUT-Pad1)*%
X127915000Y-81550000D03*
%TO.P,D1,2,VSS*%
%TO.N,GND*%
X127915000Y-80450000D03*
%TO.P,D1,3,DIN*%
%TO.N,IO08*%
X126085000Y-80450000D03*
%TO.P,D1,4,VDD*%
%TO.N,+5V*%
X126085000Y-81550000D03*
%TD*%
D14*
%TO.P,SW1,1,1*%
%TO.N,GND*%
X129300000Y-69825000D03*
%TO.P,SW1,2,2*%
%TO.N,RESET*%
X129300000Y-77575000D03*
%TD*%
D15*
%TO.P,TP3,1,1*%
%TO.N,Net-(U2-GPIO1{slash}ADC1_CH1{slash}XTAL_32K_N)*%
X126050000Y-85200000D03*
%TD*%
%TO.P,TP2,1,1*%
%TO.N,Net-(U2-GPIO0{slash}ADC1_CH0{slash}XTAL_32K_P)*%
X123800000Y-85200000D03*
%TD*%
D14*
%TO.P,SW2,1,1*%
%TO.N,GND*%
X134300000Y-69825000D03*
%TO.P,SW2,2,2*%
%TO.N,BOOT*%
X134300000Y-77575000D03*
%TD*%
D16*
%TO.P,J1,1,Pin_1*%
%TO.N,+5V*%
X135040000Y-95500000D03*
D17*
%TO.P,J1,2,Pin_2*%
%TO.N,USB_D-*%
X132880000Y-95200000D03*
%TO.P,J1,3,Pin_3*%
%TO.N,USB_D+*%
X130720000Y-95200000D03*
D16*
%TO.P,J1,4,Pin_4*%
%TO.N,GND*%
X128560000Y-95500000D03*
%TD*%
D18*
%TO.P,R2,1*%
%TO.N,+3V3*%
X131887500Y-85200000D03*
%TO.P,R2,2*%
%TO.N,Net-(D2-A)*%
X133712500Y-85200000D03*
%TD*%
D19*
%TO.P,J2,1,Pin_1*%
%TO.N,GND*%
X140600000Y-79800000D03*
D20*
%TO.P,J2,2,Pin_2*%
%TO.N,+3V3*%
X140600000Y-77260000D03*
%TO.P,J2,3,Pin_3*%
%TO.N,IO03*%
X140600000Y-74720000D03*
%TO.P,J2,4,Pin_4*%
%TO.N,IO02*%
X140600000Y-72180000D03*
%TD*%
D21*
%TO.P,U2,1,3V3*%
%TO.N,+3V3*%
X123050000Y-55300000D03*
%TO.P,U2,2,EN/CHIP_PU*%
%TO.N,RESET*%
X123050000Y-56800000D03*
%TO.P,U2,3,GPIO4/ADC1_CH4*%
%TO.N,IO04*%
X123050000Y-58300000D03*
%TO.P,U2,4,GPIO5/ADC2_CH0*%
%TO.N,IO05*%
X123050000Y-59800000D03*
%TO.P,U2,5,GPIO6*%
%TO.N,IO06*%
X123050000Y-61300000D03*
%TO.P,U2,6,GPIO7*%
%TO.N,IO07*%
X123050000Y-62800000D03*
%TO.P,U2,7,GPIO8*%
%TO.N,IO08*%
X123050000Y-64300000D03*
%TO.P,U2,8,GPIO9*%
%TO.N,BOOT*%
X123050000Y-65800000D03*
%TO.P,U2,9,GND*%
%TO.N,GND*%
X123050000Y-67300000D03*
%TO.P,U2,10,GPIO10*%
%TO.N,Net-(U2-GPIO10)*%
X140550000Y-67300000D03*
%TO.P,U2,11,GPIO20/U0RXD*%
%TO.N,unconnected-(U2-GPIO20{slash}U0RXD-Pad11)*%
X140550000Y-65800000D03*
%TO.P,U2,12,GPIO21/U0TXD*%
%TO.N,unconnected-(U2-GPIO21{slash}U0TXD-Pad12)*%
X140550000Y-64300000D03*
%TO.P,U2,13,GPIO18/USB_D-*%
%TO.N,USB_D-*%
X140550000Y-62800000D03*
%TO.P,U2,14,GPIO19/USB_D+*%
%TO.N,USB_D+*%
X140550000Y-61300000D03*
%TO.P,U2,15,GPIO3/ADC1_CH3*%
%TO.N,IO03*%
X140550000Y-59800000D03*
%TO.P,U2,16,GPIO2/ADC1_CH2*%
%TO.N,IO02*%
X140550000Y-58300000D03*
%TO.P,U2,17,GPIO1/ADC1_CH1/XTAL_32K_N*%
%TO.N,Net-(U2-GPIO1{slash}ADC1_CH1{slash}XTAL_32K_N)*%
X140550000Y-56800000D03*
%TO.P,U2,18,GPIO0/ADC1_CH0/XTAL_32K_P*%
%TO.N,Net-(U2-GPIO0{slash}ADC1_CH0{slash}XTAL_32K_P)*%
X140550000Y-55300000D03*
D13*
%TO.P,U2,19,GND*%
%TO.N,GND*%
X131660000Y-60400000D03*
X131660000Y-61500000D03*
X131660000Y-62600000D03*
X132710000Y-60400000D03*
X132710000Y-61500000D03*
X132710000Y-62600000D03*
X133860000Y-60400000D03*
X133860000Y-61500000D03*
X133860000Y-62600000D03*
%TD*%
D22*
%TO.P,D2,1,K*%
%TO.N,GND*%
X137737500Y-85200000D03*
%TO.P,D2,2,A*%
%TO.N,Net-(D2-A)*%
X135862500Y-85200000D03*
%TD*%
D19*
%TO.P,J3,1,Pin_1*%
%TO.N,IO04*%
X123000000Y-79800000D03*
D20*
%TO.P,J3,2,Pin_2*%
%TO.N,IO05*%
X123000000Y-77260000D03*
%TO.P,J3,3,Pin_3*%
%TO.N,IO06*%
X123000000Y-74720000D03*
%TO.P,J3,4,Pin_4*%
%TO.N,IO07*%
X123000000Y-72180000D03*
%TD*%
D15*
%TO.P,TP1,1,1*%
%TO.N,Net-(U2-GPIO10)*%
X128300000Y-85200000D03*
%TD*%
D23*
%TO.P,C7,1*%
%TO.N,BOOT*%
X135250000Y-80200000D03*
%TO.P,C7,2*%
%TO.N,GND*%
X133350000Y-80200000D03*
%TD*%
D24*
%TO.N,+5V*%
X129700000Y-80100000D03*
X133798680Y-86350000D03*
%TO.N,GND*%
X130700000Y-85700000D03*
X136200000Y-69800000D03*
X129100000Y-82000000D03*
X122000000Y-84000000D03*
X123400000Y-68800000D03*
X130400000Y-61500000D03*
X136200000Y-79000000D03*
X128200000Y-79100000D03*
X130400000Y-62600000D03*
X130400000Y-60400000D03*
%TO.N,RESET*%
X125000000Y-56800000D03*
%TO.N,+3V3*%
X124600000Y-55300000D03*
X132000000Y-79600000D03*
%TO.N,BOOT*%
X122800000Y-69600000D03*
X133400000Y-81800000D03*
%TO.N,IO08*%
X125900000Y-79200000D03*
X121600000Y-64200000D03*
%TO.N,USB_D-*%
X138800000Y-62900000D03*
X133900000Y-87900000D03*
%TO.N,USB_D+*%
X137900000Y-62200000D03*
X130000000Y-87400000D03*
%TO.N,Net-(U2-GPIO10)*%
X128300000Y-86500000D03*
X139200000Y-67300000D03*
%TO.N,Net-(U2-GPIO0{slash}ADC1_CH0{slash}XTAL_32K_P)*%
X123800000Y-86500000D03*
X138800000Y-55400000D03*
%TO.N,Net-(U2-GPIO1{slash}ADC1_CH1{slash}XTAL_32K_N)*%
X138700000Y-56800000D03*
X126100000Y-86500000D03*
%TD*%
D25*
%TO.N,+5V*%
X129700000Y-83100000D02*
X129700000Y-82800000D01*
X126085000Y-81550000D02*
X126085000Y-82185000D01*
X133798680Y-86350000D02*
X134100000Y-86651320D01*
X129700000Y-83400000D02*
X129700000Y-83100000D01*
X129400000Y-83100000D02*
X129700000Y-83400000D01*
X129400000Y-83100000D02*
X129700000Y-82800000D01*
X129700000Y-82800000D02*
X129700000Y-80100000D01*
X135040000Y-87940000D02*
X134700000Y-87600000D01*
X129400000Y-83100000D02*
X129700000Y-83100000D01*
X129700000Y-85600000D02*
X129700000Y-83400000D01*
X126085000Y-82185000D02*
X127000000Y-83100000D01*
X134100000Y-87000000D02*
X131800000Y-87000000D01*
X134700000Y-87600000D02*
X134100000Y-87000000D01*
X131100000Y-87000000D02*
X130600000Y-86500000D01*
X131800000Y-87000000D02*
X131100000Y-87000000D01*
X135040000Y-95500000D02*
X135040000Y-87940000D01*
X127000000Y-83100000D02*
X129400000Y-83100000D01*
X134100000Y-86651320D02*
X134100000Y-87000000D01*
X130600000Y-86500000D02*
X129700000Y-85600000D01*
%TO.N,GND*%
X123050000Y-68450000D02*
X123400000Y-68800000D01*
X129300000Y-69825000D02*
X134300000Y-69825000D01*
X140600000Y-79800000D02*
X140600000Y-83600000D01*
X129300000Y-74600000D02*
X129300000Y-69825000D01*
X130900000Y-76200000D02*
X129300000Y-74600000D01*
X121800000Y-86200000D02*
X123084540Y-87484540D01*
X131660000Y-62600000D02*
X131660000Y-60400000D01*
X133860000Y-62600000D02*
X133860000Y-60400000D01*
X136200000Y-69800000D02*
X136175000Y-69825000D01*
X131660000Y-61500000D02*
X133860000Y-61500000D01*
X133350000Y-78750000D02*
X130900000Y-76300000D01*
X131660000Y-62600000D02*
X133860000Y-62600000D01*
X131660000Y-60400000D02*
X133860000Y-60400000D01*
X130900000Y-76300000D02*
X130900000Y-76200000D01*
X123084540Y-87484540D02*
X123128721Y-87500000D01*
X121800000Y-84200000D02*
X121800000Y-86200000D01*
X129300000Y-63700000D02*
X130400000Y-62600000D01*
X140600000Y-83600000D02*
X139000000Y-85200000D01*
X129300000Y-69825000D02*
X129300000Y-63700000D01*
X139000000Y-85200000D02*
X137737500Y-85200000D01*
X128560000Y-88260000D02*
X128560000Y-95500000D01*
X123050000Y-67300000D02*
X123050000Y-68450000D01*
X122000000Y-84000000D02*
X121800000Y-84200000D01*
X133350000Y-80200000D02*
X133350000Y-78750000D01*
X123128721Y-87500000D02*
X127800000Y-87500000D01*
X136175000Y-69825000D02*
X134300000Y-69825000D01*
X127800000Y-87500000D02*
X128560000Y-88260000D01*
%TO.N,RESET*%
X127500000Y-59300000D02*
X125000000Y-56800000D01*
X129300000Y-77575000D02*
X127500000Y-75775000D01*
X127500000Y-75775000D02*
X127500000Y-59300000D01*
X125000000Y-56800000D02*
X123050000Y-56800000D01*
%TO.N,+3V3*%
X137000000Y-82500000D02*
X138400000Y-81100000D01*
X123050000Y-55300000D02*
X124600000Y-55300000D01*
X132187500Y-82500000D02*
X131887500Y-82200000D01*
X138400000Y-81100000D02*
X138400000Y-78000000D01*
X131887500Y-85200000D02*
X131887500Y-82800000D01*
X131887500Y-82200000D02*
X131887500Y-79712500D01*
X131887500Y-82500000D02*
X132200000Y-82500000D01*
X138400000Y-78000000D02*
X139140000Y-77260000D01*
X139140000Y-77260000D02*
X140600000Y-77260000D01*
X132200000Y-82500000D02*
X137000000Y-82500000D01*
X132187500Y-82500000D02*
X131887500Y-82800000D01*
X131887500Y-79712500D02*
X132000000Y-79600000D01*
X131887500Y-82800000D02*
X131887500Y-82500000D01*
X132200000Y-82500000D02*
X132187500Y-82500000D01*
X131887500Y-82500000D02*
X131887500Y-82200000D01*
%TO.N,BOOT*%
X121400000Y-66400000D02*
X121400000Y-68500000D01*
X122000000Y-65800000D02*
X121400000Y-66400000D01*
X135300000Y-81400000D02*
X135300000Y-80250000D01*
X123050000Y-65800000D02*
X122000000Y-65800000D01*
X135300000Y-80250000D02*
X135250000Y-80200000D01*
X135250000Y-78525000D02*
X134300000Y-77575000D01*
X135250000Y-80200000D02*
X135250000Y-78525000D01*
X122500000Y-69600000D02*
X122800000Y-69600000D01*
X133400000Y-81800000D02*
X134900000Y-81800000D01*
X134900000Y-81800000D02*
X135300000Y-81400000D01*
X121400000Y-68500000D02*
X122500000Y-69600000D01*
%TO.N,IO08*%
X121700000Y-64300000D02*
X123050000Y-64300000D01*
X126085000Y-80450000D02*
X126085000Y-79385000D01*
X126085000Y-79385000D02*
X125900000Y-79200000D01*
X121600000Y-64200000D02*
X121700000Y-64300000D01*
%TO.N,IO07*%
X123000000Y-72180000D02*
X125100000Y-70080000D01*
X125100000Y-63700000D02*
X124200000Y-62800000D01*
X125100000Y-70080000D02*
X125100000Y-63700000D01*
X124200000Y-62800000D02*
X123050000Y-62800000D01*
%TO.N,IO06*%
X124600000Y-61300000D02*
X123050000Y-61300000D01*
X123000000Y-74720000D02*
X125700000Y-72020000D01*
X125700000Y-62400000D02*
X124600000Y-61300000D01*
X125700000Y-72020000D02*
X125700000Y-62400000D01*
%TO.N,Net-(D2-A)*%
X133712500Y-85200000D02*
X135862500Y-85200000D01*
%TO.N,USB_D-*%
X133900000Y-87900000D02*
X132880000Y-88920000D01*
X140450000Y-62900000D02*
X140550000Y-62800000D01*
X132880000Y-88920000D02*
X132880000Y-95200000D01*
X138800000Y-62900000D02*
X140450000Y-62900000D01*
%TO.N,USB_D+*%
X130000000Y-87400000D02*
X130720000Y-88120000D01*
X130720000Y-88120000D02*
X130720000Y-95200000D01*
X138800000Y-61300000D02*
X140550000Y-61300000D01*
X137900000Y-62200000D02*
X138800000Y-61300000D01*
%TO.N,IO03*%
X137100000Y-71220000D02*
X137100000Y-61400000D01*
X137100000Y-61400000D02*
X138700000Y-59800000D01*
X140600000Y-74720000D02*
X137100000Y-71220000D01*
X138700000Y-59800000D02*
X140550000Y-59800000D01*
%TO.N,IO02*%
X142200000Y-70580000D02*
X142200000Y-59200000D01*
X141300000Y-58300000D02*
X140550000Y-58300000D01*
X140600000Y-72180000D02*
X142200000Y-70580000D01*
X142200000Y-59200000D02*
X141300000Y-58300000D01*
%TO.N,IO05*%
X123000000Y-77260000D02*
X126300000Y-73960000D01*
X126300000Y-61000000D02*
X125100000Y-59800000D01*
X125100000Y-59800000D02*
X123050000Y-59800000D01*
X126300000Y-73960000D02*
X126300000Y-61000000D01*
%TO.N,IO04*%
X126900000Y-60400000D02*
X124800000Y-58300000D01*
X124800000Y-58300000D02*
X123050000Y-58300000D01*
X126900000Y-75900000D02*
X126900000Y-60400000D01*
X123000000Y-79800000D02*
X126900000Y-75900000D01*
%TO.N,Net-(U2-GPIO10)*%
X128300000Y-85200000D02*
X128300000Y-86500000D01*
X139200000Y-67300000D02*
X140550000Y-67300000D01*
%TO.N,Net-(U2-GPIO0{slash}ADC1_CH0{slash}XTAL_32K_P)*%
X123800000Y-85200000D02*
X123800000Y-86500000D01*
X140450000Y-55400000D02*
X140550000Y-55300000D01*
X138800000Y-55400000D02*
X140450000Y-55400000D01*
%TO.N,Net-(U2-GPIO1{slash}ADC1_CH1{slash}XTAL_32K_N)*%
X126050000Y-86450000D02*
X126100000Y-86500000D01*
X126050000Y-85200000D02*
X126050000Y-86450000D01*
X138700000Y-56800000D02*
X140550000Y-56800000D01*
%TD*%
%TA.AperFunction,Conductor*%
%TO.N,Net-(U2-GPIO10)*%
G36*
X139806872Y-66854118D02*
G01*
X140534251Y-67289964D01*
X140539586Y-67297156D01*
X140538273Y-67306014D01*
X140534251Y-67310036D01*
X139806872Y-67745881D01*
X139798014Y-67747194D01*
X139793675Y-67745080D01*
X139354517Y-67403513D01*
X139350090Y-67395729D01*
X139350000Y-67394278D01*
X139350000Y-67205721D01*
X139353427Y-67197448D01*
X139354509Y-67196492D01*
X139793675Y-66854918D01*
X139802309Y-66852544D01*
X139806872Y-66854118D01*
G37*
%TD.AperFunction*%
%TD*%
%TA.AperFunction,Conductor*%
%TO.N,Net-(U2-GPIO1{slash}ADC1_CH1{slash}XTAL_32K_N)*%
G36*
X139590875Y-56697941D02*
G01*
X139598191Y-56703105D01*
X139600000Y-56709354D01*
X139600000Y-56890645D01*
X139596573Y-56898918D01*
X139590875Y-56902058D01*
X138824388Y-57075001D01*
X138815564Y-57073479D01*
X138811017Y-57068099D01*
X138700883Y-56804509D01*
X138700857Y-56795556D01*
X138700862Y-56795542D01*
X138811018Y-56531898D01*
X138817369Y-56525588D01*
X138824387Y-56524998D01*
X139590875Y-56697941D01*
G37*
%TD.AperFunction*%
%TD*%
%TA.AperFunction,Conductor*%
%TO.N,GND*%
G36*
X123612132Y-68587868D02*
G01*
X123400000Y-68801000D01*
X123100000Y-68800000D01*
X122950000Y-68044974D01*
X123150000Y-68044974D01*
X123612132Y-68587868D01*
G37*
%TD.AperFunction*%
%TD*%
%TA.AperFunction,Conductor*%
%TO.N,IO06*%
G36*
X123806325Y-60854919D02*
G01*
X124245483Y-61196487D01*
X124249910Y-61204270D01*
X124250000Y-61205721D01*
X124250000Y-61394278D01*
X124246573Y-61402551D01*
X124245483Y-61403513D01*
X123806324Y-61745080D01*
X123797690Y-61747455D01*
X123793127Y-61745881D01*
X123397828Y-61509018D01*
X123065747Y-61310034D01*
X123060413Y-61302844D01*
X123061726Y-61293986D01*
X123065746Y-61289965D01*
X123793127Y-60854117D01*
X123801985Y-60852805D01*
X123806325Y-60854919D01*
G37*
%TD.AperFunction*%
%TD*%
%TA.AperFunction,Conductor*%
%TO.N,GND*%
G36*
X122277164Y-84114805D02*
G01*
X121900000Y-84820238D01*
X121700000Y-84820238D01*
X121700000Y-84000000D01*
X122000000Y-83999000D01*
X122277164Y-84114805D01*
G37*
%TD.AperFunction*%
%TD*%
%TA.AperFunction,Conductor*%
%TO.N,USB_D-*%
G36*
X139807037Y-62414619D02*
G01*
X140532378Y-62790354D01*
X140538147Y-62797202D01*
X140537385Y-62806125D01*
X140533010Y-62810779D01*
X139805793Y-63246528D01*
X139796935Y-63247841D01*
X139794097Y-63246720D01*
X139356018Y-63003343D01*
X139350450Y-62996329D01*
X139350000Y-62993115D01*
X139350000Y-62805351D01*
X139353427Y-62797078D01*
X139354040Y-62796506D01*
X139794005Y-62416156D01*
X139802503Y-62413339D01*
X139807037Y-62414619D01*
G37*
%TD.AperFunction*%
%TD*%
%TA.AperFunction,Conductor*%
%TO.N,IO02*%
G36*
X141301156Y-58056890D02*
G01*
X141305058Y-58060087D01*
X141682478Y-58539323D01*
X141684904Y-58547943D01*
X141681559Y-58554835D01*
X141549791Y-58686603D01*
X141544322Y-58689689D01*
X141304686Y-58748843D01*
X141295861Y-58747515D01*
X140571253Y-58312477D01*
X140565925Y-58305282D01*
X140567245Y-58296425D01*
X140573637Y-58291327D01*
X141292230Y-58056206D01*
X141301156Y-58056890D01*
G37*
%TD.AperFunction*%
%TD*%
%TA.AperFunction,Conductor*%
%TO.N,Net-(U2-GPIO1{slash}ADC1_CH1{slash}XTAL_32K_N)*%
G36*
X139806872Y-56354118D02*
G01*
X140534251Y-56789964D01*
X140539586Y-56797156D01*
X140538273Y-56806014D01*
X140534251Y-56810036D01*
X139806872Y-57245881D01*
X139798014Y-57247194D01*
X139793675Y-57245080D01*
X139354517Y-56903513D01*
X139350090Y-56895729D01*
X139350000Y-56894278D01*
X139350000Y-56705721D01*
X139353427Y-56697448D01*
X139354509Y-56696492D01*
X139793675Y-56354918D01*
X139802309Y-56352544D01*
X139806872Y-56354118D01*
G37*
%TD.AperFunction*%
%TD*%
%TA.AperFunction,Conductor*%
%TO.N,RESET*%
G36*
X125277031Y-56688953D02*
G01*
X125282411Y-56693500D01*
X125702109Y-57357777D01*
X125703631Y-57366601D01*
X125700491Y-57372299D01*
X125572299Y-57500491D01*
X125564026Y-57503918D01*
X125557777Y-57502109D01*
X124893500Y-57082411D01*
X124888336Y-57075095D01*
X124888925Y-57068078D01*
X124997436Y-56803814D01*
X125003746Y-56797464D01*
X125268077Y-56688926D01*
X125277031Y-56688953D01*
G37*
%TD.AperFunction*%
%TD*%
%TA.AperFunction,Conductor*%
%TO.N,IO06*%
G36*
X124738519Y-72852275D02*
G01*
X124867724Y-72981480D01*
X124871151Y-72989753D01*
X124869793Y-72995224D01*
X123790272Y-75035877D01*
X123783374Y-75041588D01*
X123775464Y-75041220D01*
X123003785Y-74722562D01*
X122997447Y-74716238D01*
X122678779Y-73944533D01*
X122678788Y-73935580D01*
X122684120Y-73929728D01*
X124724776Y-72850205D01*
X124733690Y-72849366D01*
X124738519Y-72852275D01*
G37*
%TD.AperFunction*%
%TD*%
%TA.AperFunction,Conductor*%
%TO.N,BOOT*%
G36*
X134290875Y-81697941D02*
G01*
X134298191Y-81703105D01*
X134300000Y-81709354D01*
X134300000Y-81890645D01*
X134296573Y-81898918D01*
X134290875Y-81902058D01*
X133524388Y-82075001D01*
X133515564Y-82073479D01*
X133511017Y-82068099D01*
X133400883Y-81804509D01*
X133400857Y-81795556D01*
X133400862Y-81795542D01*
X133511018Y-81531898D01*
X133517369Y-81525588D01*
X133524387Y-81524998D01*
X134290875Y-81697941D01*
G37*
%TD.AperFunction*%
%TD*%
%TA.AperFunction,Conductor*%
%TO.N,BOOT*%
G36*
X122153054Y-69106899D02*
G01*
X122674508Y-69254718D01*
X122902194Y-69319261D01*
X122909219Y-69324814D01*
X122910259Y-69333708D01*
X122909826Y-69334961D01*
X122801606Y-69598516D01*
X122799029Y-69602373D01*
X122596018Y-69804035D01*
X122587733Y-69807434D01*
X122579623Y-69804130D01*
X122371747Y-69602373D01*
X122013546Y-69254716D01*
X122009997Y-69246497D01*
X122013300Y-69238173D01*
X122141591Y-69109881D01*
X122149863Y-69106455D01*
X122153054Y-69106899D01*
G37*
%TD.AperFunction*%
%TD*%
%TA.AperFunction,Conductor*%
%TO.N,USB_D+*%
G36*
X138472299Y-61499508D02*
G01*
X138600491Y-61627700D01*
X138603918Y-61635973D01*
X138602109Y-61642222D01*
X138182411Y-62306499D01*
X138175095Y-62311663D01*
X138168076Y-62311073D01*
X137903815Y-62202563D01*
X137897463Y-62196251D01*
X137897436Y-62196184D01*
X137788926Y-61931923D01*
X137788953Y-61922968D01*
X137793498Y-61917589D01*
X138457777Y-61497889D01*
X138466601Y-61496368D01*
X138472299Y-61499508D01*
G37*
%TD.AperFunction*%
%TD*%
%TA.AperFunction,Conductor*%
%TO.N,USB_D+*%
G36*
X130821747Y-88503427D02*
G01*
X130823429Y-88505553D01*
X131343156Y-89347219D01*
X131344835Y-89354609D01*
X130731634Y-95092144D01*
X130727347Y-95100006D01*
X130718757Y-95102535D01*
X130710895Y-95098248D01*
X130708366Y-95092144D01*
X130095164Y-89354609D01*
X130096842Y-89347221D01*
X130616571Y-88505552D01*
X130623833Y-88500314D01*
X130626526Y-88500000D01*
X130813474Y-88500000D01*
X130821747Y-88503427D01*
G37*
%TD.AperFunction*%
%TD*%
%TA.AperFunction,Conductor*%
%TO.N,IO02*%
G36*
X141301156Y-58056890D02*
G01*
X141305058Y-58060087D01*
X141682478Y-58539323D01*
X141684904Y-58547943D01*
X141681559Y-58554835D01*
X141549791Y-58686603D01*
X141544322Y-58689689D01*
X141304686Y-58748843D01*
X141295861Y-58747515D01*
X140571253Y-58312477D01*
X140565925Y-58305282D01*
X140567245Y-58296425D01*
X140573637Y-58291327D01*
X141292230Y-58056206D01*
X141301156Y-58056890D01*
G37*
%TD.AperFunction*%
%TD*%
%TA.AperFunction,Conductor*%
%TO.N,Net-(D2-A)*%
G36*
X135388552Y-84719915D02*
G01*
X135855359Y-85191771D01*
X135858741Y-85200063D01*
X135855359Y-85208229D01*
X135388552Y-85680084D01*
X135380297Y-85683555D01*
X135373010Y-85681059D01*
X134891976Y-85303513D01*
X134887584Y-85295709D01*
X134887500Y-85294309D01*
X134887500Y-85105690D01*
X134890927Y-85097417D01*
X134891966Y-85096494D01*
X135373011Y-84718939D01*
X135381634Y-84716528D01*
X135388552Y-84719915D01*
G37*
%TD.AperFunction*%
%TD*%
%TA.AperFunction,Conductor*%
%TO.N,IO05*%
G36*
X124738519Y-75392275D02*
G01*
X124867724Y-75521480D01*
X124871151Y-75529753D01*
X124869793Y-75535224D01*
X123790272Y-77575877D01*
X123783374Y-77581588D01*
X123775464Y-77581220D01*
X123003785Y-77262562D01*
X122997447Y-77256238D01*
X122678779Y-76484533D01*
X122678788Y-76475580D01*
X122684120Y-76469728D01*
X124724776Y-75390205D01*
X124733690Y-75389366D01*
X124738519Y-75392275D01*
G37*
%TD.AperFunction*%
%TD*%
%TA.AperFunction,Conductor*%
%TO.N,IO04*%
G36*
X124382172Y-78281209D02*
G01*
X124385722Y-78283641D01*
X124516358Y-78414277D01*
X124519785Y-78422550D01*
X124518994Y-78426780D01*
X123854323Y-80140932D01*
X123848137Y-80147407D01*
X123839184Y-80147611D01*
X123838947Y-80147516D01*
X123003784Y-79802562D01*
X122997446Y-79796236D01*
X122652483Y-78961052D01*
X122652492Y-78952097D01*
X122658830Y-78945771D01*
X122658996Y-78945704D01*
X124373222Y-78281005D01*
X124382172Y-78281209D01*
G37*
%TD.AperFunction*%
%TD*%
%TA.AperFunction,Conductor*%
%TO.N,Net-(U2-GPIO10)*%
G36*
X128398919Y-85603427D02*
G01*
X128402059Y-85609125D01*
X128575001Y-86375611D01*
X128573479Y-86384435D01*
X128568099Y-86388982D01*
X128304511Y-86499115D01*
X128295556Y-86499142D01*
X128295489Y-86499115D01*
X128031900Y-86388982D01*
X128025588Y-86382630D01*
X128024998Y-86375611D01*
X128197941Y-85609125D01*
X128203105Y-85601809D01*
X128209354Y-85600000D01*
X128390646Y-85600000D01*
X128398919Y-85603427D01*
G37*
%TD.AperFunction*%
%TD*%
%TA.AperFunction,Conductor*%
%TO.N,Net-(D2-A)*%
G36*
X134220823Y-84693987D02*
G01*
X134733029Y-85096487D01*
X134737417Y-85104292D01*
X134737500Y-85105685D01*
X134737500Y-85294314D01*
X134734073Y-85302587D01*
X134733029Y-85303513D01*
X134220823Y-85706012D01*
X134212201Y-85708430D01*
X134205228Y-85704992D01*
X133812704Y-85303513D01*
X133719495Y-85208178D01*
X133716163Y-85199868D01*
X133719495Y-85191821D01*
X134205228Y-84695006D01*
X134213462Y-84691487D01*
X134220823Y-84693987D01*
G37*
%TD.AperFunction*%
%TD*%
%TA.AperFunction,Conductor*%
%TO.N,Net-(U2-GPIO0{slash}ADC1_CH0{slash}XTAL_32K_P)*%
G36*
X124251960Y-85387186D02*
G01*
X124258281Y-85393530D01*
X124258585Y-85401618D01*
X123902634Y-86491931D01*
X123896809Y-86498732D01*
X123891512Y-86500000D01*
X123708488Y-86500000D01*
X123700215Y-86496573D01*
X123697366Y-86491931D01*
X123607635Y-86217078D01*
X123341414Y-85401616D01*
X123342104Y-85392690D01*
X123348037Y-85387187D01*
X123795504Y-85200871D01*
X123804455Y-85200855D01*
X124251960Y-85387186D01*
G37*
%TD.AperFunction*%
%TD*%
%TA.AperFunction,Conductor*%
%TO.N,IO08*%
G36*
X126187252Y-79753427D02*
G01*
X126188500Y-79754900D01*
X126429247Y-80091947D01*
X126431267Y-80100670D01*
X126428011Y-80107008D01*
X126093285Y-80442691D01*
X126085017Y-80446130D01*
X126076739Y-80442715D01*
X126076715Y-80442691D01*
X125741988Y-80107008D01*
X125738573Y-80098730D01*
X125740752Y-80091947D01*
X125981500Y-79754900D01*
X125989098Y-79750159D01*
X125991021Y-79750000D01*
X126178979Y-79750000D01*
X126187252Y-79753427D01*
G37*
%TD.AperFunction*%
%TD*%
%TA.AperFunction,Conductor*%
%TO.N,USB_D+*%
G36*
X130277031Y-87288953D02*
G01*
X130282411Y-87293500D01*
X130702109Y-87957777D01*
X130703631Y-87966601D01*
X130700491Y-87972299D01*
X130572299Y-88100491D01*
X130564026Y-88103918D01*
X130557777Y-88102109D01*
X129893500Y-87682411D01*
X129888336Y-87675095D01*
X129888925Y-87668078D01*
X129997436Y-87403814D01*
X130003746Y-87397464D01*
X130268077Y-87288926D01*
X130277031Y-87288953D01*
G37*
%TD.AperFunction*%
%TD*%
%TA.AperFunction,Conductor*%
%TO.N,IO08*%
G36*
X126188127Y-79199960D02*
G01*
X126196388Y-79203414D01*
X126199787Y-79211699D01*
X126199785Y-79211871D01*
X126185208Y-80018772D01*
X126181632Y-80026982D01*
X126173510Y-80030261D01*
X125992191Y-80030261D01*
X125983918Y-80026834D01*
X125981752Y-80023845D01*
X125979184Y-80018772D01*
X125628518Y-79326031D01*
X125627840Y-79317104D01*
X125633674Y-79310310D01*
X125634431Y-79309960D01*
X125897822Y-79199909D01*
X125902362Y-79199007D01*
X126188127Y-79199960D01*
G37*
%TD.AperFunction*%
%TD*%
%TA.AperFunction,Conductor*%
%TO.N,IO08*%
G36*
X122306872Y-63854118D02*
G01*
X123034251Y-64289964D01*
X123039586Y-64297156D01*
X123038273Y-64306014D01*
X123034251Y-64310036D01*
X122306872Y-64745881D01*
X122298014Y-64747194D01*
X122293675Y-64745080D01*
X121854517Y-64403513D01*
X121850090Y-64395729D01*
X121850000Y-64394278D01*
X121850000Y-64205721D01*
X121853427Y-64197448D01*
X121854509Y-64196492D01*
X122293675Y-63854918D01*
X122302309Y-63852544D01*
X122306872Y-63854118D01*
G37*
%TD.AperFunction*%
%TD*%
%TA.AperFunction,Conductor*%
%TO.N,+3V3*%
G36*
X140006183Y-76666166D02*
G01*
X140597265Y-77255860D01*
X140600702Y-77264129D01*
X140600702Y-77264153D01*
X140600009Y-78098092D01*
X140596575Y-78106362D01*
X140588299Y-78109782D01*
X140588093Y-78109780D01*
X138475430Y-78070797D01*
X138467373Y-78067372D01*
X138338762Y-77938761D01*
X138335335Y-77930488D01*
X138338762Y-77922215D01*
X138339943Y-77921183D01*
X139990838Y-76665137D01*
X139999495Y-76662855D01*
X140006183Y-76666166D01*
G37*
%TD.AperFunction*%
%TD*%
%TA.AperFunction,Conductor*%
%TO.N,IO08*%
G36*
X122472394Y-64197205D02*
G01*
X122479005Y-64203244D01*
X122480109Y-64208206D01*
X122480109Y-64389554D01*
X122476682Y-64397827D01*
X122469730Y-64401179D01*
X121612977Y-64498525D01*
X121604370Y-64496054D01*
X121600031Y-64488221D01*
X121599956Y-64486939D01*
X121599007Y-64202362D01*
X121599909Y-64197822D01*
X121710507Y-63933121D01*
X121716859Y-63926810D01*
X121725286Y-63926632D01*
X122472394Y-64197205D01*
G37*
%TD.AperFunction*%
%TD*%
%TA.AperFunction,Conductor*%
%TO.N,+3V3*%
G36*
X131989091Y-83990927D02*
G01*
X131990895Y-83993254D01*
X132376601Y-84646924D01*
X132377854Y-84655791D01*
X132375209Y-84660710D01*
X131896185Y-85191378D01*
X131888098Y-85195223D01*
X131879660Y-85192223D01*
X131878815Y-85191378D01*
X131399790Y-84660710D01*
X131396790Y-84652272D01*
X131398396Y-84646928D01*
X131784105Y-83993254D01*
X131791261Y-83987870D01*
X131794182Y-83987500D01*
X131980818Y-83987500D01*
X131989091Y-83990927D01*
G37*
%TD.AperFunction*%
%TD*%
%TA.AperFunction,Conductor*%
%TO.N,Net-(U2-GPIO10)*%
G36*
X140090875Y-67197941D02*
G01*
X140098191Y-67203105D01*
X140100000Y-67209354D01*
X140100000Y-67390645D01*
X140096573Y-67398918D01*
X140090875Y-67402058D01*
X139324388Y-67575001D01*
X139315564Y-67573479D01*
X139311017Y-67568099D01*
X139200883Y-67304509D01*
X139200857Y-67295556D01*
X139200862Y-67295542D01*
X139311018Y-67031898D01*
X139317369Y-67025588D01*
X139324387Y-67024998D01*
X140090875Y-67197941D01*
G37*
%TD.AperFunction*%
%TD*%
%TA.AperFunction,Conductor*%
%TO.N,USB_D-*%
G36*
X133631922Y-87788925D02*
G01*
X133643062Y-87793500D01*
X133896184Y-87897436D01*
X133902536Y-87903748D01*
X133902563Y-87903815D01*
X134011073Y-88168076D01*
X134011046Y-88177031D01*
X134006499Y-88182411D01*
X133342222Y-88602109D01*
X133333398Y-88603631D01*
X133327700Y-88600491D01*
X133199508Y-88472299D01*
X133196081Y-88464026D01*
X133197890Y-88457777D01*
X133617589Y-87793498D01*
X133624904Y-87788336D01*
X133631922Y-87788925D01*
G37*
%TD.AperFunction*%
%TD*%
%TA.AperFunction,Conductor*%
%TO.N,USB_D+*%
G36*
X139806872Y-60854118D02*
G01*
X140534251Y-61289964D01*
X140539586Y-61297156D01*
X140538273Y-61306014D01*
X140534251Y-61310036D01*
X139806872Y-61745881D01*
X139798014Y-61747194D01*
X139793675Y-61745080D01*
X139354517Y-61403513D01*
X139350090Y-61395729D01*
X139350000Y-61394278D01*
X139350000Y-61205721D01*
X139353427Y-61197448D01*
X139354509Y-61196492D01*
X139793675Y-60854918D01*
X139802309Y-60852544D01*
X139806872Y-60854118D01*
G37*
%TD.AperFunction*%
%TD*%
%TA.AperFunction,Conductor*%
%TO.N,Net-(U2-GPIO1{slash}ADC1_CH1{slash}XTAL_32K_N)*%
G36*
X126149509Y-85613373D02*
G01*
X126152464Y-85618356D01*
X126374219Y-86375145D01*
X126373257Y-86384048D01*
X126367502Y-86389231D01*
X126102182Y-86500088D01*
X126097632Y-86500992D01*
X125813789Y-86500045D01*
X125805527Y-86496591D01*
X125802128Y-86488306D01*
X125802290Y-86486410D01*
X125948356Y-85619702D01*
X125953110Y-85612113D01*
X125959893Y-85609946D01*
X126141236Y-85609946D01*
X126149509Y-85613373D01*
G37*
%TD.AperFunction*%
%TD*%
%TA.AperFunction,Conductor*%
%TO.N,Net-(U2-GPIO0{slash}ADC1_CH0{slash}XTAL_32K_P)*%
G36*
X139690875Y-55297941D02*
G01*
X139698191Y-55303105D01*
X139700000Y-55309354D01*
X139700000Y-55490645D01*
X139696573Y-55498918D01*
X139690875Y-55502058D01*
X138924388Y-55675001D01*
X138915564Y-55673479D01*
X138911017Y-55668099D01*
X138800883Y-55404509D01*
X138800857Y-55395556D01*
X138800862Y-55395542D01*
X138911018Y-55131898D01*
X138917369Y-55125588D01*
X138924387Y-55124998D01*
X139690875Y-55297941D01*
G37*
%TD.AperFunction*%
%TD*%
%TA.AperFunction,Conductor*%
%TO.N,+3V3*%
G36*
X124484435Y-55026520D02*
G01*
X124488982Y-55031900D01*
X124599115Y-55295489D01*
X124599142Y-55304444D01*
X124599115Y-55304511D01*
X124488982Y-55568099D01*
X124482630Y-55574411D01*
X124475611Y-55575001D01*
X123709125Y-55402058D01*
X123701809Y-55396894D01*
X123700000Y-55390645D01*
X123700000Y-55209354D01*
X123703427Y-55201081D01*
X123709124Y-55197941D01*
X124475612Y-55024998D01*
X124484435Y-55026520D01*
G37*
%TD.AperFunction*%
%TD*%
%TA.AperFunction,Conductor*%
%TO.N,IO07*%
G36*
X124738519Y-70312275D02*
G01*
X124867724Y-70441480D01*
X124871151Y-70449753D01*
X124869793Y-70455224D01*
X123790272Y-72495877D01*
X123783374Y-72501588D01*
X123775464Y-72501220D01*
X123003785Y-72182562D01*
X122997447Y-72176238D01*
X122678779Y-71404533D01*
X122678788Y-71395580D01*
X122684120Y-71389728D01*
X124724776Y-70310205D01*
X124733690Y-70309366D01*
X124738519Y-70312275D01*
G37*
%TD.AperFunction*%
%TD*%
%TA.AperFunction,Conductor*%
%TO.N,RESET*%
G36*
X123806325Y-56354919D02*
G01*
X124245483Y-56696487D01*
X124249910Y-56704270D01*
X124250000Y-56705721D01*
X124250000Y-56894278D01*
X124246573Y-56902551D01*
X124245483Y-56903513D01*
X123806324Y-57245080D01*
X123797690Y-57247455D01*
X123793127Y-57245881D01*
X123397828Y-57009018D01*
X123065747Y-56810034D01*
X123060413Y-56802844D01*
X123061726Y-56793986D01*
X123065746Y-56789965D01*
X123793127Y-56354117D01*
X123801985Y-56352805D01*
X123806325Y-56354919D01*
G37*
%TD.AperFunction*%
%TD*%
%TA.AperFunction,Conductor*%
%TO.N,IO03*%
G36*
X139806872Y-59354118D02*
G01*
X140534251Y-59789964D01*
X140539586Y-59797156D01*
X140538273Y-59806014D01*
X140534251Y-59810036D01*
X139806872Y-60245881D01*
X139798014Y-60247194D01*
X139793675Y-60245080D01*
X139354517Y-59903513D01*
X139350090Y-59895729D01*
X139350000Y-59894278D01*
X139350000Y-59705721D01*
X139353427Y-59697448D01*
X139354509Y-59696492D01*
X139793675Y-59354918D01*
X139802309Y-59352544D01*
X139806872Y-59354118D01*
G37*
%TD.AperFunction*%
%TD*%
%TA.AperFunction,Conductor*%
%TO.N,BOOT*%
G36*
X135258285Y-80209076D02*
G01*
X135260829Y-80211335D01*
X135725909Y-80764650D01*
X135728609Y-80773188D01*
X135727305Y-80777629D01*
X135360430Y-81474338D01*
X135353544Y-81480062D01*
X135344627Y-81479239D01*
X135341805Y-81477160D01*
X135212112Y-81347467D01*
X135211179Y-81346415D01*
X134828406Y-80858385D01*
X134825997Y-80849760D01*
X134827824Y-80844753D01*
X135242086Y-80212450D01*
X135249487Y-80207409D01*
X135258285Y-80209076D01*
G37*
%TD.AperFunction*%
%TD*%
%TA.AperFunction,Conductor*%
%TO.N,+3V3*%
G36*
X123806325Y-54854919D02*
G01*
X124245483Y-55196487D01*
X124249910Y-55204270D01*
X124250000Y-55205721D01*
X124250000Y-55394278D01*
X124246573Y-55402551D01*
X124245483Y-55403513D01*
X123806324Y-55745080D01*
X123797690Y-55747455D01*
X123793127Y-55745881D01*
X123397828Y-55509018D01*
X123065747Y-55310034D01*
X123060413Y-55302844D01*
X123061726Y-55293986D01*
X123065746Y-55289965D01*
X123793127Y-54854117D01*
X123801985Y-54852805D01*
X123806325Y-54854919D01*
G37*
%TD.AperFunction*%
%TD*%
%TA.AperFunction,Conductor*%
%TO.N,IO05*%
G36*
X123806325Y-59354919D02*
G01*
X124245483Y-59696487D01*
X124249910Y-59704270D01*
X124250000Y-59705721D01*
X124250000Y-59894278D01*
X124246573Y-59902551D01*
X124245483Y-59903513D01*
X123806324Y-60245080D01*
X123797690Y-60247455D01*
X123793127Y-60245881D01*
X123397828Y-60009018D01*
X123065747Y-59810034D01*
X123060413Y-59802844D01*
X123061726Y-59793986D01*
X123065746Y-59789965D01*
X123793127Y-59354117D01*
X123801985Y-59352805D01*
X123806325Y-59354919D01*
G37*
%TD.AperFunction*%
%TD*%
%TA.AperFunction,Conductor*%
%TO.N,BOOT*%
G36*
X122307069Y-65420275D02*
G01*
X123031896Y-65789705D01*
X123037711Y-65796515D01*
X123037007Y-65805442D01*
X123032605Y-65810160D01*
X122307043Y-66245771D01*
X122298186Y-66247091D01*
X122293631Y-66244811D01*
X121965103Y-65977149D01*
X121964220Y-65976351D01*
X121832050Y-65844181D01*
X121828623Y-65835908D01*
X121832050Y-65827635D01*
X121832572Y-65827145D01*
X122294038Y-65421907D01*
X122302513Y-65419024D01*
X122307069Y-65420275D01*
G37*
%TD.AperFunction*%
%TD*%
%TA.AperFunction,Conductor*%
%TO.N,IO04*%
G36*
X123806325Y-57854919D02*
G01*
X124245483Y-58196487D01*
X124249910Y-58204270D01*
X124250000Y-58205721D01*
X124250000Y-58394278D01*
X124246573Y-58402551D01*
X124245483Y-58403513D01*
X123806324Y-58745080D01*
X123797690Y-58747455D01*
X123793127Y-58745881D01*
X123397828Y-58509018D01*
X123065747Y-58310034D01*
X123060413Y-58302844D01*
X123061726Y-58293986D01*
X123065746Y-58289965D01*
X123793127Y-57854117D01*
X123801985Y-57852805D01*
X123806325Y-57854919D01*
G37*
%TD.AperFunction*%
%TD*%
%TA.AperFunction,Conductor*%
%TO.N,RESET*%
G36*
X124884435Y-56526520D02*
G01*
X124888982Y-56531900D01*
X124999115Y-56795489D01*
X124999142Y-56804444D01*
X124999115Y-56804511D01*
X124888982Y-57068099D01*
X124882630Y-57074411D01*
X124875611Y-57075001D01*
X124109125Y-56902058D01*
X124101809Y-56896894D01*
X124100000Y-56890645D01*
X124100000Y-56709354D01*
X124103427Y-56701081D01*
X124109124Y-56697941D01*
X124875612Y-56524998D01*
X124884435Y-56526520D01*
G37*
%TD.AperFunction*%
%TD*%
%TA.AperFunction,Conductor*%
%TO.N,+5V*%
G36*
X126092566Y-81557576D02*
G01*
X126092863Y-81557863D01*
X126427166Y-81892166D01*
X126430593Y-81900439D01*
X126427604Y-81908249D01*
X126201888Y-82160010D01*
X126201450Y-82160473D01*
X126069767Y-82292156D01*
X126061494Y-82295583D01*
X126053221Y-82292156D01*
X126052158Y-82290934D01*
X125763391Y-81907837D01*
X125761149Y-81899168D01*
X125764174Y-81892820D01*
X126076030Y-81558159D01*
X126084178Y-81554443D01*
X126092566Y-81557576D01*
G37*
%TD.AperFunction*%
%TD*%
%TA.AperFunction,Conductor*%
%TO.N,+5V*%
G36*
X129968099Y-80211017D02*
G01*
X129974411Y-80217369D01*
X129975001Y-80224388D01*
X129802059Y-80990875D01*
X129796895Y-80998191D01*
X129790646Y-81000000D01*
X129609354Y-81000000D01*
X129601081Y-80996573D01*
X129597941Y-80990875D01*
X129424998Y-80224388D01*
X129426520Y-80215564D01*
X129431897Y-80211018D01*
X129695490Y-80100883D01*
X129704444Y-80100857D01*
X129968099Y-80211017D01*
G37*
%TD.AperFunction*%
%TD*%
%TA.AperFunction,Conductor*%
%TO.N,Net-(U2-GPIO0{slash}ADC1_CH0{slash}XTAL_32K_P)*%
G36*
X139807037Y-54914619D02*
G01*
X140532378Y-55290354D01*
X140538147Y-55297202D01*
X140537385Y-55306125D01*
X140533010Y-55310779D01*
X139805793Y-55746528D01*
X139796935Y-55747841D01*
X139794097Y-55746720D01*
X139356018Y-55503343D01*
X139350450Y-55496329D01*
X139350000Y-55493115D01*
X139350000Y-55305351D01*
X139353427Y-55297078D01*
X139354040Y-55296506D01*
X139794005Y-54916156D01*
X139802503Y-54913339D01*
X139807037Y-54914619D01*
G37*
%TD.AperFunction*%
%TD*%
%TA.AperFunction,Conductor*%
%TO.N,IO07*%
G36*
X123806172Y-62376700D02*
G01*
X124295584Y-62756510D01*
X124300019Y-62764289D01*
X124297654Y-62772926D01*
X124296684Y-62774026D01*
X124164766Y-62905944D01*
X124164521Y-62906182D01*
X123806449Y-63243916D01*
X123798079Y-63247100D01*
X123792399Y-63245436D01*
X123066448Y-62809592D01*
X123061119Y-62802396D01*
X123062439Y-62793539D01*
X123066678Y-62789395D01*
X123793211Y-62375774D01*
X123802096Y-62374660D01*
X123806172Y-62376700D01*
G37*
%TD.AperFunction*%
%TD*%
%TA.AperFunction,Conductor*%
%TO.N,BOOT*%
G36*
X134798287Y-77372306D02*
G01*
X134804545Y-77378499D01*
X135221143Y-78350561D01*
X135221252Y-78359515D01*
X135218662Y-78363443D01*
X135088020Y-78494085D01*
X135079747Y-78497512D01*
X135075921Y-78496869D01*
X134226899Y-78203115D01*
X134220201Y-78197171D01*
X134219123Y-78190549D01*
X134298418Y-77581017D01*
X134302883Y-77573255D01*
X134305559Y-77571709D01*
X134789333Y-77372291D01*
X134798287Y-77372306D01*
G37*
%TD.AperFunction*%
%TD*%
%TA.AperFunction,Conductor*%
%TO.N,Net-(U2-GPIO0{slash}ADC1_CH0{slash}XTAL_32K_P)*%
G36*
X123898919Y-85603427D02*
G01*
X123902059Y-85609125D01*
X124075001Y-86375611D01*
X124073479Y-86384435D01*
X124068099Y-86388982D01*
X123804511Y-86499115D01*
X123795556Y-86499142D01*
X123795489Y-86499115D01*
X123531900Y-86388982D01*
X123525588Y-86382630D01*
X123524998Y-86375611D01*
X123697941Y-85609125D01*
X123703105Y-85601809D01*
X123709354Y-85600000D01*
X123890646Y-85600000D01*
X123898919Y-85603427D01*
G37*
%TD.AperFunction*%
%TD*%
%TA.AperFunction,Conductor*%
%TO.N,RESET*%
G36*
X128524076Y-76653129D02*
G01*
X128532124Y-76655914D01*
X129373100Y-76946884D01*
X129379798Y-76952828D01*
X129380876Y-76959450D01*
X129301581Y-77568982D01*
X129297116Y-77576744D01*
X129294438Y-77578290D01*
X128810667Y-77777708D01*
X128801712Y-77777693D01*
X128795454Y-77771500D01*
X128378855Y-76799437D01*
X128378747Y-76790484D01*
X128381335Y-76786558D01*
X128511980Y-76655913D01*
X128520252Y-76652487D01*
X128524076Y-76653129D01*
G37*
%TD.AperFunction*%
%TD*%
%TA.AperFunction,Conductor*%
%TO.N,GND*%
G36*
X136201000Y-69800000D02*
G01*
X136200000Y-70100000D01*
X135304973Y-69925000D01*
X135304973Y-69725000D01*
X136085195Y-69522836D01*
X136201000Y-69800000D01*
G37*
%TD.AperFunction*%
%TD*%
%TA.AperFunction,Conductor*%
%TO.N,USB_D-*%
G36*
X139690875Y-62797941D02*
G01*
X139698191Y-62803105D01*
X139700000Y-62809354D01*
X139700000Y-62990645D01*
X139696573Y-62998918D01*
X139690875Y-63002058D01*
X138924388Y-63175001D01*
X138915564Y-63173479D01*
X138911017Y-63168099D01*
X138800883Y-62904509D01*
X138800857Y-62895556D01*
X138800862Y-62895542D01*
X138911018Y-62631898D01*
X138917369Y-62625588D01*
X138924387Y-62624998D01*
X139690875Y-62797941D01*
G37*
%TD.AperFunction*%
%TD*%
%TA.AperFunction,Conductor*%
%TO.N,IO02*%
G36*
X142290776Y-70296168D02*
G01*
X142294203Y-70304441D01*
X142293315Y-70308911D01*
X141389766Y-72494473D01*
X141383439Y-72500809D01*
X141374488Y-72500817D01*
X140604488Y-72182853D01*
X140598150Y-72176529D01*
X140278563Y-71403994D01*
X140278567Y-71395039D01*
X140283327Y-71389505D01*
X142097211Y-70294425D01*
X142103258Y-70292741D01*
X142282503Y-70292741D01*
X142290776Y-70296168D01*
G37*
%TD.AperFunction*%
%TD*%
%TA.AperFunction,Conductor*%
%TO.N,USB_D-*%
G36*
X133114547Y-88560578D02*
G01*
X133245966Y-88691997D01*
X133248586Y-88695999D01*
X133504215Y-89347960D01*
X133504956Y-89353476D01*
X132893991Y-95063342D01*
X132889703Y-95071203D01*
X132881112Y-95073731D01*
X132873251Y-95069443D01*
X132870680Y-95062826D01*
X132502319Y-89165787D01*
X132505223Y-89157319D01*
X132505683Y-89156827D01*
X133098001Y-88560631D01*
X133106263Y-88557178D01*
X133114547Y-88560578D01*
G37*
%TD.AperFunction*%
%TD*%
%TA.AperFunction,Conductor*%
%TO.N,GND*%
G36*
X130400707Y-62599293D02*
G01*
X130514805Y-62877164D01*
X129834315Y-63307106D01*
X129692894Y-63165685D01*
X130122836Y-62485195D01*
X130400707Y-62599293D01*
G37*
%TD.AperFunction*%
%TD*%
%TA.AperFunction,Conductor*%
%TO.N,Net-(U2-GPIO10)*%
G36*
X128751960Y-85387186D02*
G01*
X128758281Y-85393530D01*
X128758585Y-85401618D01*
X128402634Y-86491931D01*
X128396809Y-86498732D01*
X128391512Y-86500000D01*
X128208488Y-86500000D01*
X128200215Y-86496573D01*
X128197366Y-86491931D01*
X128107635Y-86217078D01*
X127841414Y-85401616D01*
X127842104Y-85392690D01*
X127848037Y-85387187D01*
X128295504Y-85200871D01*
X128304455Y-85200855D01*
X128751960Y-85387186D01*
G37*
%TD.AperFunction*%
%TD*%
%TA.AperFunction,Conductor*%
%TO.N,Net-(U2-GPIO1{slash}ADC1_CH1{slash}XTAL_32K_N)*%
G36*
X126501924Y-85387184D02*
G01*
X126508251Y-85393521D01*
X126508553Y-85401644D01*
X126171580Y-86426641D01*
X126168738Y-86431260D01*
X126042147Y-86557851D01*
X126033874Y-86561278D01*
X126025601Y-86557851D01*
X126022918Y-86553681D01*
X125592012Y-85401905D01*
X125592322Y-85392956D01*
X125598470Y-85387007D01*
X126044804Y-85201161D01*
X126053754Y-85201145D01*
X126501924Y-85387184D01*
G37*
%TD.AperFunction*%
%TD*%
%TA.AperFunction,Conductor*%
%TO.N,+3V3*%
G36*
X132002178Y-79599910D02*
G01*
X132266717Y-79710440D01*
X132273029Y-79716792D01*
X132273144Y-79725389D01*
X131990366Y-80470075D01*
X131984225Y-80476593D01*
X131979428Y-80477622D01*
X131798091Y-80477622D01*
X131789818Y-80474195D01*
X131786449Y-80467083D01*
X131712501Y-79725389D01*
X131701277Y-79612815D01*
X131703866Y-79604245D01*
X131711758Y-79600015D01*
X131712878Y-79599957D01*
X131997636Y-79599007D01*
X132002178Y-79599910D01*
G37*
%TD.AperFunction*%
%TD*%
%TA.AperFunction,Conductor*%
%TO.N,BOOT*%
G36*
X135351547Y-78978427D02*
G01*
X135353385Y-78980813D01*
X135726826Y-79622211D01*
X135728027Y-79631085D01*
X135725668Y-79635630D01*
X135258953Y-80190358D01*
X135251004Y-80194483D01*
X135242468Y-80191779D01*
X135241047Y-80190358D01*
X134774331Y-79635630D01*
X134771627Y-79627094D01*
X134773171Y-79622215D01*
X135146615Y-78980812D01*
X135153739Y-78975388D01*
X135156726Y-78975000D01*
X135343274Y-78975000D01*
X135351547Y-78978427D01*
G37*
%TD.AperFunction*%
%TD*%
%TA.AperFunction,Conductor*%
%TO.N,IO03*%
G36*
X138875224Y-72850206D02*
G01*
X140915877Y-73929727D01*
X140921588Y-73936625D01*
X140921220Y-73944535D01*
X140602562Y-74716214D01*
X140596237Y-74722553D01*
X140596214Y-74722562D01*
X139824535Y-75041220D01*
X139815580Y-75041211D01*
X139809727Y-75035877D01*
X138730206Y-72995224D01*
X138729366Y-72986309D01*
X138732273Y-72981482D01*
X138861481Y-72852274D01*
X138869753Y-72848848D01*
X138875224Y-72850206D01*
G37*
%TD.AperFunction*%
%TD*%
%TA.AperFunction,Conductor*%
%TO.N,+5V*%
G36*
X135141747Y-88503427D02*
G01*
X135143429Y-88505553D01*
X135663174Y-89347248D01*
X135664859Y-89354578D01*
X135051640Y-95386503D01*
X135047394Y-95394387D01*
X135038817Y-95396960D01*
X135030933Y-95392714D01*
X135028360Y-95386503D01*
X134998433Y-95092130D01*
X134415140Y-89354576D01*
X134416824Y-89347250D01*
X134936571Y-88505552D01*
X134943833Y-88500314D01*
X134946526Y-88500000D01*
X135133474Y-88500000D01*
X135141747Y-88503427D01*
G37*
%TD.AperFunction*%
%TD*%
%TA.AperFunction,Conductor*%
%TO.N,GND*%
G36*
X121505703Y-69455384D02*
G01*
X121512181Y-69461416D01*
X121633024Y-69582259D01*
X121643488Y-69594154D01*
X121661484Y-69617459D01*
X121889807Y-69839061D01*
X121891126Y-69840361D01*
X122015139Y-69964374D01*
X122015160Y-69964397D01*
X122131280Y-70080517D01*
X122131283Y-70080519D01*
X122131284Y-70080520D01*
X122135990Y-70083237D01*
X122160352Y-70101643D01*
X122227559Y-70166871D01*
X122227577Y-70166886D01*
X122227589Y-70166898D01*
X122264737Y-70199575D01*
X122266631Y-70200943D01*
X122281701Y-70213779D01*
X122297738Y-70229816D01*
X122450478Y-70325789D01*
X122618519Y-70384589D01*
X122620745Y-70385368D01*
X122620750Y-70385369D01*
X122799996Y-70405565D01*
X122800000Y-70405565D01*
X122800004Y-70405565D01*
X122917064Y-70392375D01*
X122979255Y-70385368D01*
X122979267Y-70385363D01*
X122981202Y-70384923D01*
X122982503Y-70385002D01*
X122986175Y-70384589D01*
X122986247Y-70385231D01*
X123050941Y-70389193D01*
X123107301Y-70430489D01*
X123132388Y-70495700D01*
X123118237Y-70564121D01*
X123069340Y-70614030D01*
X123066785Y-70615421D01*
X122447729Y-70942907D01*
X122416860Y-70960435D01*
X122416859Y-70960433D01*
X122403820Y-70967889D01*
X122322173Y-71005963D01*
X122322169Y-71005965D01*
X122128597Y-71141505D01*
X121961505Y-71308597D01*
X121825965Y-71502169D01*
X121825964Y-71502171D01*
X121726098Y-71716335D01*
X121726094Y-71716344D01*
X121664938Y-71944586D01*
X121664936Y-71944596D01*
X121644341Y-72179999D01*
X121644341Y-72180000D01*
X121664936Y-72415403D01*
X121664938Y-72415413D01*
X121726094Y-72643655D01*
X121726096Y-72643659D01*
X121726097Y-72643663D01*
X121759548Y-72715398D01*
X121825965Y-72857830D01*
X121825967Y-72857834D01*
X121961501Y-73051395D01*
X121961506Y-73051402D01*
X122128597Y-73218493D01*
X122128603Y-73218498D01*
X122314158Y-73348425D01*
X122357783Y-73403002D01*
X122364977Y-73472500D01*
X122333454Y-73534855D01*
X122314158Y-73551575D01*
X122128597Y-73681505D01*
X121961505Y-73848597D01*
X121825965Y-74042169D01*
X121825964Y-74042171D01*
X121726098Y-74256335D01*
X121726094Y-74256344D01*
X121664938Y-74484586D01*
X121664936Y-74484596D01*
X121644341Y-74719999D01*
X121644341Y-74720000D01*
X121664936Y-74955403D01*
X121664938Y-74955413D01*
X121726094Y-75183655D01*
X121726096Y-75183659D01*
X121726097Y-75183663D01*
X121767408Y-75272254D01*
X121825965Y-75397830D01*
X121825967Y-75397834D01*
X121961501Y-75591395D01*
X121961506Y-75591402D01*
X122128597Y-75758493D01*
X122128603Y-75758498D01*
X122314158Y-75888425D01*
X122357783Y-75943002D01*
X122364977Y-76012500D01*
X122333454Y-76074855D01*
X122314158Y-76091575D01*
X122128597Y-76221505D01*
X121961505Y-76388597D01*
X121825965Y-76582169D01*
X121825964Y-76582171D01*
X121726098Y-76796335D01*
X121726094Y-76796344D01*
X121664938Y-77024586D01*
X121664936Y-77024596D01*
X121644341Y-77259999D01*
X121644341Y-77260000D01*
X121664936Y-77495403D01*
X121664938Y-77495413D01*
X121726094Y-77723655D01*
X121726096Y-77723659D01*
X121726097Y-77723663D01*
X121746870Y-77768210D01*
X121825965Y-77937830D01*
X121825967Y-77937834D01*
X121911272Y-78059661D01*
X121961501Y-78131396D01*
X121961506Y-78131402D01*
X122083430Y-78253326D01*
X122116915Y-78314649D01*
X122111931Y-78384341D01*
X122070059Y-78440274D01*
X122039083Y-78457189D01*
X121907669Y-78506203D01*
X121907664Y-78506206D01*
X121792455Y-78592452D01*
X121792452Y-78592455D01*
X121706206Y-78707664D01*
X121706202Y-78707671D01*
X121655908Y-78842517D01*
X121649501Y-78902116D01*
X121649500Y-78902135D01*
X121649500Y-80697870D01*
X121649501Y-80697876D01*
X121655908Y-80757483D01*
X121706202Y-80892328D01*
X121706206Y-80892335D01*
X121792452Y-81007544D01*
X121792455Y-81007547D01*
X121907664Y-81093793D01*
X121907671Y-81093797D01*
X122042517Y-81144091D01*
X122042516Y-81144091D01*
X122049444Y-81144835D01*
X122102127Y-81150500D01*
X123897872Y-81150499D01*
X123957483Y-81144091D01*
X124092331Y-81093796D01*
X124207546Y-81007546D01*
X124293796Y-80892331D01*
X124344091Y-80757483D01*
X124350500Y-80697873D01*
X124350499Y-80282749D01*
X124358886Y-80237921D01*
X124409649Y-80107007D01*
X124949567Y-78714583D01*
X124977496Y-78671737D01*
X125030781Y-78618452D01*
X125092102Y-78584969D01*
X125161794Y-78589953D01*
X125217727Y-78631825D01*
X125242144Y-78697289D01*
X125227292Y-78765562D01*
X125223454Y-78772107D01*
X125174211Y-78850476D01*
X125114631Y-79020745D01*
X125114630Y-79020750D01*
X125094435Y-79199996D01*
X125094435Y-79200003D01*
X125114630Y-79379249D01*
X125114633Y-79379262D01*
X125174209Y-79549519D01*
X125175603Y-79551737D01*
X125181239Y-79561702D01*
X125283584Y-79763884D01*
X125296299Y-79832587D01*
X125289132Y-79863222D01*
X125270133Y-79914159D01*
X125265413Y-79925161D01*
X125259477Y-79937337D01*
X125257292Y-79944138D01*
X125255581Y-79950971D01*
X125251481Y-79964169D01*
X125240909Y-79992516D01*
X125240908Y-79992517D01*
X125234501Y-80052116D01*
X125234500Y-80052135D01*
X125234500Y-80847870D01*
X125234501Y-80847876D01*
X125240908Y-80907482D01*
X125245590Y-80920034D01*
X125258985Y-80955949D01*
X125259253Y-80956666D01*
X125264237Y-81026358D01*
X125259253Y-81043331D01*
X125240909Y-81092514D01*
X125240908Y-81092516D01*
X125234675Y-81150498D01*
X125234501Y-81152123D01*
X125234500Y-81152135D01*
X125234500Y-81947870D01*
X125234501Y-81947876D01*
X125240908Y-82007483D01*
X125291202Y-82142328D01*
X125291203Y-82142329D01*
X125291204Y-82142331D01*
X125377452Y-82257543D01*
X125377455Y-82257547D01*
X125401259Y-82275367D01*
X125425967Y-82299993D01*
X125558231Y-82475463D01*
X125566597Y-82488102D01*
X125604477Y-82553712D01*
X125604481Y-82553717D01*
X125654649Y-82603885D01*
X125663318Y-82613510D01*
X125670760Y-82622697D01*
X125671271Y-82623283D01*
X125671828Y-82623924D01*
X125671836Y-82623932D01*
X125671840Y-82623936D01*
X125741192Y-82690726D01*
X125741164Y-82690754D01*
X125743982Y-82693217D01*
X126515139Y-83464374D01*
X126515149Y-83464385D01*
X126519479Y-83468715D01*
X126519480Y-83468716D01*
X126631284Y-83580520D01*
X126631286Y-83580521D01*
X126631290Y-83580524D01*
X126768209Y-83659573D01*
X126768216Y-83659577D01*
X126880019Y-83689534D01*
X126920942Y-83700500D01*
X126920943Y-83700500D01*
X128975500Y-83700500D01*
X129042539Y-83720185D01*
X129088294Y-83772989D01*
X129099500Y-83824500D01*
X129099500Y-84299666D01*
X129079815Y-84366705D01*
X129027011Y-84412460D01*
X128957853Y-84422404D01*
X128896835Y-84395519D01*
X128858539Y-84364091D01*
X128858532Y-84364086D01*
X128684733Y-84271188D01*
X128684727Y-84271186D01*
X128496132Y-84213976D01*
X128496129Y-84213975D01*
X128300000Y-84194659D01*
X128103870Y-84213975D01*
X127915266Y-84271188D01*
X127741467Y-84364086D01*
X127741460Y-84364090D01*
X127589116Y-84489116D01*
X127464090Y-84641460D01*
X127464086Y-84641467D01*
X127371188Y-84815266D01*
X127313975Y-85003870D01*
X127298403Y-85161986D01*
X127283020Y-85200081D01*
X127296828Y-85227062D01*
X127298403Y-85238013D01*
X127313975Y-85396131D01*
X127355491Y-85532993D01*
X127358983Y-85547663D01*
X127360873Y-85558495D01*
X127360874Y-85558496D01*
X127545577Y-86124264D01*
X127548660Y-86190036D01*
X127531888Y-86264376D01*
X127529580Y-86275107D01*
X127525397Y-86289977D01*
X127514631Y-86320746D01*
X127494435Y-86499996D01*
X127494435Y-86500003D01*
X127514630Y-86679249D01*
X127514631Y-86679254D01*
X127574211Y-86849523D01*
X127604507Y-86897738D01*
X127670184Y-87002262D01*
X127797738Y-87129816D01*
X127888080Y-87186582D01*
X127942450Y-87220745D01*
X127950478Y-87225789D01*
X128120745Y-87285368D01*
X128120750Y-87285369D01*
X128299996Y-87305565D01*
X128300000Y-87305565D01*
X128300004Y-87305565D01*
X128479249Y-87285369D01*
X128479252Y-87285368D01*
X128479255Y-87285368D01*
X128649522Y-87225789D01*
X128802262Y-87129816D01*
X128929816Y-87002262D01*
X129025789Y-86849522D01*
X129085368Y-86679255D01*
X129085369Y-86679249D01*
X129105565Y-86500003D01*
X129105565Y-86499996D01*
X129085369Y-86320751D01*
X129085368Y-86320748D01*
X129085368Y-86320745D01*
X129073812Y-86287721D01*
X129068257Y-86265358D01*
X129068106Y-86264364D01*
X129068105Y-86264352D01*
X129051338Y-86190040D01*
X129054418Y-86124269D01*
X129070628Y-86074617D01*
X129110143Y-86017000D01*
X129174540Y-85989891D01*
X129243369Y-86001900D01*
X129276185Y-86025421D01*
X129338349Y-86087585D01*
X129338355Y-86087590D01*
X129714278Y-86463513D01*
X129747763Y-86524836D01*
X129742779Y-86594528D01*
X129700907Y-86650461D01*
X129667554Y-86668235D01*
X129650478Y-86674210D01*
X129497737Y-86770184D01*
X129370184Y-86897737D01*
X129274211Y-87050476D01*
X129214631Y-87220745D01*
X129214630Y-87220750D01*
X129194435Y-87399996D01*
X129194435Y-87400003D01*
X129214630Y-87579249D01*
X129214631Y-87579254D01*
X129274211Y-87749523D01*
X129370184Y-87902262D01*
X129497740Y-88029818D01*
X129611725Y-88101438D01*
X129619758Y-88107344D01*
X129619919Y-88107127D01*
X129623488Y-88109756D01*
X129623492Y-88109758D01*
X129623495Y-88109761D01*
X129810721Y-88228052D01*
X129982545Y-88336612D01*
X130028707Y-88389062D01*
X130039183Y-88458141D01*
X130021819Y-88506592D01*
X129741801Y-88960063D01*
X129689830Y-89006761D01*
X129620861Y-89017949D01*
X129556793Y-88990073D01*
X129539648Y-88972600D01*
X129471803Y-88888197D01*
X129471802Y-88888196D01*
X129331938Y-88775770D01*
X129331935Y-88775768D01*
X129171180Y-88696041D01*
X128997034Y-88652732D01*
X128956742Y-88650000D01*
X128163258Y-88650000D01*
X128122965Y-88652732D01*
X127948819Y-88696041D01*
X127788064Y-88775768D01*
X127788061Y-88775770D01*
X127648197Y-88888196D01*
X127648196Y-88888197D01*
X127535770Y-89028061D01*
X127535768Y-89028064D01*
X127456041Y-89188819D01*
X127412732Y-89362965D01*
X127410000Y-89403258D01*
X127410000Y-93996447D01*
X128825872Y-95412319D01*
X128859357Y-95473642D01*
X128854373Y-95543334D01*
X128825872Y-95587681D01*
X127410000Y-97003552D01*
X127410000Y-101596741D01*
X127412732Y-101637034D01*
X127456041Y-101811180D01*
X127535768Y-101971935D01*
X127535770Y-101971938D01*
X127648196Y-102111802D01*
X127648197Y-102111803D01*
X127788061Y-102224229D01*
X127788064Y-102224231D01*
X127869082Y-102264412D01*
X127920395Y-102311833D01*
X127937925Y-102379468D01*
X127916105Y-102445843D01*
X127861864Y-102489885D01*
X127813988Y-102499500D01*
X126806962Y-102499500D01*
X126793078Y-102498720D01*
X126780553Y-102497308D01*
X126702735Y-102488540D01*
X126675666Y-102482362D01*
X126596462Y-102454648D01*
X126571444Y-102442600D01*
X126500395Y-102397957D01*
X126478686Y-102380644D01*
X126419355Y-102321313D01*
X126402042Y-102299604D01*
X126398707Y-102294297D01*
X126357398Y-102228553D01*
X126345351Y-102203537D01*
X126337132Y-102180049D01*
X126317636Y-102124331D01*
X126311459Y-102097263D01*
X126310702Y-102090547D01*
X126301280Y-102006922D01*
X126300500Y-101993038D01*
X126300500Y-96296447D01*
X127410000Y-96296447D01*
X128206447Y-95500000D01*
X128206447Y-95499999D01*
X127410000Y-94703552D01*
X127410000Y-96296447D01*
X126300500Y-96296447D01*
X126300500Y-90048745D01*
X126292235Y-89980680D01*
X126264037Y-89748449D01*
X126191643Y-89454734D01*
X126191642Y-89454731D01*
X126191641Y-89454727D01*
X126084371Y-89171882D01*
X125943793Y-88904035D01*
X125943787Y-88904026D01*
X125932860Y-88888196D01*
X125855259Y-88775770D01*
X125771952Y-88655078D01*
X125771947Y-88655072D01*
X125571353Y-88428648D01*
X125571351Y-88428646D01*
X125344927Y-88228052D01*
X125344921Y-88228047D01*
X125095973Y-88056212D01*
X125095964Y-88056206D01*
X124828117Y-87915628D01*
X124545272Y-87808358D01*
X124429820Y-87779902D01*
X124251551Y-87735963D01*
X124023035Y-87708216D01*
X123951254Y-87699500D01*
X123951252Y-87699500D01*
X123803751Y-87699500D01*
X123796264Y-87699274D01*
X123506205Y-87681728D01*
X123491340Y-87679923D01*
X123209201Y-87628219D01*
X123194663Y-87624635D01*
X122920832Y-87539306D01*
X122906831Y-87533997D01*
X122645263Y-87416275D01*
X122632004Y-87409316D01*
X122430926Y-87287760D01*
X122386537Y-87260926D01*
X122374217Y-87252422D01*
X122340222Y-87225789D01*
X122148426Y-87075526D01*
X122137218Y-87065596D01*
X121934403Y-86862781D01*
X121924473Y-86851573D01*
X121845887Y-86751265D01*
X121747573Y-86625776D01*
X121739075Y-86613465D01*
X121590680Y-86367989D01*
X121583727Y-86354743D01*
X121466000Y-86093163D01*
X121460693Y-86079167D01*
X121459276Y-86074621D01*
X121375363Y-85805335D01*
X121371780Y-85790798D01*
X121320076Y-85508659D01*
X121318271Y-85493794D01*
X121300726Y-85203736D01*
X121300613Y-85200000D01*
X122794659Y-85200000D01*
X122813975Y-85396131D01*
X122855491Y-85532993D01*
X122858983Y-85547663D01*
X122860873Y-85558495D01*
X122860874Y-85558496D01*
X123045577Y-86124264D01*
X123048660Y-86190036D01*
X123031888Y-86264376D01*
X123029580Y-86275107D01*
X123025397Y-86289977D01*
X123014631Y-86320746D01*
X122994435Y-86499996D01*
X122994435Y-86500003D01*
X123014630Y-86679249D01*
X123014631Y-86679254D01*
X123074211Y-86849523D01*
X123104507Y-86897738D01*
X123170184Y-87002262D01*
X123297738Y-87129816D01*
X123388080Y-87186582D01*
X123442450Y-87220745D01*
X123450478Y-87225789D01*
X123620745Y-87285368D01*
X123620750Y-87285369D01*
X123799996Y-87305565D01*
X123800000Y-87305565D01*
X123800004Y-87305565D01*
X123979249Y-87285369D01*
X123979252Y-87285368D01*
X123979255Y-87285368D01*
X124149522Y-87225789D01*
X124302262Y-87129816D01*
X124429816Y-87002262D01*
X124525789Y-86849522D01*
X124585368Y-86679255D01*
X124585369Y-86679249D01*
X124605565Y-86500003D01*
X124605565Y-86499996D01*
X124585369Y-86320751D01*
X124585368Y-86320748D01*
X124585368Y-86320745D01*
X124573812Y-86287721D01*
X124568257Y-86265358D01*
X124568106Y-86264364D01*
X124568105Y-86264352D01*
X124551338Y-86190040D01*
X124554420Y-86124265D01*
X124554421Y-86124264D01*
X124663588Y-85789873D01*
X124739124Y-85558502D01*
X124742262Y-85547663D01*
X124748616Y-85525716D01*
X124748616Y-85525707D01*
X124749672Y-85520330D01*
X124749901Y-85520375D01*
X124753048Y-85504834D01*
X124786024Y-85396132D01*
X124801597Y-85238012D01*
X124816913Y-85200081D01*
X125033020Y-85200081D01*
X125046828Y-85227062D01*
X125048403Y-85238013D01*
X125063975Y-85396130D01*
X125114816Y-85563730D01*
X125117293Y-85573237D01*
X125118558Y-85579024D01*
X125118563Y-85579039D01*
X125330276Y-86144931D01*
X125336414Y-86208989D01*
X125322071Y-86294093D01*
X125316841Y-86314427D01*
X125314632Y-86320739D01*
X125314631Y-86320746D01*
X125309062Y-86370169D01*
X125308118Y-86376887D01*
X125303818Y-86402404D01*
X125298626Y-86443362D01*
X125298462Y-86445274D01*
X125298555Y-86455281D01*
X125297781Y-86470298D01*
X125294436Y-86499996D01*
X125294435Y-86500004D01*
X125314630Y-86679249D01*
X125314631Y-86679254D01*
X125374211Y-86849523D01*
X125404507Y-86897738D01*
X125470184Y-87002262D01*
X125597738Y-87129816D01*
X125688080Y-87186582D01*
X125742450Y-87220745D01*
X125750478Y-87225789D01*
X125920745Y-87285368D01*
X125920750Y-87285369D01*
X126099996Y-87305565D01*
X126100000Y-87305565D01*
X126100004Y-87305565D01*
X126279249Y-87285369D01*
X126279252Y-87285368D01*
X126279255Y-87285368D01*
X126449522Y-87225789D01*
X126602262Y-87129816D01*
X126729816Y-87002262D01*
X126825789Y-86849522D01*
X126885368Y-86679255D01*
X126885369Y-86679249D01*
X126905565Y-86500003D01*
X126905565Y-86499996D01*
X126885369Y-86320748D01*
X126866541Y-86266941D01*
X126860834Y-86243561D01*
X126859322Y-86233000D01*
X126826819Y-86122076D01*
X126826858Y-86052206D01*
X126828018Y-86048482D01*
X126854038Y-85969334D01*
X126988768Y-85559517D01*
X126998533Y-85525942D01*
X126998533Y-85525939D01*
X126999596Y-85520540D01*
X126999824Y-85520585D01*
X127002958Y-85505131D01*
X127006398Y-85493794D01*
X127036024Y-85396132D01*
X127051597Y-85238012D01*
X127066979Y-85199917D01*
X127053172Y-85172937D01*
X127051597Y-85161986D01*
X127036024Y-85003870D01*
X127036024Y-85003868D01*
X126978814Y-84815273D01*
X126978811Y-84815269D01*
X126978811Y-84815266D01*
X126885913Y-84641467D01*
X126885909Y-84641460D01*
X126760883Y-84489116D01*
X126608539Y-84364090D01*
X126608532Y-84364086D01*
X126434733Y-84271188D01*
X126434727Y-84271186D01*
X126246132Y-84213976D01*
X126246129Y-84213975D01*
X126050000Y-84194659D01*
X125853870Y-84213975D01*
X125665266Y-84271188D01*
X125491467Y-84364086D01*
X125491460Y-84364090D01*
X125339116Y-84489116D01*
X125214090Y-84641460D01*
X125214086Y-84641467D01*
X125121188Y-84815266D01*
X125063975Y-85003870D01*
X125048403Y-85161986D01*
X125033020Y-85200081D01*
X124816913Y-85200081D01*
X124816979Y-85199917D01*
X124803172Y-85172937D01*
X124801597Y-85161986D01*
X124786024Y-85003870D01*
X124786024Y-85003868D01*
X124728814Y-84815273D01*
X124728811Y-84815269D01*
X124728811Y-84815266D01*
X124635913Y-84641467D01*
X124635909Y-84641460D01*
X124510883Y-84489116D01*
X124358539Y-84364090D01*
X124358532Y-84364086D01*
X124184733Y-84271188D01*
X124184727Y-84271186D01*
X123996132Y-84213976D01*
X123996129Y-84213975D01*
X123800000Y-84194659D01*
X123603870Y-84213975D01*
X123415266Y-84271188D01*
X123241467Y-84364086D01*
X123241460Y-84364090D01*
X123089116Y-84489116D01*
X122964090Y-84641460D01*
X122964086Y-84641467D01*
X122871188Y-84815266D01*
X122813975Y-85003870D01*
X122794659Y-85200000D01*
X121300613Y-85200000D01*
X121300500Y-85196249D01*
X121300500Y-69549097D01*
X121320185Y-69482058D01*
X121372989Y-69436303D01*
X121442147Y-69426359D01*
X121505703Y-69455384D01*
G37*
%TD.AperFunction*%
%TA.AperFunction,Conductor*%
G36*
X142238701Y-72134872D02*
G01*
X142286346Y-72185977D01*
X142299500Y-72241557D01*
X142299500Y-85196249D01*
X142299274Y-85203736D01*
X142281728Y-85493794D01*
X142279923Y-85508659D01*
X142228219Y-85790798D01*
X142224635Y-85805336D01*
X142139306Y-86079167D01*
X142133997Y-86093168D01*
X142016275Y-86354736D01*
X142009316Y-86367995D01*
X141860928Y-86613459D01*
X141852422Y-86625782D01*
X141675526Y-86851573D01*
X141665596Y-86862781D01*
X141462781Y-87065596D01*
X141451573Y-87075526D01*
X141225782Y-87252422D01*
X141213459Y-87260928D01*
X140967995Y-87409316D01*
X140954736Y-87416275D01*
X140693168Y-87533997D01*
X140679167Y-87539306D01*
X140405336Y-87624635D01*
X140390798Y-87628219D01*
X140108659Y-87679923D01*
X140093794Y-87681728D01*
X139803736Y-87699274D01*
X139796249Y-87699500D01*
X139648746Y-87699500D01*
X139498598Y-87717731D01*
X139348449Y-87735963D01*
X139229602Y-87765255D01*
X139054727Y-87808358D01*
X138771882Y-87915628D01*
X138504035Y-88056206D01*
X138504026Y-88056212D01*
X138255078Y-88228047D01*
X138255072Y-88228052D01*
X138028648Y-88428646D01*
X138028646Y-88428648D01*
X137828052Y-88655072D01*
X137828047Y-88655078D01*
X137656212Y-88904026D01*
X137656206Y-88904035D01*
X137515628Y-89171882D01*
X137408358Y-89454727D01*
X137378200Y-89577085D01*
X137335963Y-89748449D01*
X137321377Y-89868568D01*
X137299500Y-90048745D01*
X137299500Y-101993038D01*
X137298720Y-102006923D01*
X137288540Y-102097264D01*
X137282362Y-102124333D01*
X137254648Y-102203537D01*
X137242600Y-102228555D01*
X137197957Y-102299604D01*
X137180644Y-102321313D01*
X137136088Y-102365869D01*
X137074765Y-102399354D01*
X137048343Y-102402188D01*
X135944170Y-102401622D01*
X135877141Y-102381903D01*
X135831413Y-102329076D01*
X135821505Y-102259912D01*
X135850563Y-102196371D01*
X135866535Y-102180984D01*
X135952159Y-102112159D01*
X136064653Y-101972210D01*
X136144433Y-101811349D01*
X136187766Y-101637100D01*
X136190500Y-101596784D01*
X136190500Y-89403216D01*
X136187766Y-89362900D01*
X136157479Y-89241115D01*
X136156978Y-89239015D01*
X136155822Y-89233985D01*
X136149453Y-89208704D01*
X136149232Y-89207950D01*
X136144433Y-89188651D01*
X136108325Y-89115847D01*
X136105709Y-89110223D01*
X136101173Y-89099797D01*
X136093281Y-89081658D01*
X136093279Y-89081654D01*
X136093278Y-89081652D01*
X136086595Y-89070832D01*
X136081015Y-89060782D01*
X136064653Y-89027790D01*
X136054090Y-89014649D01*
X136049471Y-89008902D01*
X136040614Y-88996367D01*
X136036727Y-88990073D01*
X135973819Y-88888196D01*
X135658994Y-88378356D01*
X135640500Y-88313206D01*
X135640500Y-88029060D01*
X135640501Y-88029047D01*
X135640501Y-87860944D01*
X135640501Y-87860943D01*
X135599577Y-87708216D01*
X135579239Y-87672989D01*
X135520524Y-87571290D01*
X135520518Y-87571282D01*
X135068716Y-87119481D01*
X134736820Y-86787585D01*
X134703335Y-86726262D01*
X134700501Y-86699904D01*
X134700501Y-86572265D01*
X134700501Y-86572263D01*
X134659577Y-86419535D01*
X134615494Y-86343182D01*
X134615496Y-86343180D01*
X134615489Y-86343173D01*
X134613494Y-86339717D01*
X134597665Y-86291607D01*
X134584049Y-86170753D01*
X134584048Y-86170752D01*
X134584048Y-86170745D01*
X134584045Y-86170738D01*
X134582499Y-86163961D01*
X134585353Y-86163309D01*
X134582454Y-86106608D01*
X134597518Y-86070330D01*
X134606804Y-86055276D01*
X134635726Y-86022876D01*
X134736073Y-85944021D01*
X134800947Y-85918076D01*
X134869549Y-85931324D01*
X134889244Y-85943973D01*
X134889306Y-85944021D01*
X134934932Y-85979832D01*
X134963910Y-86012277D01*
X135030973Y-86121002D01*
X135153996Y-86244025D01*
X135154000Y-86244028D01*
X135302066Y-86335357D01*
X135302069Y-86335358D01*
X135302075Y-86335362D01*
X135467225Y-86390087D01*
X135569152Y-86400500D01*
X135569157Y-86400500D01*
X136155843Y-86400500D01*
X136155848Y-86400500D01*
X136257775Y-86390087D01*
X136422925Y-86335362D01*
X136571003Y-86244026D01*
X136694026Y-86121003D01*
X136694755Y-86119821D01*
X136695466Y-86119181D01*
X136698507Y-86115336D01*
X136699163Y-86115855D01*
X136746701Y-86073097D01*
X136815664Y-86061873D01*
X136879746Y-86089715D01*
X136901761Y-86115123D01*
X136901888Y-86115023D01*
X136904113Y-86117838D01*
X136905833Y-86119822D01*
X136906365Y-86120685D01*
X136906369Y-86120690D01*
X137029308Y-86243629D01*
X137177285Y-86334903D01*
X137177290Y-86334905D01*
X137342326Y-86389592D01*
X137444184Y-86399999D01*
X137444197Y-86400000D01*
X137487500Y-86400000D01*
X137987500Y-86400000D01*
X138030803Y-86400000D01*
X138030815Y-86399999D01*
X138132673Y-86389592D01*
X138297709Y-86334905D01*
X138297714Y-86334903D01*
X138445691Y-86243629D01*
X138568629Y-86120691D01*
X138659903Y-85972714D01*
X138659905Y-85972709D01*
X138714592Y-85807673D01*
X138724999Y-85705815D01*
X138725000Y-85705802D01*
X138725000Y-85450000D01*
X137987500Y-85450000D01*
X137987500Y-86400000D01*
X137487500Y-86400000D01*
X137487500Y-84950000D01*
X137987500Y-84950000D01*
X138725000Y-84950000D01*
X138725000Y-84694197D01*
X138724999Y-84694184D01*
X138714592Y-84592326D01*
X138659905Y-84427290D01*
X138659903Y-84427285D01*
X138568629Y-84279308D01*
X138445691Y-84156370D01*
X138297714Y-84065096D01*
X138297709Y-84065094D01*
X138132673Y-84010407D01*
X138030815Y-84000000D01*
X137987500Y-84000000D01*
X137987500Y-84950000D01*
X137487500Y-84950000D01*
X137487500Y-84000000D01*
X137444184Y-84000000D01*
X137342326Y-84010407D01*
X137177290Y-84065094D01*
X137177285Y-84065096D01*
X137029308Y-84156370D01*
X136906369Y-84279309D01*
X136906364Y-84279315D01*
X136905829Y-84280184D01*
X136905306Y-84280654D01*
X136901888Y-84284977D01*
X136901149Y-84284392D01*
X136853879Y-84326906D01*
X136784916Y-84338125D01*
X136720835Y-84310278D01*
X136698586Y-84284601D01*
X136698507Y-84284664D01*
X136697111Y-84282898D01*
X136694758Y-84280183D01*
X136694028Y-84278999D01*
X136571003Y-84155974D01*
X136570999Y-84155971D01*
X136422933Y-84064642D01*
X136422927Y-84064639D01*
X136422925Y-84064638D01*
X136422922Y-84064637D01*
X136257776Y-84009913D01*
X136155855Y-83999500D01*
X136155848Y-83999500D01*
X135569152Y-83999500D01*
X135569144Y-83999500D01*
X135467223Y-84009913D01*
X135302077Y-84064637D01*
X135302066Y-84064642D01*
X135154000Y-84155971D01*
X135153996Y-84155974D01*
X135030973Y-84278997D01*
X134963912Y-84387720D01*
X134934932Y-84420166D01*
X134889247Y-84456022D01*
X134824357Y-84481928D01*
X134755763Y-84468639D01*
X134736074Y-84455977D01*
X134635725Y-84377122D01*
X134606802Y-84344721D01*
X134567712Y-84281344D01*
X134443656Y-84157288D01*
X134294334Y-84065186D01*
X134127797Y-84010001D01*
X134127795Y-84010000D01*
X134025010Y-83999500D01*
X133399998Y-83999500D01*
X133399980Y-83999501D01*
X133297203Y-84010000D01*
X133297200Y-84010001D01*
X133130668Y-84065185D01*
X133130663Y-84065187D01*
X132981345Y-84157287D01*
X132901600Y-84237032D01*
X132840276Y-84270516D01*
X132770585Y-84265532D01*
X132714651Y-84223660D01*
X132707124Y-84212365D01*
X132696676Y-84194659D01*
X132505205Y-83870164D01*
X132488000Y-83807149D01*
X132488000Y-83224500D01*
X132507685Y-83157461D01*
X132560489Y-83111706D01*
X132612000Y-83100500D01*
X136913331Y-83100500D01*
X136913347Y-83100501D01*
X136920943Y-83100501D01*
X137079054Y-83100501D01*
X137079057Y-83100501D01*
X137231785Y-83059577D01*
X137281904Y-83030639D01*
X137368716Y-82980520D01*
X137480520Y-82868716D01*
X137480520Y-82868714D01*
X137490728Y-82858507D01*
X137490730Y-82858504D01*
X138758506Y-81590728D01*
X138758511Y-81590724D01*
X138768714Y-81580520D01*
X138768716Y-81580520D01*
X138880520Y-81468716D01*
X138943394Y-81359814D01*
X138959577Y-81331785D01*
X139000501Y-81179057D01*
X139000501Y-81020943D01*
X139000501Y-81013348D01*
X139000500Y-81013330D01*
X139000500Y-78712380D01*
X139020185Y-78645341D01*
X139072989Y-78599586D01*
X139126785Y-78588401D01*
X139174594Y-78589283D01*
X139241258Y-78610201D01*
X139286031Y-78663840D01*
X139294697Y-78733170D01*
X139288488Y-78756594D01*
X139256403Y-78842617D01*
X139256401Y-78842627D01*
X139250000Y-78902155D01*
X139250000Y-79550000D01*
X140166988Y-79550000D01*
X140134075Y-79607007D01*
X140100000Y-79734174D01*
X140100000Y-79865826D01*
X140134075Y-79992993D01*
X140166988Y-80050000D01*
X139250000Y-80050000D01*
X139250000Y-80697844D01*
X139256401Y-80757372D01*
X139256403Y-80757379D01*
X139306645Y-80892086D01*
X139306649Y-80892093D01*
X139392809Y-81007187D01*
X139392812Y-81007190D01*
X139507906Y-81093350D01*
X139507913Y-81093354D01*
X139642620Y-81143596D01*
X139642627Y-81143598D01*
X139702155Y-81149999D01*
X139702172Y-81150000D01*
X140350000Y-81150000D01*
X140350000Y-80233012D01*
X140407007Y-80265925D01*
X140534174Y-80300000D01*
X140665826Y-80300000D01*
X140792993Y-80265925D01*
X140850000Y-80233012D01*
X140850000Y-81150000D01*
X141497828Y-81150000D01*
X141497844Y-81149999D01*
X141557372Y-81143598D01*
X141557379Y-81143596D01*
X141692086Y-81093354D01*
X141692093Y-81093350D01*
X141807187Y-81007190D01*
X141807190Y-81007187D01*
X141893350Y-80892093D01*
X141893354Y-80892086D01*
X141943596Y-80757379D01*
X141943598Y-80757372D01*
X141949999Y-80697844D01*
X141950000Y-80697827D01*
X141950000Y-80050000D01*
X141033012Y-80050000D01*
X141065925Y-79992993D01*
X141100000Y-79865826D01*
X141100000Y-79734174D01*
X141065925Y-79607007D01*
X141033012Y-79550000D01*
X141950000Y-79550000D01*
X141950000Y-78902172D01*
X141949999Y-78902155D01*
X141943598Y-78842627D01*
X141943596Y-78842620D01*
X141893354Y-78707913D01*
X141893350Y-78707906D01*
X141807190Y-78592812D01*
X141807187Y-78592809D01*
X141692093Y-78506649D01*
X141692088Y-78506646D01*
X141560528Y-78457577D01*
X141504595Y-78415705D01*
X141480178Y-78350241D01*
X141495030Y-78281968D01*
X141516175Y-78253720D01*
X141638495Y-78131401D01*
X141774035Y-77937830D01*
X141873903Y-77723663D01*
X141935063Y-77495408D01*
X141955659Y-77260000D01*
X141935063Y-77024592D01*
X141873903Y-76796337D01*
X141774035Y-76582171D01*
X141720842Y-76506202D01*
X141638494Y-76388597D01*
X141471402Y-76221506D01*
X141471396Y-76221501D01*
X141285842Y-76091575D01*
X141242217Y-76036998D01*
X141235023Y-75967500D01*
X141266546Y-75905145D01*
X141285842Y-75888425D01*
X141388968Y-75816215D01*
X141471401Y-75758495D01*
X141638495Y-75591401D01*
X141774035Y-75397830D01*
X141873903Y-75183663D01*
X141935063Y-74955408D01*
X141955659Y-74720000D01*
X141935063Y-74484592D01*
X141873903Y-74256337D01*
X141774035Y-74042171D01*
X141638495Y-73848599D01*
X141638494Y-73848597D01*
X141471402Y-73681506D01*
X141471396Y-73681501D01*
X141285842Y-73551575D01*
X141242217Y-73496998D01*
X141235023Y-73427500D01*
X141266546Y-73365145D01*
X141285842Y-73348425D01*
X141365405Y-73292714D01*
X141471401Y-73218495D01*
X141638495Y-73051401D01*
X141774035Y-72857830D01*
X141837870Y-72720934D01*
X141843561Y-72710149D01*
X141856919Y-72687602D01*
X142060907Y-72194181D01*
X142104711Y-72139749D01*
X142170990Y-72117639D01*
X142238701Y-72134872D01*
G37*
%TD.AperFunction*%
%TA.AperFunction,Conductor*%
G36*
X132019281Y-54717143D02*
G01*
X132092929Y-54759714D01*
X132092931Y-54759714D01*
X132092932Y-54759715D01*
X132092931Y-54759715D01*
X132234547Y-54797738D01*
X132245635Y-54800715D01*
X138004996Y-54803665D01*
X138072025Y-54823384D01*
X138117753Y-54876211D01*
X138127661Y-54945375D01*
X138109926Y-54993637D01*
X138074211Y-55050476D01*
X138014631Y-55220745D01*
X138014630Y-55220750D01*
X137994435Y-55399996D01*
X137994435Y-55400003D01*
X138014630Y-55579249D01*
X138014631Y-55579254D01*
X138074211Y-55749523D01*
X138170184Y-55902262D01*
X138235404Y-55967482D01*
X138268889Y-56028805D01*
X138263905Y-56098497D01*
X138222033Y-56154430D01*
X138213698Y-56160155D01*
X138197739Y-56170183D01*
X138197737Y-56170184D01*
X138070184Y-56297737D01*
X137974211Y-56450476D01*
X137914631Y-56620745D01*
X137914630Y-56620750D01*
X137894435Y-56799996D01*
X137894435Y-56800003D01*
X137914630Y-56979249D01*
X137914631Y-56979254D01*
X137974211Y-57149523D01*
X138067421Y-57297864D01*
X138070184Y-57302262D01*
X138197738Y-57429816D01*
X138264741Y-57471917D01*
X138310453Y-57500640D01*
X138350478Y-57525789D01*
X138474197Y-57569080D01*
X138520745Y-57585368D01*
X138520750Y-57585369D01*
X138699996Y-57605565D01*
X138700000Y-57605565D01*
X138700004Y-57605565D01*
X138879247Y-57585369D01*
X138879247Y-57585368D01*
X138879255Y-57585368D01*
X138912269Y-57573815D01*
X138931325Y-57569080D01*
X138931345Y-57569075D01*
X138934639Y-57568257D01*
X138935634Y-57568106D01*
X138935647Y-57568105D01*
X139187395Y-57511302D01*
X139257122Y-57515748D01*
X139313378Y-57557187D01*
X139338299Y-57622461D01*
X139330869Y-57675593D01*
X139305909Y-57742514D01*
X139305908Y-57742516D01*
X139299501Y-57802116D01*
X139299501Y-57802123D01*
X139299500Y-57802135D01*
X139299500Y-58797870D01*
X139299501Y-58797876D01*
X139305909Y-58857484D01*
X139342437Y-58955423D01*
X139347421Y-59025114D01*
X139313935Y-59086437D01*
X139302385Y-59096634D01*
X139275253Y-59117736D01*
X139203712Y-59173379D01*
X139138712Y-59199000D01*
X139127585Y-59199500D01*
X138786670Y-59199500D01*
X138786654Y-59199499D01*
X138779058Y-59199499D01*
X138620943Y-59199499D01*
X138544579Y-59219961D01*
X138468214Y-59240423D01*
X138468209Y-59240426D01*
X138331290Y-59319475D01*
X138331282Y-59319481D01*
X136619479Y-61031284D01*
X136596359Y-61071330D01*
X136586587Y-61088257D01*
X136540423Y-61168215D01*
X136499499Y-61320943D01*
X136499499Y-61320945D01*
X136499499Y-61489046D01*
X136499500Y-61489059D01*
X136499500Y-71133330D01*
X136499499Y-71133348D01*
X136499499Y-71299054D01*
X136499498Y-71299054D01*
X136540423Y-71451785D01*
X136569358Y-71501900D01*
X136569359Y-71501904D01*
X136569360Y-71501904D01*
X136619479Y-71588714D01*
X136619481Y-71588717D01*
X136738349Y-71707585D01*
X136738355Y-71707590D01*
X138293778Y-73263013D01*
X138315705Y-73292711D01*
X139362898Y-75272254D01*
X139380303Y-75302912D01*
X139387880Y-75316158D01*
X139425966Y-75397832D01*
X139561501Y-75591395D01*
X139561506Y-75591402D01*
X139728597Y-75758493D01*
X139728603Y-75758498D01*
X139914158Y-75888425D01*
X139957783Y-75943002D01*
X139964977Y-76012500D01*
X139933454Y-76074855D01*
X139914158Y-76091575D01*
X139728604Y-76221500D01*
X139728595Y-76221508D01*
X139701083Y-76249019D01*
X139687949Y-76259724D01*
X139688279Y-76260157D01*
X139196674Y-76634184D01*
X139131402Y-76659110D01*
X139121592Y-76659499D01*
X139060943Y-76659499D01*
X138946397Y-76690192D01*
X138908214Y-76700423D01*
X138895667Y-76707668D01*
X138895665Y-76707669D01*
X138771287Y-76779477D01*
X138771282Y-76779481D01*
X138659478Y-76891286D01*
X138031289Y-77519474D01*
X138031278Y-77519486D01*
X138027531Y-77523232D01*
X138018252Y-77531616D01*
X138007336Y-77540521D01*
X138006136Y-77541570D01*
X137940228Y-77610160D01*
X137940213Y-77610145D01*
X137937413Y-77613350D01*
X137919480Y-77631284D01*
X137919479Y-77631285D01*
X137869361Y-77718094D01*
X137869359Y-77718096D01*
X137840425Y-77768209D01*
X137840424Y-77768210D01*
X137840423Y-77768215D01*
X137799499Y-77920943D01*
X137799499Y-77920945D01*
X137799499Y-78089046D01*
X137799500Y-78089059D01*
X137799500Y-80799903D01*
X137779815Y-80866942D01*
X137763181Y-80887584D01*
X136787584Y-81863181D01*
X136726261Y-81896666D01*
X136699903Y-81899500D01*
X135919786Y-81899500D01*
X135852747Y-81879815D01*
X135806992Y-81827011D01*
X135797048Y-81757853D01*
X135812398Y-81713501D01*
X135859577Y-81631784D01*
X135867125Y-81603610D01*
X135877178Y-81577935D01*
X136174582Y-81013157D01*
X136174592Y-81013129D01*
X136175697Y-81010754D01*
X136182626Y-80997879D01*
X136184814Y-80994334D01*
X136195190Y-80963020D01*
X136197967Y-80955468D01*
X136212329Y-80920045D01*
X136213633Y-80915604D01*
X136216474Y-80905542D01*
X136216475Y-80905531D01*
X136217411Y-80900885D01*
X136217661Y-80900935D01*
X136221661Y-80883136D01*
X136239999Y-80827797D01*
X136250500Y-80725009D01*
X136250499Y-79674992D01*
X136248124Y-79651746D01*
X136243554Y-79607007D01*
X136239999Y-79572203D01*
X136233217Y-79551737D01*
X136221770Y-79517190D01*
X136217662Y-79501370D01*
X136217638Y-79501244D01*
X136217638Y-79501242D01*
X136212763Y-79489192D01*
X136210006Y-79481691D01*
X136189812Y-79420750D01*
X136184814Y-79405666D01*
X136173316Y-79387026D01*
X136165634Y-79371845D01*
X136165629Y-79371848D01*
X136165418Y-79371419D01*
X136163899Y-79368416D01*
X136163676Y-79367864D01*
X135909452Y-78931225D01*
X135867340Y-78858896D01*
X135850500Y-78796504D01*
X135850500Y-78614059D01*
X135850501Y-78614046D01*
X135850501Y-78445945D01*
X135850501Y-78445943D01*
X135809577Y-78293215D01*
X135809576Y-78293214D01*
X135809576Y-78293212D01*
X135809575Y-78293211D01*
X135768490Y-78222050D01*
X135730522Y-78156287D01*
X135730518Y-78156282D01*
X135672732Y-78098496D01*
X135646439Y-78059661D01*
X135594227Y-77937834D01*
X135310525Y-77275861D01*
X135300499Y-77227015D01*
X135300499Y-76902129D01*
X135300498Y-76902123D01*
X135300497Y-76902116D01*
X135294091Y-76842517D01*
X135243796Y-76707669D01*
X135243795Y-76707668D01*
X135243793Y-76707664D01*
X135157547Y-76592455D01*
X135157544Y-76592452D01*
X135042335Y-76506206D01*
X135042328Y-76506202D01*
X134907482Y-76455908D01*
X134907483Y-76455908D01*
X134847883Y-76449501D01*
X134847881Y-76449500D01*
X134847873Y-76449500D01*
X134847864Y-76449500D01*
X133752129Y-76449500D01*
X133752123Y-76449501D01*
X133692516Y-76455908D01*
X133557671Y-76506202D01*
X133557664Y-76506206D01*
X133442455Y-76592452D01*
X133442452Y-76592455D01*
X133356206Y-76707664D01*
X133356204Y-76707669D01*
X133305908Y-76842517D01*
X133299501Y-76902116D01*
X133299501Y-76902123D01*
X133299500Y-76902135D01*
X133299500Y-78247870D01*
X133299501Y-78247876D01*
X133305908Y-78307483D01*
X133356202Y-78442328D01*
X133356206Y-78442335D01*
X133442452Y-78557544D01*
X133442455Y-78557547D01*
X133557664Y-78643793D01*
X133557671Y-78643797D01*
X133561811Y-78645341D01*
X133692517Y-78694091D01*
X133752127Y-78700500D01*
X134097622Y-78700499D01*
X134138166Y-78707314D01*
X134480736Y-78825841D01*
X134537653Y-78866362D01*
X134563627Y-78931225D01*
X134550411Y-78999833D01*
X134547350Y-79005416D01*
X134403796Y-79251975D01*
X134353053Y-79300005D01*
X134284398Y-79312978D01*
X134219629Y-79286773D01*
X134197441Y-79261813D01*
X134196798Y-79262323D01*
X134192316Y-79256655D01*
X134068345Y-79132684D01*
X133919124Y-79040643D01*
X133919119Y-79040641D01*
X133752697Y-78985494D01*
X133752690Y-78985493D01*
X133649986Y-78975000D01*
X133600000Y-78975000D01*
X133600000Y-80326000D01*
X133580315Y-80393039D01*
X133527511Y-80438794D01*
X133476000Y-80450000D01*
X133224000Y-80450000D01*
X133156961Y-80430315D01*
X133111206Y-80377511D01*
X133100000Y-80326000D01*
X133100000Y-78975000D01*
X133099999Y-78974999D01*
X133050029Y-78975000D01*
X133050011Y-78975001D01*
X132947302Y-78985494D01*
X132780880Y-79040641D01*
X132780871Y-79040645D01*
X132735579Y-79068582D01*
X132668186Y-79087022D01*
X132601523Y-79066099D01*
X132582802Y-79050724D01*
X132502262Y-78970184D01*
X132349523Y-78874211D01*
X132179254Y-78814631D01*
X132179249Y-78814630D01*
X132000004Y-78794435D01*
X131999996Y-78794435D01*
X131820750Y-78814630D01*
X131820745Y-78814631D01*
X131650476Y-78874211D01*
X131497737Y-78970184D01*
X131370184Y-79097737D01*
X131274211Y-79250476D01*
X131214631Y-79420745D01*
X131214630Y-79420750D01*
X131194435Y-79599996D01*
X131194435Y-79600000D01*
X131198095Y-79632497D01*
X131198758Y-79651746D01*
X131198271Y-79662968D01*
X131209495Y-79775540D01*
X131283441Y-80517222D01*
X131285984Y-80536962D01*
X131287000Y-80552803D01*
X131287000Y-82113330D01*
X131286999Y-82113348D01*
X131286999Y-82289046D01*
X131287000Y-82289059D01*
X131287000Y-82713330D01*
X131286999Y-82713348D01*
X131286999Y-82889046D01*
X131287000Y-82889059D01*
X131287000Y-83807149D01*
X131269794Y-83870164D01*
X130963041Y-84390027D01*
X130963032Y-84390045D01*
X130961124Y-84394405D01*
X130953072Y-84409773D01*
X130940187Y-84430663D01*
X130940186Y-84430666D01*
X130926173Y-84472952D01*
X130922068Y-84483654D01*
X130914287Y-84501433D01*
X130914286Y-84501437D01*
X130912678Y-84506788D01*
X130904179Y-84538636D01*
X130902078Y-84545665D01*
X130885001Y-84597199D01*
X130874500Y-84699983D01*
X130874500Y-85625903D01*
X130854815Y-85692942D01*
X130802011Y-85738697D01*
X130732853Y-85748641D01*
X130669297Y-85719616D01*
X130662819Y-85713584D01*
X130336819Y-85387584D01*
X130303334Y-85326261D01*
X130300500Y-85299903D01*
X130300500Y-81092294D01*
X130303541Y-81065002D01*
X130308431Y-81043331D01*
X130468105Y-80335647D01*
X130470249Y-80325677D01*
X130470249Y-80325673D01*
X130470413Y-80324912D01*
X130474596Y-80310038D01*
X130485368Y-80279255D01*
X130505565Y-80100000D01*
X130500171Y-80052128D01*
X130485369Y-79920750D01*
X130485368Y-79920745D01*
X130468257Y-79871845D01*
X130425789Y-79750478D01*
X130329816Y-79597738D01*
X130202262Y-79470184D01*
X130162376Y-79445122D01*
X130049523Y-79374211D01*
X129879254Y-79314631D01*
X129879249Y-79314630D01*
X129700004Y-79294435D01*
X129699996Y-79294435D01*
X129520750Y-79314630D01*
X129520745Y-79314631D01*
X129350476Y-79374211D01*
X129197737Y-79470184D01*
X129070184Y-79597737D01*
X128974209Y-79750480D01*
X128939447Y-79849824D01*
X128898726Y-79906600D01*
X128833773Y-79932347D01*
X128765211Y-79918891D01*
X128714808Y-79870503D01*
X128712244Y-79865037D01*
X128708350Y-79857906D01*
X128622190Y-79742812D01*
X128622187Y-79742809D01*
X128507093Y-79656649D01*
X128507086Y-79656645D01*
X128372379Y-79606403D01*
X128372372Y-79606401D01*
X128312844Y-79600000D01*
X128165000Y-79600000D01*
X128165000Y-80575500D01*
X128145315Y-80642539D01*
X128092511Y-80688294D01*
X128041000Y-80699500D01*
X127789000Y-80699500D01*
X127721961Y-80679815D01*
X127676206Y-80627011D01*
X127665000Y-80575500D01*
X127665000Y-79600000D01*
X127517155Y-79600000D01*
X127457627Y-79606401D01*
X127457620Y-79606403D01*
X127322913Y-79656645D01*
X127322906Y-79656649D01*
X127207812Y-79742809D01*
X127207809Y-79742812D01*
X127121649Y-79857906D01*
X127121646Y-79857912D01*
X127116447Y-79871851D01*
X127074574Y-79927783D01*
X127009109Y-79952198D01*
X126940836Y-79937345D01*
X126891432Y-79887938D01*
X126884083Y-79871845D01*
X126883582Y-79870503D01*
X126878796Y-79857669D01*
X126860976Y-79833865D01*
X126850111Y-79816535D01*
X126840588Y-79798129D01*
X126840587Y-79798128D01*
X126722190Y-79632371D01*
X126699242Y-79566378D01*
X126699113Y-79558058D01*
X126699267Y-79549522D01*
X126705203Y-79221002D01*
X126705251Y-79217749D01*
X126705253Y-79217577D01*
X126705222Y-79216906D01*
X126705234Y-79216519D01*
X126705222Y-79215762D01*
X126705260Y-79215761D01*
X126705565Y-79206551D01*
X126705565Y-79200003D01*
X126705565Y-79200000D01*
X126704124Y-79187215D01*
X126703478Y-79179075D01*
X126702570Y-79159362D01*
X126701737Y-79156052D01*
X126698768Y-79139678D01*
X126685368Y-79020745D01*
X126625789Y-78850478D01*
X126620851Y-78842620D01*
X126536053Y-78707664D01*
X126529816Y-78697738D01*
X126402262Y-78570184D01*
X126358130Y-78542454D01*
X126249523Y-78474211D01*
X126079254Y-78414631D01*
X126079249Y-78414630D01*
X125900004Y-78394435D01*
X125899996Y-78394435D01*
X125720750Y-78414630D01*
X125720745Y-78414631D01*
X125550476Y-78474211D01*
X125472107Y-78523454D01*
X125404870Y-78542454D01*
X125338035Y-78522086D01*
X125292821Y-78468818D01*
X125283584Y-78399561D01*
X125313256Y-78336305D01*
X125318435Y-78330798D01*
X127174822Y-76474412D01*
X127236141Y-76440930D01*
X127305833Y-76445914D01*
X127350180Y-76474415D01*
X127927264Y-77051499D01*
X127953557Y-77090334D01*
X128289474Y-77874139D01*
X128299500Y-77922985D01*
X128299500Y-78247869D01*
X128299501Y-78247876D01*
X128305908Y-78307483D01*
X128356202Y-78442328D01*
X128356206Y-78442335D01*
X128442452Y-78557544D01*
X128442455Y-78557547D01*
X128557664Y-78643793D01*
X128557671Y-78643797D01*
X128692517Y-78694091D01*
X128692516Y-78694091D01*
X128699444Y-78694835D01*
X128752127Y-78700500D01*
X129847872Y-78700499D01*
X129907483Y-78694091D01*
X130042331Y-78643796D01*
X130157546Y-78557546D01*
X130243796Y-78442331D01*
X130294091Y-78307483D01*
X130300500Y-78247873D01*
X130300499Y-76902128D01*
X130294091Y-76842517D01*
X130243796Y-76707669D01*
X130243795Y-76707668D01*
X130243793Y-76707664D01*
X130157547Y-76592455D01*
X130157544Y-76592452D01*
X130042335Y-76506206D01*
X130042328Y-76506202D01*
X129907482Y-76455908D01*
X129907483Y-76455908D01*
X129847883Y-76449501D01*
X129847881Y-76449500D01*
X129847873Y-76449500D01*
X129847865Y-76449500D01*
X129502382Y-76449500D01*
X129461837Y-76442684D01*
X128808504Y-76216636D01*
X128761368Y-76187133D01*
X128136819Y-75562584D01*
X128103334Y-75501261D01*
X128100500Y-75474903D01*
X128100500Y-70692618D01*
X128120185Y-70625579D01*
X128172989Y-70579824D01*
X128242147Y-70569880D01*
X128305703Y-70598905D01*
X128340682Y-70649286D01*
X128356644Y-70692084D01*
X128356649Y-70692093D01*
X128442809Y-70807187D01*
X128442812Y-70807190D01*
X128557906Y-70893350D01*
X128557913Y-70893354D01*
X128692620Y-70943596D01*
X128692627Y-70943598D01*
X128752155Y-70949999D01*
X128752172Y-70950000D01*
X129050000Y-70950000D01*
X129550000Y-70950000D01*
X129847828Y-70950000D01*
X129847844Y-70949999D01*
X129907372Y-70943598D01*
X129907379Y-70943596D01*
X130042086Y-70893354D01*
X130042093Y-70893350D01*
X130157187Y-70807190D01*
X130157190Y-70807187D01*
X130243350Y-70692093D01*
X130243354Y-70692086D01*
X130293596Y-70557379D01*
X130293598Y-70557372D01*
X130299999Y-70497844D01*
X133300000Y-70497844D01*
X133306401Y-70557372D01*
X133306403Y-70557379D01*
X133356645Y-70692086D01*
X133356649Y-70692093D01*
X133442809Y-70807187D01*
X133442812Y-70807190D01*
X133557906Y-70893350D01*
X133557913Y-70893354D01*
X133692620Y-70943596D01*
X133692627Y-70943598D01*
X133752155Y-70949999D01*
X133752172Y-70950000D01*
X134050000Y-70950000D01*
X134550000Y-70950000D01*
X134847828Y-70950000D01*
X134847844Y-70949999D01*
X134907372Y-70943598D01*
X134907379Y-70943596D01*
X135042086Y-70893354D01*
X135042093Y-70893350D01*
X135157187Y-70807190D01*
X135157190Y-70807187D01*
X135243350Y-70692093D01*
X135243354Y-70692086D01*
X135293596Y-70557379D01*
X135293598Y-70557372D01*
X135299999Y-70497844D01*
X135300000Y-70497827D01*
X135300000Y-70075000D01*
X134550000Y-70075000D01*
X134550000Y-70950000D01*
X134050000Y-70950000D01*
X134050000Y-70075000D01*
X133300000Y-70075000D01*
X133300000Y-70497844D01*
X130299999Y-70497844D01*
X130300000Y-70497827D01*
X130300000Y-70075000D01*
X129550000Y-70075000D01*
X129550000Y-70950000D01*
X129050000Y-70950000D01*
X129050000Y-69575000D01*
X129550000Y-69575000D01*
X130300000Y-69575000D01*
X130300000Y-69152172D01*
X130299999Y-69152155D01*
X133300000Y-69152155D01*
X133300000Y-69575000D01*
X134050000Y-69575000D01*
X134550000Y-69575000D01*
X135300000Y-69575000D01*
X135300000Y-69152172D01*
X135299999Y-69152155D01*
X135293598Y-69092627D01*
X135293596Y-69092620D01*
X135243354Y-68957913D01*
X135243350Y-68957906D01*
X135157190Y-68842812D01*
X135157187Y-68842809D01*
X135042093Y-68756649D01*
X135042086Y-68756645D01*
X134907379Y-68706403D01*
X134907372Y-68706401D01*
X134847844Y-68700000D01*
X134550000Y-68700000D01*
X134550000Y-69575000D01*
X134050000Y-69575000D01*
X134050000Y-68700000D01*
X133752155Y-68700000D01*
X133692627Y-68706401D01*
X133692620Y-68706403D01*
X133557913Y-68756645D01*
X133557906Y-68756649D01*
X133442812Y-68842809D01*
X133442809Y-68842812D01*
X133356649Y-68957906D01*
X133356645Y-68957913D01*
X133306403Y-69092620D01*
X133306401Y-69092627D01*
X133300000Y-69152155D01*
X130299999Y-69152155D01*
X130293598Y-69092627D01*
X130293596Y-69092620D01*
X130243354Y-68957913D01*
X130243350Y-68957906D01*
X130157190Y-68842812D01*
X130157187Y-68842809D01*
X130042093Y-68756649D01*
X130042086Y-68756645D01*
X129907379Y-68706403D01*
X129907372Y-68706401D01*
X129847844Y-68700000D01*
X129550000Y-68700000D01*
X129550000Y-69575000D01*
X129050000Y-69575000D01*
X129050000Y-68700000D01*
X128752155Y-68700000D01*
X128692627Y-68706401D01*
X128692620Y-68706403D01*
X128557913Y-68756645D01*
X128557906Y-68756649D01*
X128442812Y-68842809D01*
X128442809Y-68842812D01*
X128356649Y-68957906D01*
X128356645Y-68957913D01*
X128340682Y-69000714D01*
X128298811Y-69056648D01*
X128233346Y-69081065D01*
X128165073Y-69066213D01*
X128115668Y-69016808D01*
X128100500Y-68957381D01*
X128100500Y-62997844D01*
X130810000Y-62997844D01*
X130816401Y-63057372D01*
X130816403Y-63057379D01*
X130866645Y-63192086D01*
X130866649Y-63192093D01*
X130952809Y-63307187D01*
X130952812Y-63307190D01*
X131067906Y-63393350D01*
X131067913Y-63393354D01*
X131202620Y-63443596D01*
X131202627Y-63443598D01*
X131262155Y-63449999D01*
X131262172Y-63450000D01*
X131410000Y-63450000D01*
X131910000Y-63450000D01*
X132057828Y-63450000D01*
X132057844Y-63449999D01*
X132117372Y-63443598D01*
X132117375Y-63443597D01*
X132141665Y-63434538D01*
X132211356Y-63429552D01*
X132228335Y-63434538D01*
X132252624Y-63443597D01*
X132252627Y-63443598D01*
X132312155Y-63449999D01*
X132312172Y-63450000D01*
X132460000Y-63450000D01*
X132960000Y-63450000D01*
X133107828Y-63450000D01*
X133107844Y-63449999D01*
X133167371Y-63443598D01*
X133241666Y-63415888D01*
X133311358Y-63410904D01*
X133328334Y-63415888D01*
X133402628Y-63443598D01*
X133402627Y-63443598D01*
X133462155Y-63449999D01*
X133462172Y-63450000D01*
X133610000Y-63450000D01*
X134110000Y-63450000D01*
X134257828Y-63450000D01*
X134257844Y-63449999D01*
X134317372Y-63443598D01*
X134317379Y-63443596D01*
X134452086Y-63393354D01*
X134452093Y-63393350D01*
X134567187Y-63307190D01*
X134567190Y-63307187D01*
X134653350Y-63192093D01*
X134653354Y-63192086D01*
X134703596Y-63057379D01*
X134703598Y-63057372D01*
X134709999Y-62997844D01*
X134710000Y-62997827D01*
X134710000Y-62850000D01*
X134110000Y-62850000D01*
X134110000Y-63450000D01*
X133610000Y-63450000D01*
X133610000Y-62850000D01*
X132960000Y-62850000D01*
X132960000Y-63450000D01*
X132460000Y-63450000D01*
X132460000Y-62850000D01*
X131910000Y-62850000D01*
X131910000Y-63450000D01*
X131410000Y-63450000D01*
X131410000Y-62850000D01*
X130810000Y-62850000D01*
X130810000Y-62997844D01*
X128100500Y-62997844D01*
X128100500Y-61897844D01*
X130810000Y-61897844D01*
X130816401Y-61957372D01*
X130816403Y-61957380D01*
X130834786Y-62006667D01*
X130839770Y-62076359D01*
X130834786Y-62093333D01*
X130816403Y-62142619D01*
X130816401Y-62142627D01*
X130810000Y-62202155D01*
X130810000Y-62350000D01*
X131410000Y-62350000D01*
X131910000Y-62350000D01*
X132460000Y-62350000D01*
X132960000Y-62350000D01*
X133610000Y-62350000D01*
X134110000Y-62350000D01*
X134710000Y-62350000D01*
X134710000Y-62202172D01*
X134709999Y-62202155D01*
X134703597Y-62142622D01*
X134703597Y-62142621D01*
X134685214Y-62093335D01*
X134680228Y-62023644D01*
X134685214Y-62006665D01*
X134703597Y-61957378D01*
X134703597Y-61957377D01*
X134709999Y-61897844D01*
X134710000Y-61897827D01*
X134710000Y-61750000D01*
X134110000Y-61750000D01*
X134110000Y-62350000D01*
X133610000Y-62350000D01*
X133610000Y-61750000D01*
X132960000Y-61750000D01*
X132960000Y-62350000D01*
X132460000Y-62350000D01*
X132460000Y-61750000D01*
X131910000Y-61750000D01*
X131910000Y-62350000D01*
X131410000Y-62350000D01*
X131410000Y-61750000D01*
X130810000Y-61750000D01*
X130810000Y-61897844D01*
X128100500Y-61897844D01*
X128100500Y-60797844D01*
X130810000Y-60797844D01*
X130816401Y-60857372D01*
X130816403Y-60857380D01*
X130834786Y-60906667D01*
X130839770Y-60976359D01*
X130834786Y-60993333D01*
X130816403Y-61042619D01*
X130816401Y-61042627D01*
X130810000Y-61102155D01*
X130810000Y-61250000D01*
X131410000Y-61250000D01*
X131910000Y-61250000D01*
X132460000Y-61250000D01*
X132960000Y-61250000D01*
X133610000Y-61250000D01*
X134110000Y-61250000D01*
X134710000Y-61250000D01*
X134710000Y-61102172D01*
X134709999Y-61102155D01*
X134703597Y-61042622D01*
X134703597Y-61042621D01*
X134685214Y-60993335D01*
X134680228Y-60923644D01*
X134685214Y-60906665D01*
X134703597Y-60857378D01*
X134703597Y-60857377D01*
X134709999Y-60797844D01*
X134710000Y-60797827D01*
X134710000Y-60650000D01*
X134110000Y-60650000D01*
X134110000Y-61250000D01*
X133610000Y-61250000D01*
X133610000Y-60650000D01*
X132960000Y-60650000D01*
X132960000Y-61250000D01*
X132460000Y-61250000D01*
X132460000Y-60650000D01*
X131910000Y-60650000D01*
X131910000Y-61250000D01*
X131410000Y-61250000D01*
X131410000Y-60650000D01*
X130810000Y-60650000D01*
X130810000Y-60797844D01*
X128100500Y-60797844D01*
X128100500Y-60002155D01*
X130810000Y-60002155D01*
X130810000Y-60150000D01*
X131410000Y-60150000D01*
X131910000Y-60150000D01*
X132460000Y-60150000D01*
X132960000Y-60150000D01*
X133610000Y-60150000D01*
X134110000Y-60150000D01*
X134710000Y-60150000D01*
X134710000Y-60002172D01*
X134709999Y-60002155D01*
X134703598Y-59942627D01*
X134703596Y-59942620D01*
X134653354Y-59807913D01*
X134653350Y-59807906D01*
X134567190Y-59692812D01*
X134567187Y-59692809D01*
X134452093Y-59606649D01*
X134452086Y-59606645D01*
X134317379Y-59556403D01*
X134317372Y-59556401D01*
X134257844Y-59550000D01*
X134110000Y-59550000D01*
X134110000Y-60150000D01*
X133610000Y-60150000D01*
X133610000Y-59550000D01*
X133462155Y-59550000D01*
X133402627Y-59556401D01*
X133402617Y-59556403D01*
X133328332Y-59584110D01*
X133258641Y-59589094D01*
X133241668Y-59584110D01*
X133167382Y-59556403D01*
X133167372Y-59556401D01*
X133107844Y-59550000D01*
X132960000Y-59550000D01*
X132960000Y-60150000D01*
X132460000Y-60150000D01*
X132460000Y-59550000D01*
X132312155Y-59550000D01*
X132252627Y-59556401D01*
X132252620Y-59556403D01*
X132228331Y-59565462D01*
X132158639Y-59570445D01*
X132141669Y-59565462D01*
X132117379Y-59556403D01*
X132117372Y-59556401D01*
X132057844Y-59550000D01*
X131910000Y-59550000D01*
X131910000Y-60150000D01*
X131410000Y-60150000D01*
X131410000Y-59550000D01*
X131262155Y-59550000D01*
X131202627Y-59556401D01*
X131202620Y-59556403D01*
X131067913Y-59606645D01*
X131067906Y-59606649D01*
X130952812Y-59692809D01*
X130952809Y-59692812D01*
X130866649Y-59807906D01*
X130866645Y-59807913D01*
X130816403Y-59942620D01*
X130816401Y-59942627D01*
X130810000Y-60002155D01*
X128100500Y-60002155D01*
X128100500Y-59389059D01*
X128100501Y-59389046D01*
X128100501Y-59220945D01*
X128100501Y-59220943D01*
X128059577Y-59068215D01*
X128015765Y-58992331D01*
X127998142Y-58961807D01*
X127980521Y-58931285D01*
X127864385Y-58815149D01*
X127864374Y-58815139D01*
X126126277Y-57077042D01*
X126109128Y-57055594D01*
X125709761Y-56423495D01*
X125709742Y-56423466D01*
X125709705Y-56423407D01*
X125704276Y-56415003D01*
X125704269Y-56414994D01*
X125704266Y-56414989D01*
X125704261Y-56414983D01*
X125703131Y-56413497D01*
X125696859Y-56404436D01*
X125629816Y-56297738D01*
X125502262Y-56170184D01*
X125349522Y-56074211D01*
X125349519Y-56074209D01*
X125245659Y-56037866D01*
X125188883Y-55997144D01*
X125163136Y-55932191D01*
X125176593Y-55863630D01*
X125198931Y-55833146D01*
X125229816Y-55802262D01*
X125325789Y-55649522D01*
X125385368Y-55479255D01*
X125389615Y-55441560D01*
X125405565Y-55300003D01*
X125405565Y-55299996D01*
X125385369Y-55120750D01*
X125385368Y-55120745D01*
X125325789Y-54950478D01*
X125322583Y-54945375D01*
X125288085Y-54890472D01*
X125269085Y-54823235D01*
X125289453Y-54756400D01*
X125342721Y-54711186D01*
X125393079Y-54700500D01*
X131957228Y-54700500D01*
X132019281Y-54717143D01*
G37*
%TD.AperFunction*%
%TA.AperFunction,Conductor*%
G36*
X128970203Y-80615212D02*
G01*
X129007977Y-80673990D01*
X129009959Y-80681633D01*
X129055424Y-80883136D01*
X129081792Y-81000000D01*
X129096459Y-81065002D01*
X129099500Y-81092294D01*
X129099500Y-82375500D01*
X129079815Y-82442539D01*
X129027011Y-82488294D01*
X128975500Y-82499500D01*
X128671894Y-82499500D01*
X128604855Y-82479815D01*
X128559100Y-82427011D01*
X128549156Y-82357853D01*
X128578181Y-82294297D01*
X128597582Y-82276234D01*
X128598740Y-82275367D01*
X128622546Y-82257546D01*
X128708796Y-82142331D01*
X128759091Y-82007483D01*
X128765500Y-81947873D01*
X128765499Y-81152128D01*
X128759091Y-81092517D01*
X128740480Y-81042618D01*
X128735495Y-80972927D01*
X128740480Y-80955949D01*
X128758597Y-80907375D01*
X128758598Y-80907372D01*
X128764999Y-80847844D01*
X128765000Y-80847827D01*
X128765000Y-80708925D01*
X128784685Y-80641886D01*
X128837489Y-80596131D01*
X128906647Y-80586187D01*
X128970203Y-80615212D01*
G37*
%TD.AperFunction*%
%TA.AperFunction,Conductor*%
G36*
X123243039Y-67069685D02*
G01*
X123288794Y-67122489D01*
X123300000Y-67174000D01*
X123300000Y-68250000D01*
X123847828Y-68250000D01*
X123847844Y-68249999D01*
X123907372Y-68243598D01*
X123907379Y-68243596D01*
X124042086Y-68193354D01*
X124042093Y-68193350D01*
X124157187Y-68107190D01*
X124157190Y-68107187D01*
X124243350Y-67992093D01*
X124243355Y-67992084D01*
X124259318Y-67949286D01*
X124301189Y-67893352D01*
X124366653Y-67868934D01*
X124434926Y-67883785D01*
X124484332Y-67933190D01*
X124499500Y-67992618D01*
X124499500Y-69779902D01*
X124479815Y-69846941D01*
X124463174Y-69867590D01*
X124456982Y-69873781D01*
X124427292Y-69895701D01*
X123476187Y-70398844D01*
X123407723Y-70412792D01*
X123342587Y-70387513D01*
X123301459Y-70331031D01*
X123297396Y-70261279D01*
X123330519Y-70201558D01*
X123429816Y-70102262D01*
X123525789Y-69949522D01*
X123585368Y-69779255D01*
X123605565Y-69600000D01*
X123604906Y-69594154D01*
X123585369Y-69420750D01*
X123585368Y-69420745D01*
X123525788Y-69250476D01*
X123464019Y-69152172D01*
X123429816Y-69097738D01*
X123302262Y-68970184D01*
X123149522Y-68874211D01*
X123149520Y-68874210D01*
X123076131Y-68848530D01*
X123066635Y-68844761D01*
X123040059Y-68832924D01*
X123017428Y-68826509D01*
X122998747Y-68821213D01*
X122991617Y-68818957D01*
X122979259Y-68814632D01*
X122972466Y-68813082D01*
X122972491Y-68812971D01*
X122963267Y-68811155D01*
X122812372Y-68768381D01*
X122571148Y-68700000D01*
X122432047Y-68660568D01*
X122378185Y-68628950D01*
X122210916Y-68461681D01*
X122177431Y-68400358D01*
X122182415Y-68330666D01*
X122224287Y-68274733D01*
X122289751Y-68250316D01*
X122298597Y-68250000D01*
X122800000Y-68250000D01*
X122800000Y-67174000D01*
X122819685Y-67106961D01*
X122872489Y-67061206D01*
X122924000Y-67050000D01*
X123176000Y-67050000D01*
X123243039Y-67069685D01*
G37*
%TD.AperFunction*%
%TD*%
M02*
